SplineFontDB: 3.2
FontName: YoungSerif-LightItalic
FullName: Young Serif Light Italic
FamilyName: Young Serif Light Italic
Weight: Light
Copyright: Copyright 2023 The Young Serif Project Authors \\(https://github.com/noirblancrouge/YoungSerif\\)
Version: 005.002
ItalicAngle: -11
UnderlinePosition: -125
UnderlineWidth: 50
Ascent: 800
Descent: 200
InvalidEm: 0
sfntRevision: 0x00050083
LayerCount: 2
Layer: 0 0 "Back" 1
Layer: 1 0 "Fore" 0
XUID: [1021 735 254010608 16621]
StyleMap: 0x0040
FSType: 0
OS2Version: 4
OS2_WeightWidthSlopeOnly: 0
OS2_UseTypoMetrics: 1
CreationTime: 1750244485
ModificationTime: 1752517675
PfmFamily: 17
TTFWeight: 300
TTFWidth: 5
LineGap: 0
VLineGap: 0
Panose: 2 2 7 4 4 4 6 0 2 3
OS2TypoAscent: 930
OS2TypoAOffset: 0
OS2TypoDescent: -275
OS2TypoDOffset: 0
OS2TypoLinegap: 0
OS2WinAscent: 1150
OS2WinAOffset: 0
OS2WinDescent: 275
OS2WinDOffset: 0
HheadAscent: 930
HheadAOffset: 0
HheadDescent: -275
HheadDOffset: 0
OS2SubXSize: 650
OS2SubYSize: 600
OS2SubXOff: 0
OS2SubYOff: 75
OS2SupXSize: 650
OS2SupYSize: 600
OS2SupXOff: 0
OS2SupYOff: 350
OS2StrikeYSize: 44
OS2StrikeYPos: 300
OS2CapHeight: 660
OS2XHeight: 440
OS2Vendor: 'NBR '
OS2CodePages: 00000001.00000000
OS2UnicodeRanges: 00000003.00000000.00000000.00000000
Lookup: 3 0 0 "'aalt' Access All Alternates in Latin lookup 0" { "'aalt' Access All Alternates in Latin lookup 0 subtable"  } ['aalt' ('DFLT' <'dflt' > 'latn' <'AZE ' 'CAT ' 'CRT ' 'KAZ ' 'MAH ' 'MOL ' 'NLD ' 'ROM ' 'TAT ' 'TRK ' 'dflt' > ) ]
Lookup: 1 0 0 "'smcp' Lowercase to Small Capitals in Latin lookup 1" { "'smcp' Lowercase to Small Capitals in Latin lookup 1 subtable"  } ['smcp' ('DFLT' <'dflt' > 'latn' <'AZE ' 'CAT ' 'CRT ' 'KAZ ' 'MAH ' 'MOL ' 'NLD ' 'ROM ' 'TAT ' 'TRK ' 'dflt' > ) ]
Lookup: 1 0 0 "'sinf' Scientific Inferiors in Latin lookup 2" { "'sinf' Scientific Inferiors in Latin lookup 2 subtable"  } ['sinf' ('DFLT' <'dflt' > 'latn' <'AZE ' 'CAT ' 'CRT ' 'KAZ ' 'MAH ' 'MOL ' 'NLD ' 'ROM ' 'TAT ' 'TRK ' 'dflt' > ) ]

StartChar: .notdef
Encoding: 1114112 -1 0
Width: 440
GlyphClass: 1
Flags: MW
HStem: 0 17.38 0 116 277 62 500 116 598.62 17.38
VStem: 0 26.25 0 55 188 64 385 55 413.75 26.25
LayerCount: 2
Fore
SplineSet
0 603 m 2xac40
 0 610 6 616 13 616 c 2
 427 616 l 2
 434 616 440 610 440 603 c 2
 440 13 l 2
 440 6 434 0 427 0 c 2
 13 0 l 2
 6 0 0 6 0 13 c 2
 0 603 l 2xac40
381.450195312 566.8203125 m 2xaa80
 391.23046875 581.5 382.69921875 598.610351562 364.349609375 598.610351562 c 2
 75.689453125 598.610351562 l 2
 57.33984375 598.610351562 48.7900390625 581.5 58.5703125 566.8203125 c 2
 204.120117188 347.890625 l 2
 211.450195312 335.650390625 228.5703125 335.650390625 235.900390625 347.890625 c 2
 381.450195312 566.8203125 l 2xaa80
369.73828125 127.470703125 m 2x7540
 382.948242188 106.560546875 413.768554688 117.55078125 413.768554688 141.770507812 c 2
 413.768554688 474.220703125 l 2
 413.768554688 498.440429688 382.948242188 509.440429688 369.73828125 488.530273438 c 2
 254.158203125 315.700195312 l 2
 250.848632812 312.400390625 250.848632812 303.600585938 254.158203125 300.30078125 c 2
 369.73828125 127.470703125 l 2x7540
364.348632812 17.390625 m 2xaa80
 382.698242188 17.390625 391.229492188 34.5107421875 381.44921875 49.1806640625 c 2
 235.899414062 268.12109375 l 2
 228.569335938 280.3515625 211.44921875 280.3515625 204.119140625 268.12109375 c 2
 58.5693359375 49.1806640625 l 2
 48.7890625 34.5107421875 57.3388671875 17.390625 75.6884765625 17.390625 c 2
 364.348632812 17.390625 l 2xaa80
26.259765625 141.780273438 m 2x7540
 26.259765625 117.560546875 57.080078125 106.5703125 70.2900390625 127.48046875 c 2
 185.860351562 300.310546875 l 2
 189.169921875 303.610351562 189.169921875 312.41015625 185.860351562 315.709960938 c 2
 70.2900390625 488.540039062 l 2
 57.080078125 509.450195312 26.259765625 499.540039062 26.259765625 475.330078125 c 2
 26.259765625 141.780273438 l 2x7540
EndSplineSet
EndChar

StartChar: A
Encoding: 65 65 4
Width: 642
GlyphClass: 2
Flags: MW
HStem: 640 20G<375.29 431.29 431.29 434.79>
AnchorPoint: "Anchor-6" 581 0 basechar 0
AnchorPoint: "Anchor-5" 401 660 basechar 0
AnchorPoint: "Anchor-4" 247 0 basechar 0
LayerCount: 2
Fore
SplineSet
551.51953125 85 m 2
 556.26953125 58 555.419921875 33 587.419921875 33 c 0
 599.419921875 33 599.439453125 28 597.889648438 20 c 2
 596.529296875 13 l 2
 594.779296875 4 589.999023438 0 580.999023438 0 c 2
 380.999023438 0 l 2
 372.999023438 0 368.779296875 4 370.529296875 13 c 2
 371.889648438 20 l 2
 373.439453125 28 375.419921875 33 387.419921875 33 c 0
 441.419921875 33 464.5 54 456.830078125 102 c 2
 436.270507812 231 l 1
 156.510742188 231 l 1
 79.2705078125 94 l 2
 54.91015625 51 85.419921875 33 132.419921875 33 c 0
 144.419921875 33 144.439453125 28 142.889648438 20 c 2
 141.529296875 13 l 2
 139.779296875 4 133.999023438 0 125.999023438 0 c 2
 -24.0009765625 0 l 2
 -32.0009765625 0 -36.220703125 4 -34.470703125 13 c 2
 -33.1103515625 20 l 2
 -31.560546875 28 -29.580078125 33 -17.580078125 33 c 0
 8.419921875 33 23.689453125 55 43.689453125 91 c 2
 358.149414062 649 l 2
 361.509765625 656 367.290039062 660 375.290039062 660 c 2
 431.290039062 660 l 2
 438.290039062 660 442.509765625 656 444.149414062 649 c 2
 551.51953125 85 l 2
176.669921875 268 m 1
 429.640625 268 l 1
 369.110351562 610.01953125 l 1
 176.669921875 268 l 1
EndSplineSet
Substitution2: "Single Substitution lookup 36 subtable" ordfeminine
Substitution2: "'ss04' Style Set 4 in Latin lookup 33 subtable" u1F150
Substitution2: "'ss03' Style Set 3 in Latin lookup 31 subtable" uni24B6
Substitution2: "'c2sc' Capitals to Small Capitals in Latin lookup 11 subtable" A.sc
AlternateSubs2: "'aalt' Access All Alternates in Latin lookup 0 subtable" ordfeminine A.sc uni24B6 u1F150
Position2: "'cpsp' Capital Spacing in Latin lookup 0 subtable" dx=5 dy=0 dh=10 dv=0
EndChar

StartChar: Aacute
Encoding: 193 193 5
Width: 642
GlyphClass: 2
Flags: MW
HStem: 640 20G<375.29 431.29 431.29 434.79> 719 152
VStem: 353 166
AnchorPoint: "Anchor-6" 581 0 basechar 0
AnchorPoint: "Anchor-5" 480 899 basechar 0
AnchorPoint: "Anchor-4" 247 0 basechar 0
LayerCount: 2
Fore
SplineSet
551.51953125 85 m 2
 556.26953125 58 555.419921875 33 587.419921875 33 c 0
 599.419921875 33 599.439453125 28 597.889648438 20 c 2
 596.529296875 13 l 2
 594.779296875 4 589.999023438 0 580.999023438 0 c 2
 380.999023438 0 l 2
 372.999023438 0 368.779296875 4 370.529296875 13 c 2
 371.889648438 20 l 2
 373.439453125 28 375.419921875 33 387.419921875 33 c 0
 441.419921875 33 464.5 54 456.830078125 102 c 2
 436.270507812 231 l 1
 156.510742188 231 l 1
 79.2705078125 94 l 2
 54.91015625 51 85.419921875 33 132.419921875 33 c 0
 144.419921875 33 144.439453125 28 142.889648438 20 c 2
 141.529296875 13 l 2
 139.779296875 4 133.999023438 0 125.999023438 0 c 2
 -24.0009765625 0 l 2
 -32.0009765625 0 -36.220703125 4 -34.470703125 13 c 2
 -33.1103515625 20 l 2
 -31.560546875 28 -29.580078125 33 -17.580078125 33 c 0
 8.419921875 33 23.689453125 55 43.689453125 91 c 2
 358.149414062 649 l 2
 361.509765625 656 367.290039062 660 375.290039062 660 c 2
 431.290039062 660 l 2
 438.290039062 660 442.509765625 656 444.149414062 649 c 2
 551.51953125 85 l 2
352.719726562 729.200195312 m 1
 415.01953125 791.41015625 430.119140625 810.798828125 461.26953125 858.798828125 c 0
 467.559570312 868.478515625 476.5 871.478515625 487.25 871.478515625 c 0
 514.959960938 871.478515625 522.450195312 857.05859375 517.919921875 833.768554688 c 0
 508.290039062 784.208984375 437.559570312 752.119140625 384.51953125 721.479492188 c 0
 381.059570312 719.479492188 377.58984375 718.26953125 375.109375 718.549804688 c 0
 372.149414062 718.879882812 367.469726562 721.030273438 361.870117188 724.129882812 c 2
 352.719726562 729.200195312 l 1
176.669921875 267.999023438 m 1
 429.640625 268 l 1
 369.110351562 610.01953125 l 1
 176.669921875 267.999023438 l 1
EndSplineSet
Substitution2: "'c2sc' Capitals to Small Capitals in Latin lookup 11 subtable" Aacute.sc
AlternateSubs2: "'aalt' Access All Alternates in Latin lookup 0 subtable" Aacute.sc
Position2: "'cpsp' Capital Spacing in Latin lookup 0 subtable" dx=5 dy=0 dh=10 dv=0
EndChar

StartChar: Abreve
Encoding: 258 258 6
Width: 642
GlyphClass: 2
Flags: MW
HStem: 640 20G<375.29 431.29 431.29 434.79>
VStem: 308 246
AnchorPoint: "Anchor-6" 581 0 basechar 0
AnchorPoint: "Anchor-5" 431 814 basechar 0
AnchorPoint: "Anchor-4" 247 0 basechar 0
LayerCount: 2
Fore
SplineSet
551.51953125 85 m 2
 556.26953125 58 555.419921875 33 587.419921875 33 c 0
 599.419921875 33 599.439453125 28 597.889648438 20 c 2
 596.529296875 13 l 2
 594.779296875 4 589.999023438 0 580.999023438 0 c 2
 380.999023438 0 l 2
 372.999023438 0 368.779296875 4 370.529296875 13 c 2
 371.889648438 20 l 2
 373.439453125 28 375.419921875 33 387.419921875 33 c 0
 441.419921875 33 464.5 54 456.830078125 102 c 2
 436.270507812 231 l 1
 156.510742188 231 l 1
 79.2705078125 94 l 2
 54.91015625 51 85.419921875 33 132.419921875 33 c 0
 144.419921875 33 144.439453125 28 142.889648438 20 c 2
 141.529296875 13 l 2
 139.779296875 4 133.999023438 0 125.999023438 0 c 2
 -24.0009765625 0 l 2
 -32.0009765625 0 -36.220703125 4 -34.470703125 13 c 2
 -33.1103515625 20 l 2
 -31.560546875 28 -29.580078125 33 -17.580078125 33 c 0
 8.419921875 33 23.689453125 55 43.689453125 91 c 2
 358.149414062 649 l 2
 361.509765625 656 367.290039062 660 375.290039062 660 c 2
 431.290039062 660 l 2
 438.290039062 660 442.509765625 656 444.149414062 649 c 2
 551.51953125 85 l 2
411.209960938 711 m 0
 320.209960938 711 302.19140625 778.701171875 308.561523438 811.500976562 c 0
 310.51171875 821.500976562 315.881835938 825.291015625 326.481445312 826.500976562 c 0
 330.611328125 826.970703125 342.000976562 827.400390625 349.000976562 828.090820312 c 0
 362.350585938 829.420898438 365.490234375 826.260742188 363.290039062 811.970703125 c 0
 357.6796875 775.490234375 379.26953125 751.490234375 419.069335938 751.490234375 c 0
 458.87890625 751.490234375 489.798828125 775.490234375 498.369140625 811.969726562 c 0
 501.729492188 826.259765625 506.099609375 829.419921875 518.9296875 828.08984375 c 0
 525.669921875 827.399414062 536.900390625 826.969726562 540.850585938 826.5 c 0
 550.98046875 825.290039062 554.870117188 821.5 552.9296875 811.5 c 0
 546.549804688 778.700195312 502.209960938 711 411.209960938 711 c 0
176.681640625 268.000976562 m 1
 429.65234375 268.001953125 l 1
 369.122070312 610.021484375 l 1
 176.681640625 268.000976562 l 1
EndSplineSet
Substitution2: "'c2sc' Capitals to Small Capitals in Latin lookup 11 subtable" Abreve.sc
AlternateSubs2: "'aalt' Access All Alternates in Latin lookup 0 subtable" Abreve.sc
Position2: "'cpsp' Capital Spacing in Latin lookup 0 subtable" dx=5 dy=0 dh=10 dv=0
EndChar

StartChar: uni1EAE
Encoding: 7854 7854 7
Width: 642
GlyphClass: 2
Flags: MW
HStem: 640 20G<375.29 431.29 431.29 434.79> 873 152
VStem: 308 246 383 166
AnchorPoint: "Anchor-6" 581 0 basechar 0
AnchorPoint: "Anchor-5" 510 1053 basechar 0
AnchorPoint: "Anchor-4" 247 0 basechar 0
LayerCount: 2
Fore
SplineSet
551.51953125 85 m 2xe0
 556.26953125 58 555.419921875 33 587.419921875 33 c 0
 599.419921875 33 599.439453125 28 597.889648438 20 c 2
 596.529296875 13 l 2
 594.779296875 4 589.999023438 0 580.999023438 0 c 2
 380.999023438 0 l 2
 372.999023438 0 368.779296875 4 370.529296875 13 c 2
 371.889648438 20 l 2
 373.439453125 28 375.419921875 33 387.419921875 33 c 0
 441.419921875 33 464.5 54 456.830078125 102 c 2
 436.270507812 231 l 1
 156.510742188 231 l 1
 79.2705078125 94 l 2
 54.91015625 51 85.419921875 33 132.419921875 33 c 0
 144.419921875 33 144.439453125 28 142.889648438 20 c 2
 141.529296875 13 l 2
 139.779296875 4 133.999023438 0 125.999023438 0 c 2
 -24.0009765625 0 l 2
 -32.0009765625 0 -36.220703125 4 -34.470703125 13 c 2
 -33.1103515625 20 l 2
 -31.560546875 28 -29.580078125 33 -17.580078125 33 c 0
 8.419921875 33 23.689453125 55 43.689453125 91 c 2
 358.149414062 649 l 2
 361.509765625 656 367.290039062 660 375.290039062 660 c 2
 431.290039062 660 l 2
 438.290039062 660 442.509765625 656 444.149414062 649 c 2
 551.51953125 85 l 2xe0
411.209960938 711 m 0
 320.209960938 711 302.19140625 778.701171875 308.561523438 811.500976562 c 0
 310.51171875 821.500976562 315.881835938 825.291015625 326.481445312 826.500976562 c 0
 330.611328125 826.970703125 342.000976562 827.400390625 349.000976562 828.090820312 c 0
 362.350585938 829.420898438 365.490234375 826.260742188 363.290039062 811.970703125 c 0
 357.6796875 775.490234375 379.26953125 751.490234375 419.069335938 751.490234375 c 0
 458.87890625 751.490234375 489.798828125 775.490234375 498.369140625 811.969726562 c 0
 501.729492188 826.259765625 506.099609375 829.419921875 518.9296875 828.08984375 c 0
 525.669921875 827.399414062 536.900390625 826.969726562 540.850585938 826.5 c 0
 550.98046875 825.290039062 554.870117188 821.5 552.9296875 811.5 c 0
 546.549804688 778.700195312 502.209960938 711 411.209960938 711 c 0
382.641601562 883.041015625 m 1xd0
 444.94140625 945.250976562 460.040039062 964.650390625 491.190429688 1012.65039062 c 0
 497.470703125 1022.33007812 506.411132812 1025.31054688 517.170898438 1025.31054688 c 0
 544.880859375 1025.31054688 552.360351562 1010.890625 547.840820312 987.610351562 c 0
 538.201171875 938.05078125 467.470703125 905.9609375 414.430664062 875.321289062 c 0
 410.98046875 873.321289062 407.5 872.12109375 405.030273438 872.391601562 c 0
 402.060546875 872.721679688 397.380859375 874.881835938 391.78125 877.981445312 c 2
 382.641601562 883.041015625 l 1xd0
176.680664062 268 m 1
 429.651367188 268 l 1
 369.12109375 610.01953125 l 1
 176.680664062 268 l 1
EndSplineSet
Substitution2: "'c2sc' Capitals to Small Capitals in Latin lookup 11 subtable" uni1EAE.sc
AlternateSubs2: "'aalt' Access All Alternates in Latin lookup 0 subtable" uni1EAE.sc
Position2: "'cpsp' Capital Spacing in Latin lookup 0 subtable" dx=5 dy=0 dh=10 dv=0
EndChar

StartChar: uni1EB6
Encoding: 7862 7862 8
Width: 642
GlyphClass: 2
Flags: MW
HStem: -171 113 640 20G<375.29 431.29 431.29 434.79>
VStem: 176 114 308 246
AnchorPoint: "Anchor-6" 581 0 basechar 0
AnchorPoint: "Anchor-5" 431 814 basechar 0
AnchorPoint: "Anchor-4" 247 0 basechar 0
LayerCount: 2
Fore
SplineSet
551.51953125 85 m 2
 556.26953125 58 555.419921875 33 587.419921875 33 c 0
 599.419921875 33 599.439453125 28 597.889648438 20 c 2
 596.529296875 13 l 2
 594.779296875 4 589.999023438 0 580.999023438 0 c 2
 380.999023438 0 l 2
 372.999023438 0 368.779296875 4 370.529296875 13 c 2
 371.889648438 20 l 2
 373.439453125 28 375.419921875 33 387.419921875 33 c 0
 441.419921875 33 464.5 54 456.830078125 102 c 2
 436.270507812 231 l 1
 156.510742188 231 l 1
 79.2705078125 94 l 2
 54.91015625 51 85.419921875 33 132.419921875 33 c 0
 144.419921875 33 144.439453125 28 142.889648438 20 c 2
 141.529296875 13 l 2
 139.779296875 4 133.999023438 0 125.999023438 0 c 2
 -24.0009765625 0 l 2
 -32.0009765625 0 -36.220703125 4 -34.470703125 13 c 2
 -33.1103515625 20 l 2
 -31.560546875 28 -29.580078125 33 -17.580078125 33 c 0
 8.419921875 33 23.689453125 55 43.689453125 91 c 2
 358.149414062 649 l 2
 361.509765625 656 367.290039062 660 375.290039062 660 c 2
 431.290039062 660 l 2
 438.290039062 660 442.509765625 656 444.149414062 649 c 2
 551.51953125 85 l 2
243.389648438 -57.4404296875 m 0
 257.129882812 -60.1103515625 267.298828125 -67.4404296875 278.369140625 -83.8505859375 c 0
 289.439453125 -100.260742188 292.58984375 -111.5703125 289.919921875 -125.310546875 c 0
 287.25 -139.05078125 279.059570312 -149.05078125 263.6796875 -159.420898438 c 0
 247.26953125 -170.491210938 235.099609375 -173.481445312 221.359375 -170.811523438 c 0
 208.479492188 -168.301757812 199.169921875 -161.151367188 187.240234375 -144.571289062 c 0
 176.009765625 -129.01171875 173.009765625 -116.8515625 175.689453125 -103.111328125 c 0
 178.359375 -89.37109375 185.509765625 -80.0615234375 201.919921875 -68.9912109375 c 0
 218.33984375 -57.9208984375 230.5 -54.9404296875 243.389648438 -57.4404296875 c 0
411.21875 711 m 0
 320.21875 711 302.201171875 778.701171875 308.571289062 811.500976562 c 0
 310.521484375 821.500976562 315.891601562 825.291015625 326.491210938 826.500976562 c 0
 330.62109375 826.970703125 342.010742188 827.400390625 349.010742188 828.090820312 c 0
 362.360351562 829.420898438 365.5 826.260742188 363.299804688 811.970703125 c 0
 357.689453125 775.490234375 379.279296875 751.490234375 419.079101562 751.490234375 c 0
 458.888671875 751.490234375 489.80859375 775.490234375 498.37890625 811.969726562 c 0
 501.739257812 826.259765625 506.109375 829.419921875 518.939453125 828.08984375 c 0
 525.6796875 827.399414062 536.909179688 826.969726562 540.859375 826.5 c 0
 550.989257812 825.290039062 554.87890625 821.5 552.938476562 811.5 c 0
 546.55859375 778.700195312 502.21875 711 411.21875 711 c 0
176.69140625 268.000976562 m 1
 429.662109375 268.001953125 l 1
 369.131835938 610.021484375 l 1
 176.69140625 268.000976562 l 1
EndSplineSet
Substitution2: "'c2sc' Capitals to Small Capitals in Latin lookup 11 subtable" uni1EB6.sc
AlternateSubs2: "'aalt' Access All Alternates in Latin lookup 0 subtable" uni1EB6.sc
Position2: "'cpsp' Capital Spacing in Latin lookup 0 subtable" dx=5 dy=0 dh=10 dv=0
EndChar

StartChar: uni1EB0
Encoding: 7856 7856 9
Width: 642
GlyphClass: 2
Flags: MW
HStem: 640 20G<375.29 431.29 431.29 434.79> 873 152
VStem: 308 246 309 167
AnchorPoint: "Anchor-6" 581 0 basechar 0
AnchorPoint: "Anchor-5" 453 1053 basechar 0
AnchorPoint: "Anchor-4" 247 0 basechar 0
LayerCount: 2
Fore
SplineSet
551.51953125 85 m 2xe0
 556.26953125 58 555.419921875 33 587.419921875 33 c 0
 599.419921875 33 599.439453125 28 597.889648438 20 c 2
 596.529296875 13 l 2
 594.779296875 4 589.999023438 0 580.999023438 0 c 2
 380.999023438 0 l 2
 372.999023438 0 368.779296875 4 370.529296875 13 c 2
 371.889648438 20 l 2
 373.439453125 28 375.419921875 33 387.419921875 33 c 0
 441.419921875 33 464.5 54 456.830078125 102 c 2
 436.270507812 231 l 1
 156.510742188 231 l 1
 79.2705078125 94 l 2
 54.91015625 51 85.419921875 33 132.419921875 33 c 0
 144.419921875 33 144.439453125 28 142.889648438 20 c 2
 141.529296875 13 l 2
 139.779296875 4 133.999023438 0 125.999023438 0 c 2
 -24.0009765625 0 l 2
 -32.0009765625 0 -36.220703125 4 -34.470703125 13 c 2
 -33.1103515625 20 l 2
 -31.560546875 28 -29.580078125 33 -17.580078125 33 c 0
 8.419921875 33 23.689453125 55 43.689453125 91 c 2
 358.149414062 649 l 2
 361.509765625 656 367.290039062 660 375.290039062 660 c 2
 431.290039062 660 l 2
 438.290039062 660 442.509765625 656 444.149414062 649 c 2
 551.51953125 85 l 2xe0
411.209960938 711 m 0
 320.209960938 711 302.19140625 778.701171875 308.561523438 811.500976562 c 0
 310.51171875 821.500976562 315.881835938 825.291015625 326.481445312 826.500976562 c 0
 330.611328125 826.970703125 342.000976562 827.400390625 349.000976562 828.090820312 c 0
 362.350585938 829.420898438 365.490234375 826.260742188 363.290039062 811.970703125 c 0
 357.6796875 775.490234375 379.26953125 751.490234375 419.069335938 751.490234375 c 0
 458.87890625 751.490234375 489.798828125 775.490234375 498.369140625 811.969726562 c 0
 501.729492188 826.259765625 506.099609375 829.419921875 518.9296875 828.08984375 c 0
 525.669921875 827.399414062 536.900390625 826.969726562 540.850585938 826.5 c 0
 550.98046875 825.290039062 554.870117188 821.5 552.9296875 811.5 c 0
 546.549804688 778.700195312 502.209960938 711 411.209960938 711 c 0
466.221679688 877.98046875 m 2
 460.622070312 874.880859375 455.940429688 872.720703125 452.970703125 872.390625 c 0
 450.500976562 872.12109375 447.020507812 873.321289062 443.5703125 875.321289062 c 0
 390.530273438 905.9609375 319.799804688 938.05078125 310.16015625 987.610351562 c 0
 305.640625 1010.890625 313.120117188 1025.31054688 340.83984375 1025.31054688 c 0
 351.58984375 1025.31054688 360.530273438 1022.33007812 366.810546875 1012.65039062 c 0
 397.9609375 964.650390625 413.071289062 945.25 475.361328125 883.040039062 c 1xd0
 466.221679688 877.98046875 l 2
176.6796875 268 m 1
 429.650390625 268 l 1
 369.120117188 610.01953125 l 1
 176.6796875 268 l 1
EndSplineSet
Substitution2: "'c2sc' Capitals to Small Capitals in Latin lookup 11 subtable" uni1EB0.sc
AlternateSubs2: "'aalt' Access All Alternates in Latin lookup 0 subtable" uni1EB0.sc
Position2: "'cpsp' Capital Spacing in Latin lookup 0 subtable" dx=5 dy=0 dh=10 dv=0
EndChar

StartChar: uni1EB2
Encoding: 7858 7858 10
Width: 642
GlyphClass: 2
Flags: MW
HStem: 640 20G<375.29 431.29 431.29 434.79> 966 57
VStem: 308 246 471 49
AnchorPoint: "Anchor-6" 581 0 basechar 0
AnchorPoint: "Anchor-5" 487 1100 basechar 0
AnchorPoint: "Anchor-4" 247 0 basechar 0
LayerCount: 2
Fore
SplineSet
551.51953125 85 m 2xd0
 556.26953125 58 555.419921875 33 587.419921875 33 c 0
 599.419921875 33 599.439453125 28 597.889648438 20 c 2
 596.529296875 13 l 2
 594.779296875 4 589.999023438 0 580.999023438 0 c 2
 380.999023438 0 l 2
 372.999023438 0 368.779296875 4 370.529296875 13 c 2
 371.889648438 20 l 2
 373.439453125 28 375.419921875 33 387.419921875 33 c 0
 441.419921875 33 464.5 54 456.830078125 102 c 2
 436.270507812 231 l 1
 156.510742188 231 l 1
 79.2705078125 94 l 2
 54.91015625 51 85.419921875 33 132.419921875 33 c 0
 144.419921875 33 144.439453125 28 142.889648438 20 c 2
 141.529296875 13 l 2
 139.779296875 4 133.999023438 0 125.999023438 0 c 2
 -24.0009765625 0 l 2
 -32.0009765625 0 -36.220703125 4 -34.470703125 13 c 2
 -33.1103515625 20 l 2
 -31.560546875 28 -29.580078125 33 -17.580078125 33 c 0
 8.419921875 33 23.689453125 55 43.689453125 91 c 2
 358.149414062 649 l 2
 361.509765625 656 367.290039062 660 375.290039062 660 c 2
 431.290039062 660 l 2
 438.290039062 660 442.509765625 656 444.149414062 649 c 2
 551.51953125 85 l 2xd0
411.209960938 711 m 0
 320.209960938 711 302.19140625 778.701171875 308.561523438 811.500976562 c 0xe0
 310.51171875 821.500976562 315.881835938 825.291015625 326.481445312 826.500976562 c 0
 330.611328125 826.970703125 342.000976562 827.400390625 349.000976562 828.090820312 c 0
 362.350585938 829.420898438 365.490234375 826.260742188 363.290039062 811.970703125 c 0
 357.6796875 775.490234375 379.26953125 751.490234375 419.069335938 751.490234375 c 0
 458.87890625 751.490234375 489.798828125 775.490234375 498.369140625 811.969726562 c 0
 501.729492188 826.259765625 506.099609375 829.419921875 518.9296875 828.08984375 c 0xd0
 525.669921875 827.399414062 536.900390625 826.969726562 540.850585938 826.5 c 0
 550.98046875 825.290039062 554.870117188 821.5 552.9296875 811.5 c 0xe0
 546.549804688 778.700195312 502.209960938 711 411.209960938 711 c 0
467.401367188 875.7109375 m 0
 459.141601562 867.100585938 434.071289062 887.311523438 438.590820312 893.28125 c 0
 449.701171875 907.94140625 466.701171875 922.591796875 470.500976562 942.151367188 c 0
 473.69140625 958.521484375 463.750976562 966.251953125 449.411132812 966.251953125 c 0
 431.840820312 966.251953125 417.470703125 952.58203125 415.041015625 959.091796875 c 0
 410.651367188 970.8515625 401.451171875 985.541992188 407.391601562 1000.39160156 c 0
 410.76171875 1008.80175781 436.83203125 1022.8515625 465.83203125 1022.8515625 c 0
 516.532226562 1022.8515625 525.251953125 983.821289062 519.811523438 955.8515625 c 0xd0
 515.251953125 932.411132812 496.131835938 905.161132812 467.401367188 875.7109375 c 0
176.670898438 268.001953125 m 1
 429.641601562 268.001953125 l 1
 369.111328125 610.021484375 l 1
 176.670898438 268.001953125 l 1
EndSplineSet
Substitution2: "'c2sc' Capitals to Small Capitals in Latin lookup 11 subtable" uni1EB2.sc
AlternateSubs2: "'aalt' Access All Alternates in Latin lookup 0 subtable" uni1EB2.sc
Position2: "'cpsp' Capital Spacing in Latin lookup 0 subtable" dx=5 dy=0 dh=10 dv=0
EndChar

StartChar: uni1EB4
Encoding: 7860 7860 11
Width: 642
GlyphClass: 2
Flags: MW
HStem: 640 20G<375.29 431.29 431.29 434.79> 883 42 967 41
VStem: 308 246 317 48 549 47
AnchorPoint: "Anchor-6" 581 0 basechar 0
AnchorPoint: "Anchor-5" 467 999 basechar 0
AnchorPoint: "Anchor-4" 247 0 basechar 0
LayerCount: 2
Fore
SplineSet
551.51953125 85 m 2xe8
 556.26953125 58 555.419921875 33 587.419921875 33 c 0
 599.419921875 33 599.439453125 28 597.889648438 20 c 2
 596.529296875 13 l 2xec
 594.779296875 4 589.999023438 0 580.999023438 0 c 2
 380.999023438 0 l 2
 372.999023438 0 368.779296875 4 370.529296875 13 c 2
 371.889648438 20 l 2
 373.439453125 28 375.419921875 33 387.419921875 33 c 0
 441.419921875 33 464.5 54 456.830078125 102 c 2
 436.270507812 231 l 1
 156.510742188 231 l 1
 79.2705078125 94 l 2
 54.91015625 51 85.419921875 33 132.419921875 33 c 0
 144.419921875 33 144.439453125 28 142.889648438 20 c 2
 141.529296875 13 l 2
 139.779296875 4 133.999023438 0 125.999023438 0 c 2
 -24.0009765625 0 l 2
 -32.0009765625 0 -36.220703125 4 -34.470703125 13 c 2
 -33.1103515625 20 l 2
 -31.560546875 28 -29.580078125 33 -17.580078125 33 c 0
 8.419921875 33 23.689453125 55 43.689453125 91 c 2
 358.149414062 649 l 2
 361.509765625 656 367.290039062 660 375.290039062 660 c 2
 431.290039062 660 l 2
 438.290039062 660 442.509765625 656 444.149414062 649 c 2
 551.51953125 85 l 2xe8
411.209960938 711 m 0
 320.209960938 711 302.19140625 778.701171875 308.561523438 811.500976562 c 0
 310.51171875 821.500976562 315.881835938 825.291015625 326.481445312 826.500976562 c 0
 330.611328125 826.970703125 342.000976562 827.400390625 349.000976562 828.090820312 c 0
 362.350585938 829.420898438 365.490234375 826.260742188 363.290039062 811.970703125 c 0
 357.6796875 775.490234375 379.26953125 751.490234375 419.069335938 751.490234375 c 0
 458.87890625 751.490234375 489.798828125 775.490234375 498.369140625 811.969726562 c 0
 501.729492188 826.259765625 506.099609375 829.419921875 518.9296875 828.08984375 c 0
 525.669921875 827.399414062 536.900390625 826.969726562 540.850585938 826.5 c 0
 550.98046875 825.290039062 554.870117188 821.5 552.9296875 811.5 c 0xf0
 546.549804688 778.700195312 502.209960938 711 411.209960938 711 c 0
473.561523438 956.901367188 m 0
 484.341796875 933.081054688 495.381835938 924.858398438 510.782226562 924.858398438 c 0
 530.782226562 924.858398438 546.841796875 940.578125 550.981445312 961.858398438 c 0
 553.061523438 972.598632812 553.19140625 984.258789062 549.44140625 996.119140625 c 1
 559.081054688 1002.91894531 570.510742188 1008.859375 579.110351562 1008.859375 c 0
 592.370117188 1008.859375 601.530273438 985.299804688 596.200195312 957.859375 c 0xec
 587.08984375 911.01953125 548.259765625 882.859375 512.620117188 882.859375 c 0
 461.41015625 882.859375 449.240234375 910.009765625 440.190429688 933.26953125 c 0
 431.110351562 958.419921875 419.350585938 966.860351562 403.950195312 966.860351562 c 0
 383.950195312 966.860351562 366.530273438 949.260742188 362.560546875 928.860351562 c 0
 360.390625 917.700195312 360.990234375 906.0703125 364.940429688 894.510742188 c 1
 355.270507812 887.750976562 343.690429688 881.861328125 334.420898438 881.861328125 c 0
 322.12109375 881.861328125 311.94140625 905.061523438 317.141601562 931.861328125 c 0xe8
 326.421875 979.571289062 366.162109375 1007.86132812 401.921875 1007.86132812 c 0
 452.271484375 1007.86132812 464.8515625 978.861328125 473.561523438 956.901367188 c 0
176.681640625 268.008789062 m 1
 429.65234375 268.009765625 l 1
 369.122070312 610.029296875 l 1
 176.681640625 268.008789062 l 1
EndSplineSet
Substitution2: "'c2sc' Capitals to Small Capitals in Latin lookup 11 subtable" uni1EB4.sc
AlternateSubs2: "'aalt' Access All Alternates in Latin lookup 0 subtable" uni1EB4.sc
Position2: "'cpsp' Capital Spacing in Latin lookup 0 subtable" dx=5 dy=0 dh=10 dv=0
EndChar

StartChar: uni01CD
Encoding: 461 461 12
Width: 642
GlyphClass: 2
Flags: MW
HStem: 640 20G<375.29 431.29 431.29 434.79> 726 131
VStem: 311 240
AnchorPoint: "Anchor-6" 581 0 basechar 0
AnchorPoint: "Anchor-5" 444 845 basechar 0
AnchorPoint: "Anchor-4" 247 0 basechar 0
LayerCount: 2
Fore
SplineSet
551.51953125 85 m 2
 556.26953125 58 555.419921875 33 587.419921875 33 c 0
 599.419921875 33 599.439453125 28 597.889648438 20 c 2
 596.529296875 13 l 2
 594.779296875 4 589.999023438 0 580.999023438 0 c 2
 380.999023438 0 l 2
 372.999023438 0 368.779296875 4 370.529296875 13 c 2
 371.889648438 20 l 2
 373.439453125 28 375.419921875 33 387.419921875 33 c 0
 441.419921875 33 464.5 54 456.830078125 102 c 2
 436.270507812 231 l 1
 156.510742188 231 l 1
 79.2705078125 94 l 2
 54.91015625 51 85.419921875 33 132.419921875 33 c 0
 144.419921875 33 144.439453125 28 142.889648438 20 c 2
 141.529296875 13 l 2
 139.779296875 4 133.999023438 0 125.999023438 0 c 2
 -24.0009765625 0 l 2
 -32.0009765625 0 -36.220703125 4 -34.470703125 13 c 2
 -33.1103515625 20 l 2
 -31.560546875 28 -29.580078125 33 -17.580078125 33 c 0
 8.419921875 33 23.689453125 55 43.689453125 91 c 2
 358.149414062 649 l 2
 361.509765625 656 367.290039062 660 375.290039062 660 c 2
 431.290039062 660 l 2
 438.290039062 660 442.509765625 656 444.149414062 649 c 2
 551.51953125 85 l 2
424.83984375 785.080078125 m 1
 449.51953125 819.120117188 487.520507812 857.33984375 527.130859375 857.33984375 c 0
 547.970703125 857.33984375 553.780273438 837.189453125 549.330078125 814.259765625 c 0
 547.299804688 803.83984375 544.849609375 794.799804688 536.529296875 791.330078125 c 0
 493.259765625 776.040039062 470.389648438 765.620117188 413.359375 726.020507812 c 1
 371.729492188 765.620117188 352.909179688 776.040039062 315.579101562 791.330078125 c 0
 308.609375 794.799804688 309.668945312 803.83984375 311.69921875 814.259765625 c 0
 316.149414062 837.189453125 329.799804688 857.33984375 350.639648438 857.33984375 c 0
 390.25 857.33984375 413.389648438 819.120117188 424.83984375 785.080078125 c 1
176.670898438 268 m 1
 429.641601562 268 l 1
 369.111328125 610.01953125 l 1
 176.670898438 268 l 1
EndSplineSet
Substitution2: "'c2sc' Capitals to Small Capitals in Latin lookup 11 subtable" uni01CD.sc
AlternateSubs2: "'aalt' Access All Alternates in Latin lookup 0 subtable" uni01CD.sc
Position2: "'cpsp' Capital Spacing in Latin lookup 0 subtable" dx=5 dy=0 dh=10 dv=0
EndChar

StartChar: Acircumflex
Encoding: 194 194 13
Width: 642
GlyphClass: 2
Flags: MW
HStem: 640 20G<375.29 431.29 431.29 434.79> 718 131
VStem: 301 240
AnchorPoint: "Anchor-7" 417 742 basechar 0
AnchorPoint: "Anchor-6" 581 0 basechar 0
AnchorPoint: "Anchor-5" 428 799 basechar 0
AnchorPoint: "Anchor-4" 247 0 basechar 0
LayerCount: 2
Fore
SplineSet
551.51953125 85 m 2
 556.26953125 58 555.419921875 33 587.419921875 33 c 0
 599.419921875 33 599.439453125 28 597.889648438 20 c 2
 596.529296875 13 l 2
 594.779296875 4 589.999023438 0 580.999023438 0 c 2
 380.999023438 0 l 2
 372.999023438 0 368.779296875 4 370.529296875 13 c 2
 371.889648438 20 l 2
 373.439453125 28 375.419921875 33 387.419921875 33 c 0
 441.419921875 33 464.5 54 456.830078125 102 c 2
 436.270507812 231 l 1
 156.510742188 231 l 1
 79.2705078125 94 l 2
 54.91015625 51 85.419921875 33 132.419921875 33 c 0
 144.419921875 33 144.439453125 28 142.889648438 20 c 2
 141.529296875 13 l 2
 139.779296875 4 133.999023438 0 125.999023438 0 c 2
 -24.0009765625 0 l 2
 -32.0009765625 0 -36.220703125 4 -34.470703125 13 c 2
 -33.1103515625 20 l 2
 -31.560546875 28 -29.580078125 33 -17.580078125 33 c 0
 8.419921875 33 23.689453125 55 43.689453125 91 c 2
 358.149414062 649 l 2
 361.509765625 656 367.290039062 660 375.290039062 660 c 2
 431.290039062 660 l 2
 438.290039062 660 442.509765625 656 444.149414062 649 c 2
 551.51953125 85 l 2
426.549804688 789.919921875 m 1
 401.859375 755.879882812 363.857421875 717.66015625 324.2578125 717.66015625 c 0
 303.408203125 717.66015625 297.598632812 737.810546875 302.05859375 760.740234375 c 0
 304.088867188 771.16015625 306.5390625 780.200195312 314.848632812 783.669921875 c 0
 358.12890625 798.959960938 380.999023438 809.379882812 438.029296875 848.979492188 c 1
 479.659179688 809.379882812 498.479492188 798.959960938 535.809570312 783.669921875 c 0
 542.779296875 780.200195312 541.708984375 771.16015625 539.689453125 760.740234375 c 0
 535.229492188 737.810546875 521.58984375 717.66015625 500.740234375 717.66015625 c 0
 461.140625 717.66015625 437.990234375 755.879882812 426.549804688 789.919921875 c 1
176.66796875 268 m 1
 429.638671875 268 l 1
 369.108398438 610.01953125 l 1
 176.66796875 268 l 1
EndSplineSet
Substitution2: "'c2sc' Capitals to Small Capitals in Latin lookup 11 subtable" Acircumflex.sc
AlternateSubs2: "'aalt' Access All Alternates in Latin lookup 0 subtable" Acircumflex.sc
Position2: "'cpsp' Capital Spacing in Latin lookup 0 subtable" dx=5 dy=0 dh=10 dv=0
EndChar

StartChar: uni1EA4
Encoding: 7844 7844 14
Width: 642
GlyphClass: 2
Flags: MW
HStem: 640 20G<375.29 431.29 431.29 434.79> 718 131 811 152
VStem: 513 166
AnchorPoint: "Anchor-7" 640 991 basechar 0
AnchorPoint: "Anchor-6" 581 0 basechar 0
AnchorPoint: "Anchor-5" 428 799 basechar 0
AnchorPoint: "Anchor-4" 247 0 basechar 0
LayerCount: 2
Fore
SplineSet
551.51953125 85 m 2xb0
 556.26953125 58 555.419921875 33 587.419921875 33 c 0
 599.419921875 33 599.439453125 28 597.889648438 20 c 2
 596.529296875 13 l 2
 594.779296875 4 589.999023438 0 580.999023438 0 c 2
 380.999023438 0 l 2
 372.999023438 0 368.779296875 4 370.529296875 13 c 2
 371.889648438 20 l 2
 373.439453125 28 375.419921875 33 387.419921875 33 c 0
 441.419921875 33 464.5 54 456.830078125 102 c 2
 436.270507812 231 l 1
 156.510742188 231 l 1
 79.2705078125 94 l 2
 54.91015625 51 85.419921875 33 132.419921875 33 c 0
 144.419921875 33 144.439453125 28 142.889648438 20 c 2
 141.529296875 13 l 2
 139.779296875 4 133.999023438 0 125.999023438 0 c 2
 -24.0009765625 0 l 2
 -32.0009765625 0 -36.220703125 4 -34.470703125 13 c 2
 -33.1103515625 20 l 2
 -31.560546875 28 -29.580078125 33 -17.580078125 33 c 0
 8.419921875 33 23.689453125 55 43.689453125 91 c 2
 358.149414062 649 l 2
 361.509765625 656 367.290039062 660 375.290039062 660 c 2
 431.290039062 660 l 2
 438.290039062 660 442.509765625 656 444.149414062 649 c 2
 551.51953125 85 l 2xb0
426.549804688 789.919921875 m 1
 401.859375 755.879882812 363.857421875 717.66015625 324.2578125 717.66015625 c 0
 303.408203125 717.66015625 297.598632812 737.810546875 302.05859375 760.740234375 c 0
 304.088867188 771.16015625 306.5390625 780.200195312 314.848632812 783.669921875 c 0
 358.12890625 798.959960938 380.999023438 809.379882812 438.029296875 848.979492188 c 1
 479.659179688 809.379882812 498.479492188 798.959960938 535.809570312 783.669921875 c 0
 542.779296875 780.200195312 541.708984375 771.16015625 539.689453125 760.740234375 c 0
 535.229492188 737.810546875 521.58984375 717.66015625 500.740234375 717.66015625 c 0xd0
 461.140625 717.66015625 437.990234375 755.879882812 426.549804688 789.919921875 c 1
512.767578125 820.729492188 m 1
 575.067382812 882.939453125 590.176757812 902.33984375 621.327148438 950.33984375 c 0
 627.607421875 960.01953125 636.547851562 963 647.297851562 963 c 0
 675.0078125 963 682.498046875 948.580078125 677.977539062 925.299804688 c 0
 668.337890625 875.740234375 597.607421875 843.650390625 544.567382812 813.010742188 c 0
 541.1171875 811.010742188 537.63671875 809.810546875 535.166992188 810.080078125 c 0xb0
 532.197265625 810.41015625 527.517578125 812.5703125 521.91796875 815.669921875 c 2
 512.767578125 820.729492188 l 1
176.666992188 268 m 1
 429.637695312 268 l 1
 369.107421875 610.01953125 l 1
 176.666992188 268 l 1
EndSplineSet
Substitution2: "'c2sc' Capitals to Small Capitals in Latin lookup 11 subtable" uni1EA4.sc
AlternateSubs2: "'aalt' Access All Alternates in Latin lookup 0 subtable" uni1EA4.sc
Position2: "'cpsp' Capital Spacing in Latin lookup 0 subtable" dx=5 dy=0 dh=10 dv=0
EndChar

StartChar: uni1EAC
Encoding: 7852 7852 15
Width: 642
GlyphClass: 2
Flags: MW
HStem: -171 113 640 20G<375.29 431.29 431.29 434.79> 718 131
VStem: 176 114 301 240
AnchorPoint: "Anchor-7" 417 742 basechar 0
AnchorPoint: "Anchor-6" 581 0 basechar 0
AnchorPoint: "Anchor-5" 428 799 basechar 0
AnchorPoint: "Anchor-4" 247 0 basechar 0
LayerCount: 2
Fore
SplineSet
551.51953125 85 m 2
 556.26953125 58 555.419921875 33 587.419921875 33 c 0
 599.419921875 33 599.439453125 28 597.889648438 20 c 2
 596.529296875 13 l 2
 594.779296875 4 589.999023438 0 580.999023438 0 c 2
 380.999023438 0 l 2
 372.999023438 0 368.779296875 4 370.529296875 13 c 2
 371.889648438 20 l 2
 373.439453125 28 375.419921875 33 387.419921875 33 c 0
 441.419921875 33 464.5 54 456.830078125 102 c 2
 436.270507812 231 l 1
 156.510742188 231 l 1
 79.2705078125 94 l 2
 54.91015625 51 85.419921875 33 132.419921875 33 c 0
 144.419921875 33 144.439453125 28 142.889648438 20 c 2
 141.529296875 13 l 2
 139.779296875 4 133.999023438 0 125.999023438 0 c 2
 -24.0009765625 0 l 2
 -32.0009765625 0 -36.220703125 4 -34.470703125 13 c 2
 -33.1103515625 20 l 2
 -31.560546875 28 -29.580078125 33 -17.580078125 33 c 0
 8.419921875 33 23.689453125 55 43.689453125 91 c 2
 358.149414062 649 l 2
 361.509765625 656 367.290039062 660 375.290039062 660 c 2
 431.290039062 660 l 2
 438.290039062 660 442.509765625 656 444.149414062 649 c 2
 551.51953125 85 l 2
243.389648438 -57.4404296875 m 0
 257.129882812 -60.1103515625 267.298828125 -67.4404296875 278.369140625 -83.8505859375 c 0
 289.439453125 -100.260742188 292.58984375 -111.5703125 289.919921875 -125.310546875 c 0
 287.25 -139.05078125 279.059570312 -149.05078125 263.6796875 -159.420898438 c 0
 247.26953125 -170.491210938 235.099609375 -173.481445312 221.359375 -170.811523438 c 0
 208.479492188 -168.301757812 199.169921875 -161.151367188 187.240234375 -144.571289062 c 0
 176.009765625 -129.01171875 173.009765625 -116.8515625 175.689453125 -103.111328125 c 0
 178.359375 -89.37109375 185.509765625 -80.0615234375 201.919921875 -68.9912109375 c 0
 218.33984375 -57.9208984375 230.5 -54.9404296875 243.389648438 -57.4404296875 c 0
426.55859375 789.919921875 m 1
 401.868164062 755.879882812 363.866210938 717.66015625 324.266601562 717.66015625 c 0
 303.416992188 717.66015625 297.607421875 737.810546875 302.067382812 760.740234375 c 0
 304.09765625 771.16015625 306.547851562 780.200195312 314.857421875 783.669921875 c 0
 358.137695312 798.959960938 381.0078125 809.379882812 438.038085938 848.979492188 c 1
 479.66796875 809.379882812 498.48828125 798.959960938 535.818359375 783.669921875 c 0
 542.788085938 780.200195312 541.717773438 771.16015625 539.698242188 760.740234375 c 0
 535.23828125 737.810546875 521.598632812 717.66015625 500.749023438 717.66015625 c 0
 461.149414062 717.66015625 437.999023438 755.879882812 426.55859375 789.919921875 c 1
176.676757812 268 m 1
 429.647460938 268 l 1
 369.1171875 610.01953125 l 1
 176.676757812 268 l 1
EndSplineSet
Substitution2: "'c2sc' Capitals to Small Capitals in Latin lookup 11 subtable" uni1EAC.sc
AlternateSubs2: "'aalt' Access All Alternates in Latin lookup 0 subtable" uni1EAC.sc
Position2: "'cpsp' Capital Spacing in Latin lookup 0 subtable" dx=5 dy=0 dh=10 dv=0
EndChar

StartChar: uni1EA6
Encoding: 7846 7846 16
Width: 642
GlyphClass: 2
Flags: MW
HStem: 640 20G<375.29 431.29 431.29 434.79> 718 131 811 152
VStem: 184 167 301 240
AnchorPoint: "Anchor-7" 328 991 basechar 0
AnchorPoint: "Anchor-6" 581 0 basechar 0
AnchorPoint: "Anchor-5" 428 799 basechar 0
AnchorPoint: "Anchor-4" 247 0 basechar 0
LayerCount: 2
Fore
SplineSet
551.51953125 85 m 2xc8
 556.26953125 58 555.419921875 33 587.419921875 33 c 0
 599.419921875 33 599.439453125 28 597.889648438 20 c 2
 596.529296875 13 l 2
 594.779296875 4 589.999023438 0 580.999023438 0 c 2
 380.999023438 0 l 2
 372.999023438 0 368.779296875 4 370.529296875 13 c 2
 371.889648438 20 l 2
 373.439453125 28 375.419921875 33 387.419921875 33 c 0
 441.419921875 33 464.5 54 456.830078125 102 c 2
 436.270507812 231 l 1
 156.510742188 231 l 1
 79.2705078125 94 l 2
 54.91015625 51 85.419921875 33 132.419921875 33 c 0
 144.419921875 33 144.439453125 28 142.889648438 20 c 2
 141.529296875 13 l 2
 139.779296875 4 133.999023438 0 125.999023438 0 c 2
 -24.0009765625 0 l 2
 -32.0009765625 0 -36.220703125 4 -34.470703125 13 c 2
 -33.1103515625 20 l 2
 -31.560546875 28 -29.580078125 33 -17.580078125 33 c 0
 8.419921875 33 23.689453125 55 43.689453125 91 c 2
 358.149414062 649 l 2
 361.509765625 656 367.290039062 660 375.290039062 660 c 2
 431.290039062 660 l 2
 438.290039062 660 442.509765625 656 444.149414062 649 c 2
 551.51953125 85 l 2xc8
426.549804688 789.919921875 m 1
 401.859375 755.879882812 363.857421875 717.66015625 324.2578125 717.66015625 c 0
 303.408203125 717.66015625 297.598632812 737.810546875 302.05859375 760.740234375 c 0
 304.088867188 771.16015625 306.5390625 780.200195312 314.848632812 783.669921875 c 0
 358.12890625 798.959960938 380.999023438 809.379882812 438.029296875 848.979492188 c 1
 479.659179688 809.379882812 498.479492188 798.959960938 535.809570312 783.669921875 c 0
 542.779296875 780.200195312 541.708984375 771.16015625 539.689453125 760.740234375 c 0
 535.229492188 737.810546875 521.58984375 717.66015625 500.740234375 717.66015625 c 0
 461.140625 717.66015625 437.990234375 755.879882812 426.549804688 789.919921875 c 1
341.09765625 815.669921875 m 2
 335.498046875 812.5703125 330.817382812 810.41015625 327.84765625 810.080078125 c 0
 325.377929688 809.810546875 321.897460938 811.010742188 318.447265625 813.010742188 c 0
 265.397460938 843.650390625 194.666992188 875.740234375 185.037109375 925.299804688 c 0
 180.506835938 948.580078125 187.997070312 963 215.70703125 963 c 0xb0
 226.466796875 963 235.407226562 960.01953125 241.6875 950.33984375 c 0
 272.837890625 902.33984375 287.9375 882.939453125 350.237304688 820.729492188 c 1xd0
 341.09765625 815.669921875 l 2
176.666992188 268 m 1
 429.637695312 268 l 1
 369.107421875 610.01953125 l 1
 176.666992188 268 l 1
EndSplineSet
Substitution2: "'c2sc' Capitals to Small Capitals in Latin lookup 11 subtable" uni1EA6.sc
AlternateSubs2: "'aalt' Access All Alternates in Latin lookup 0 subtable" uni1EA6.sc
Position2: "'cpsp' Capital Spacing in Latin lookup 0 subtable" dx=5 dy=0 dh=10 dv=0
EndChar

StartChar: uni1EA8
Encoding: 7848 7848 17
Width: 642
GlyphClass: 2
Flags: MW
HStem: 640 20G<375.29 431.29 431.29 434.79> 718 131 904 57
VStem: 301 240 544 49
AnchorPoint: "Anchor-7" 561 1038 basechar 0
AnchorPoint: "Anchor-6" 581 0 basechar 0
AnchorPoint: "Anchor-5" 428 799 basechar 0
AnchorPoint: "Anchor-4" 247 0 basechar 0
LayerCount: 2
Fore
SplineSet
551.51953125 85 m 2
 556.26953125 58 555.419921875 33 587.419921875 33 c 0
 599.419921875 33 599.439453125 28 597.889648438 20 c 2
 596.529296875 13 l 2
 594.779296875 4 589.999023438 0 580.999023438 0 c 2
 380.999023438 0 l 2
 372.999023438 0 368.779296875 4 370.529296875 13 c 2
 371.889648438 20 l 2
 373.439453125 28 375.419921875 33 387.419921875 33 c 0
 441.419921875 33 464.5 54 456.830078125 102 c 2
 436.270507812 231 l 1
 156.510742188 231 l 1
 79.2705078125 94 l 2
 54.91015625 51 85.419921875 33 132.419921875 33 c 0
 144.419921875 33 144.439453125 28 142.889648438 20 c 2
 141.529296875 13 l 2
 139.779296875 4 133.999023438 0 125.999023438 0 c 2
 -24.0009765625 0 l 2
 -32.0009765625 0 -36.220703125 4 -34.470703125 13 c 2
 -33.1103515625 20 l 2
 -31.560546875 28 -29.580078125 33 -17.580078125 33 c 0
 8.419921875 33 23.689453125 55 43.689453125 91 c 2
 358.149414062 649 l 2
 361.509765625 656 367.290039062 660 375.290039062 660 c 2
 431.290039062 660 l 2
 438.290039062 660 442.509765625 656 444.149414062 649 c 2
 551.51953125 85 l 2
426.549804688 789.919921875 m 1
 401.859375 755.879882812 363.857421875 717.66015625 324.2578125 717.66015625 c 0
 303.408203125 717.66015625 297.598632812 737.810546875 302.05859375 760.740234375 c 0
 304.088867188 771.16015625 306.5390625 780.200195312 314.848632812 783.669921875 c 0
 358.12890625 798.959960938 380.999023438 809.379882812 438.029296875 848.979492188 c 1
 479.659179688 809.379882812 498.479492188 798.959960938 535.809570312 783.669921875 c 0
 542.779296875 780.200195312 541.708984375 771.16015625 539.689453125 760.740234375 c 0
 535.229492188 737.810546875 521.58984375 717.66015625 500.740234375 717.66015625 c 0
 461.140625 717.66015625 437.990234375 755.879882812 426.549804688 789.919921875 c 1
541.278320312 813.400390625 m 0
 533.0078125 804.790039062 507.935546875 825.000976562 512.465820312 830.970703125 c 0
 523.576171875 845.630859375 540.576171875 860.28125 544.375976562 879.840820312 c 0
 547.555664062 896.2109375 537.625976562 903.94140625 523.286132812 903.94140625 c 0
 505.715820312 903.94140625 491.345703125 890.271484375 488.916015625 896.78125 c 0
 484.526367188 908.541015625 475.31640625 923.231445312 481.266601562 938.081054688 c 0
 484.63671875 946.491210938 510.70703125 960.541015625 539.70703125 960.541015625 c 0
 590.407226562 960.541015625 599.1171875 921.510742188 593.6875 893.541015625 c 0
 589.127929688 870.100585938 569.998046875 842.850585938 541.278320312 813.400390625 c 0
176.655273438 268.000976562 m 1
 429.625976562 268.001953125 l 1
 369.095703125 610.021484375 l 1
 176.655273438 268.000976562 l 1
EndSplineSet
Substitution2: "'c2sc' Capitals to Small Capitals in Latin lookup 11 subtable" uni1EA8.sc
AlternateSubs2: "'aalt' Access All Alternates in Latin lookup 0 subtable" uni1EA8.sc
Position2: "'cpsp' Capital Spacing in Latin lookup 0 subtable" dx=5 dy=0 dh=10 dv=0
EndChar

StartChar: uni1EAA
Encoding: 7850 7850 18
Width: 642
GlyphClass: 2
Flags: MW
HStem: 640 20G<375.29 431.29 431.29 434.79> 718 131 868 42 952 41
VStem: 301 240 314 48 547 47
AnchorPoint: "Anchor-7" 417 742 basechar 0
AnchorPoint: "Anchor-6" 581 0 basechar 0
AnchorPoint: "Anchor-5" 464 984 basechar 0
AnchorPoint: "Anchor-4" 247 0 basechar 0
LayerCount: 2
Fore
SplineSet
551.51953125 85 m 2xfa
 556.26953125 58 555.419921875 33 587.419921875 33 c 0
 599.419921875 33 599.439453125 28 597.889648438 20 c 2
 596.529296875 13 l 2
 594.779296875 4 589.999023438 0 580.999023438 0 c 2
 380.999023438 0 l 2
 372.999023438 0 368.779296875 4 370.529296875 13 c 2
 371.889648438 20 l 2
 373.439453125 28 375.419921875 33 387.419921875 33 c 0
 441.419921875 33 464.5 54 456.830078125 102 c 2
 436.270507812 231 l 1
 156.510742188 231 l 1
 79.2705078125 94 l 2
 54.91015625 51 85.419921875 33 132.419921875 33 c 0
 144.419921875 33 144.439453125 28 142.889648438 20 c 2
 141.529296875 13 l 2
 139.779296875 4 133.999023438 0 125.999023438 0 c 2
 -24.0009765625 0 l 2
 -32.0009765625 0 -36.220703125 4 -34.470703125 13 c 2
 -33.1103515625 20 l 2
 -31.560546875 28 -29.580078125 33 -17.580078125 33 c 0
 8.419921875 33 23.689453125 55 43.689453125 91 c 2
 358.149414062 649 l 2
 361.509765625 656 367.290039062 660 375.290039062 660 c 2
 431.290039062 660 l 2
 438.290039062 660 442.509765625 656 444.149414062 649 c 2
 551.51953125 85 l 2xfa
426.549804688 789.919921875 m 1
 401.859375 755.879882812 363.857421875 717.66015625 324.2578125 717.66015625 c 0
 303.408203125 717.66015625 297.598632812 737.810546875 302.05859375 760.740234375 c 0
 304.088867188 771.16015625 306.5390625 780.200195312 314.848632812 783.669921875 c 0xf6
 358.12890625 798.959960938 380.999023438 809.379882812 438.029296875 848.979492188 c 1
 479.659179688 809.379882812 498.479492188 798.959960938 535.809570312 783.669921875 c 0
 542.779296875 780.200195312 541.708984375 771.16015625 539.689453125 760.740234375 c 0
 535.229492188 737.810546875 521.58984375 717.66015625 500.740234375 717.66015625 c 0
 461.140625 717.66015625 437.990234375 755.879882812 426.549804688 789.919921875 c 1
470.748046875 942.5 m 0
 481.528320312 918.6796875 492.568359375 910.4375 507.96875 910.4375 c 0
 527.96875 910.4375 544.028320312 926.16796875 548.16796875 947.438476562 c 0
 550.248046875 958.188476562 550.377929688 969.848632812 546.627929688 981.698242188 c 1
 556.267578125 988.498046875 567.697265625 994.438476562 576.296875 994.438476562 c 0
 589.556640625 994.438476562 598.716796875 970.87890625 593.38671875 943.438476562 c 0
 584.276367188 896.598632812 545.446289062 868.438476562 509.806640625 868.438476562 c 0
 458.596679688 868.438476562 446.426757812 895.588867188 437.376953125 918.848632812 c 0
 428.296875 944.008789062 416.537109375 952.438476562 401.13671875 952.438476562 c 0
 381.13671875 952.438476562 363.716796875 934.838867188 359.747070312 914.438476562 c 0
 357.577148438 903.288085938 358.176757812 891.6484375 362.126953125 880.088867188 c 1
 352.45703125 873.329101562 340.876953125 867.439453125 331.607421875 867.439453125 c 0
 319.307617188 867.439453125 309.127929688 890.649414062 314.328125 917.439453125 c 0
 323.608398438 965.159179688 363.348632812 993.439453125 399.108398438 993.439453125 c 0
 449.458007812 993.439453125 462.038085938 964.459960938 470.748046875 942.5 c 0
176.66796875 267.998046875 m 1
 429.638671875 267.998046875 l 1
 369.108398438 610.017578125 l 1
 176.66796875 267.998046875 l 1
EndSplineSet
Substitution2: "'c2sc' Capitals to Small Capitals in Latin lookup 11 subtable" uni1EAA.sc
AlternateSubs2: "'aalt' Access All Alternates in Latin lookup 0 subtable" uni1EAA.sc
Position2: "'cpsp' Capital Spacing in Latin lookup 0 subtable" dx=5 dy=0 dh=10 dv=0
EndChar

StartChar: uni0200
Encoding: 512 512 19
Width: 642
GlyphClass: 2
Flags: MW
HStem: 640 20G<375.29 431.29 431.29 434.79> 719 152
VStem: 261 167 434 167
AnchorPoint: "Anchor-6" 581 0 basechar 0
AnchorPoint: "Anchor-5" 401 899 basechar 0
AnchorPoint: "Anchor-4" 247 0 basechar 0
LayerCount: 2
Fore
SplineSet
551.51953125 85 m 2
 556.26953125 58 555.419921875 33 587.419921875 33 c 0
 599.419921875 33 599.439453125 28 597.889648438 20 c 2
 596.529296875 13 l 2
 594.779296875 4 589.999023438 0 580.999023438 0 c 2
 380.999023438 0 l 2
 372.999023438 0 368.779296875 4 370.529296875 13 c 2
 371.889648438 20 l 2
 373.439453125 28 375.419921875 33 387.419921875 33 c 0
 441.419921875 33 464.5 54 456.830078125 102 c 2
 436.270507812 231 l 1
 156.510742188 231 l 1
 79.2705078125 94 l 2
 54.91015625 51 85.419921875 33 132.419921875 33 c 0
 144.419921875 33 144.439453125 28 142.889648438 20 c 2
 141.529296875 13 l 2
 139.779296875 4 133.999023438 0 125.999023438 0 c 2
 -24.0009765625 0 l 2
 -32.0009765625 0 -36.220703125 4 -34.470703125 13 c 2
 -33.1103515625 20 l 2
 -31.560546875 28 -29.580078125 33 -17.580078125 33 c 0
 8.419921875 33 23.689453125 55 43.689453125 91 c 2
 358.149414062 649 l 2
 361.509765625 656 367.290039062 660 375.290039062 660 c 2
 431.290039062 660 l 2
 438.290039062 660 442.509765625 656 444.149414062 649 c 2
 551.51953125 85 l 2
591.1796875 724.129882812 m 2
 585.580078125 721.030273438 580.8984375 718.880859375 577.928710938 718.55078125 c 0
 575.458984375 718.270507812 571.978515625 719.48046875 568.528320312 721.48046875 c 0
 515.48828125 752.120117188 444.7578125 784.209960938 435.118164062 833.76953125 c 0
 430.598632812 857.059570312 438.088867188 871.479492188 465.798828125 871.479492188 c 0
 476.548828125 871.479492188 485.489257812 868.479492188 491.76953125 858.799804688 c 0
 522.919921875 810.799804688 538.030273438 791.41015625 600.330078125 729.200195312 c 1
 591.1796875 724.129882812 l 2
418.567382812 724.130859375 m 2
 412.967773438 721.03125 408.287109375 718.881835938 405.317382812 718.551757812 c 0
 402.836914062 718.271484375 399.3671875 719.481445312 395.916992188 721.481445312 c 0
 342.8671875 752.12109375 272.13671875 784.2109375 262.506835938 833.770507812 c 0
 257.9765625 857.060546875 265.466796875 871.48046875 293.176757812 871.48046875 c 0
 303.926757812 871.48046875 312.876953125 868.48046875 319.157226562 858.80078125 c 0
 350.307617188 810.80078125 365.407226562 791.411132812 427.70703125 729.201171875 c 1
 418.567382812 724.130859375 l 2
176.666015625 268.001953125 m 1
 429.63671875 268.001953125 l 1
 369.106445312 610.021484375 l 1
 176.666015625 268.001953125 l 1
EndSplineSet
Substitution2: "'c2sc' Capitals to Small Capitals in Latin lookup 11 subtable" uni0200.sc
AlternateSubs2: "'aalt' Access All Alternates in Latin lookup 0 subtable" uni0200.sc
Position2: "'cpsp' Capital Spacing in Latin lookup 0 subtable" dx=5 dy=0 dh=10 dv=0
EndChar

StartChar: Adieresis
Encoding: 196 196 20
Width: 642
GlyphClass: 2
Flags: MW
HStem: 640 20G<375.29 431.29 431.29 434.79> 728 113
VStem: 269 114 474 114
AnchorPoint: "Anchor-6" 581 0 basechar 0
AnchorPoint: "Anchor-5" 437 845 basechar 0
AnchorPoint: "Anchor-4" 247 0 basechar 0
LayerCount: 2
Fore
SplineSet
551.51953125 85 m 2
 556.26953125 58 555.419921875 33 587.419921875 33 c 0
 599.419921875 33 599.439453125 28 597.889648438 20 c 2
 596.529296875 13 l 2
 594.779296875 4 589.999023438 0 580.999023438 0 c 2
 380.999023438 0 l 2
 372.999023438 0 368.779296875 4 370.529296875 13 c 2
 371.889648438 20 l 2
 373.439453125 28 375.419921875 33 387.419921875 33 c 0
 441.419921875 33 464.5 54 456.830078125 102 c 2
 436.270507812 231 l 1
 156.510742188 231 l 1
 79.2705078125 94 l 2
 54.91015625 51 85.419921875 33 132.419921875 33 c 0
 144.419921875 33 144.439453125 28 142.889648438 20 c 2
 141.529296875 13 l 2
 139.779296875 4 133.999023438 0 125.999023438 0 c 2
 -24.0009765625 0 l 2
 -32.0009765625 0 -36.220703125 4 -34.470703125 13 c 2
 -33.1103515625 20 l 2
 -31.560546875 28 -29.580078125 33 -17.580078125 33 c 0
 8.419921875 33 23.689453125 55 43.689453125 91 c 2
 358.149414062 649 l 2
 361.509765625 656 367.290039062 660 375.290039062 660 c 2
 431.290039062 660 l 2
 438.290039062 660 442.509765625 656 444.149414062 649 c 2
 551.51953125 85 l 2
336.25 841.76953125 m 0
 350 839.099609375 360.16796875 831.76953125 371.23828125 815.359375 c 0
 382.30859375 798.94921875 385.458984375 787.639648438 382.7890625 773.899414062 c 0
 380.119140625 760.159179688 371.928710938 750.159179688 356.548828125 739.779296875 c 0
 340.138671875 728.708984375 327.96875 725.728515625 314.228515625 728.3984375 c 0
 301.348632812 730.908203125 292.0390625 738.05859375 280.109375 754.638671875 c 0
 268.879882812 770.188476562 265.879882812 782.358398438 268.549804688 796.098632812 c 0
 271.229492188 809.838867188 278.379882812 819.1484375 294.790039062 830.21875 c 0
 311.209960938 841.2890625 323.370117188 844.26953125 336.25 841.76953125 c 0
541.2578125 841.76953125 m 0
 555.0078125 839.099609375 565.17578125 831.76953125 576.24609375 815.359375 c 0
 587.31640625 798.94921875 590.466796875 787.639648438 587.796875 773.899414062 c 0
 585.126953125 760.159179688 576.936523438 750.159179688 561.556640625 739.779296875 c 0
 545.146484375 728.708984375 532.9765625 725.728515625 519.236328125 728.3984375 c 0
 506.356445312 730.908203125 497.046875 738.05859375 485.1171875 754.638671875 c 0
 473.887695312 770.188476562 470.887695312 782.358398438 473.557617188 796.098632812 c 0
 476.237304688 809.838867188 483.387695312 819.1484375 499.797851562 830.21875 c 0
 516.217773438 841.2890625 528.377929688 844.26953125 541.2578125 841.76953125 c 0
176.685546875 268 m 1
 429.65625 268 l 1
 369.125976562 610.01953125 l 1
 176.685546875 268 l 1
EndSplineSet
Substitution2: "'c2sc' Capitals to Small Capitals in Latin lookup 11 subtable" Adieresis.sc
AlternateSubs2: "'aalt' Access All Alternates in Latin lookup 0 subtable" Adieresis.sc
Position2: "'cpsp' Capital Spacing in Latin lookup 0 subtable" dx=5 dy=0 dh=10 dv=0
EndChar

StartChar: uni1EA0
Encoding: 7840 7840 21
Width: 642
GlyphClass: 2
Flags: MW
HStem: -171 113 640 20G<375.29 431.29 431.29 434.79>
VStem: 176 114
AnchorPoint: "Anchor-6" 581 0 basechar 0
AnchorPoint: "Anchor-5" 401 660 basechar 0
AnchorPoint: "Anchor-4" 247 0 basechar 0
LayerCount: 2
Fore
SplineSet
551.51953125 85 m 2
 556.26953125 58 555.419921875 33 587.419921875 33 c 0
 599.419921875 33 599.439453125 28 597.889648438 20 c 2
 596.529296875 13 l 2
 594.779296875 4 589.999023438 0 580.999023438 0 c 2
 380.999023438 0 l 2
 372.999023438 0 368.779296875 4 370.529296875 13 c 2
 371.889648438 20 l 2
 373.439453125 28 375.419921875 33 387.419921875 33 c 0
 441.419921875 33 464.5 54 456.830078125 102 c 2
 436.270507812 231 l 1
 156.510742188 231 l 1
 79.2705078125 94 l 2
 54.91015625 51 85.419921875 33 132.419921875 33 c 0
 144.419921875 33 144.439453125 28 142.889648438 20 c 2
 141.529296875 13 l 2
 139.779296875 4 133.999023438 0 125.999023438 0 c 2
 -24.0009765625 0 l 2
 -32.0009765625 0 -36.220703125 4 -34.470703125 13 c 2
 -33.1103515625 20 l 2
 -31.560546875 28 -29.580078125 33 -17.580078125 33 c 0
 8.419921875 33 23.689453125 55 43.689453125 91 c 2
 358.149414062 649 l 2
 361.509765625 656 367.290039062 660 375.290039062 660 c 2
 431.290039062 660 l 2
 438.290039062 660 442.509765625 656 444.149414062 649 c 2
 551.51953125 85 l 2
243.389648438 -57.4404296875 m 0
 257.129882812 -60.1103515625 267.298828125 -67.4404296875 278.369140625 -83.8505859375 c 0
 289.439453125 -100.260742188 292.58984375 -111.5703125 289.919921875 -125.310546875 c 0
 287.25 -139.05078125 279.059570312 -149.05078125 263.6796875 -159.420898438 c 0
 247.26953125 -170.491210938 235.099609375 -173.481445312 221.359375 -170.811523438 c 0
 208.479492188 -168.301757812 199.169921875 -161.151367188 187.240234375 -144.571289062 c 0
 176.009765625 -129.01171875 173.009765625 -116.8515625 175.689453125 -103.111328125 c 0
 178.359375 -89.37109375 185.509765625 -80.0615234375 201.919921875 -68.9912109375 c 0
 218.33984375 -57.9208984375 230.5 -54.9404296875 243.389648438 -57.4404296875 c 0
176.678710938 268 m 1
 429.649414062 268 l 1
 369.119140625 610.01953125 l 1
 176.678710938 268 l 1
EndSplineSet
Substitution2: "'c2sc' Capitals to Small Capitals in Latin lookup 11 subtable" uni1EA0.sc
AlternateSubs2: "'aalt' Access All Alternates in Latin lookup 0 subtable" uni1EA0.sc
Position2: "'cpsp' Capital Spacing in Latin lookup 0 subtable" dx=5 dy=0 dh=10 dv=0
EndChar

StartChar: Agrave
Encoding: 192 192 22
Width: 642
GlyphClass: 2
Flags: MW
HStem: 640 20G<375.29 431.29 431.29 434.79> 719 152
VStem: 279 167
AnchorPoint: "Anchor-6" 581 0 basechar 0
AnchorPoint: "Anchor-5" 423 899 basechar 0
AnchorPoint: "Anchor-4" 247 0 basechar 0
LayerCount: 2
Fore
SplineSet
551.51953125 85 m 2
 556.26953125 58 555.419921875 33 587.419921875 33 c 0
 599.419921875 33 599.439453125 28 597.889648438 20 c 2
 596.529296875 13 l 2
 594.779296875 4 589.999023438 0 580.999023438 0 c 2
 380.999023438 0 l 2
 372.999023438 0 368.779296875 4 370.529296875 13 c 2
 371.889648438 20 l 2
 373.439453125 28 375.419921875 33 387.419921875 33 c 0
 441.419921875 33 464.5 54 456.830078125 102 c 2
 436.270507812 231 l 1
 156.510742188 231 l 1
 79.2705078125 94 l 2
 54.91015625 51 85.419921875 33 132.419921875 33 c 0
 144.419921875 33 144.439453125 28 142.889648438 20 c 2
 141.529296875 13 l 2
 139.779296875 4 133.999023438 0 125.999023438 0 c 2
 -24.0009765625 0 l 2
 -32.0009765625 0 -36.220703125 4 -34.470703125 13 c 2
 -33.1103515625 20 l 2
 -31.560546875 28 -29.580078125 33 -17.580078125 33 c 0
 8.419921875 33 23.689453125 55 43.689453125 91 c 2
 358.149414062 649 l 2
 361.509765625 656 367.290039062 660 375.290039062 660 c 2
 431.290039062 660 l 2
 438.290039062 660 442.509765625 656 444.149414062 649 c 2
 551.51953125 85 l 2
436.309570312 724.129882812 m 2
 430.69921875 721.030273438 426.01953125 718.880859375 423.059570312 718.55078125 c 0
 420.579101562 718.270507812 417.109375 719.48046875 413.659179688 721.48046875 c 0
 360.609375 752.120117188 289.87890625 784.209960938 280.249023438 833.76953125 c 0
 275.71875 857.059570312 283.208984375 871.479492188 310.918945312 871.479492188 c 0
 321.668945312 871.479492188 330.619140625 868.479492188 336.899414062 858.799804688 c 0
 368.049804688 810.799804688 383.149414062 791.41015625 445.44921875 729.200195312 c 1
 436.309570312 724.129882812 l 2
176.669921875 268.000976562 m 1
 429.640625 268.001953125 l 1
 369.110351562 610.021484375 l 1
 176.669921875 268.000976562 l 1
EndSplineSet
Substitution2: "'c2sc' Capitals to Small Capitals in Latin lookup 11 subtable" Agrave.sc
AlternateSubs2: "'aalt' Access All Alternates in Latin lookup 0 subtable" Agrave.sc
Position2: "'cpsp' Capital Spacing in Latin lookup 0 subtable" dx=5 dy=0 dh=10 dv=0
EndChar

StartChar: uni1EA2
Encoding: 7842 7842 23
Width: 642
GlyphClass: 2
Flags: MW
HStem: 640 20G<375.29 431.29 431.29 434.79> 812 57
VStem: 441 49
AnchorPoint: "Anchor-6" 581 0 basechar 0
AnchorPoint: "Anchor-5" 457 946 basechar 0
AnchorPoint: "Anchor-4" 247 0 basechar 0
LayerCount: 2
Fore
SplineSet
551.51953125 85 m 2
 556.26953125 58 555.419921875 33 587.419921875 33 c 0
 599.419921875 33 599.439453125 28 597.889648438 20 c 2
 596.529296875 13 l 2
 594.779296875 4 589.999023438 0 580.999023438 0 c 2
 380.999023438 0 l 2
 372.999023438 0 368.779296875 4 370.529296875 13 c 2
 371.889648438 20 l 2
 373.439453125 28 375.419921875 33 387.419921875 33 c 0
 441.419921875 33 464.5 54 456.830078125 102 c 2
 436.270507812 231 l 1
 156.510742188 231 l 1
 79.2705078125 94 l 2
 54.91015625 51 85.419921875 33 132.419921875 33 c 0
 144.419921875 33 144.439453125 28 142.889648438 20 c 2
 141.529296875 13 l 2
 139.779296875 4 133.999023438 0 125.999023438 0 c 2
 -24.0009765625 0 l 2
 -32.0009765625 0 -36.220703125 4 -34.470703125 13 c 2
 -33.1103515625 20 l 2
 -31.560546875 28 -29.580078125 33 -17.580078125 33 c 0
 8.419921875 33 23.689453125 55 43.689453125 91 c 2
 358.149414062 649 l 2
 361.509765625 656 367.290039062 660 375.290039062 660 c 2
 431.290039062 660 l 2
 438.290039062 660 442.509765625 656 444.149414062 649 c 2
 551.51953125 85 l 2
437.479492188 721.870117188 m 0
 429.219726562 713.25 404.1484375 733.4609375 408.678710938 739.44140625 c 0
 419.7890625 754.1015625 436.7890625 768.741210938 440.588867188 788.30078125 c 0
 443.768554688 804.680664062 433.838867188 812.400390625 419.499023438 812.400390625 c 0
 401.928710938 812.400390625 387.548828125 798.740234375 385.12890625 805.240234375 c 0
 380.728515625 817.009765625 371.528320312 831.700195312 377.478515625 846.549804688 c 0
 380.838867188 854.959960938 406.918945312 869 435.918945312 869 c 0
 486.619140625 869 495.329101562 829.98046875 489.888671875 802.000976562 c 0
 485.338867188 778.560546875 466.208984375 751.310546875 437.479492188 721.870117188 c 0
176.658203125 268.000976562 m 1
 429.62890625 268.001953125 l 1
 369.098632812 610.021484375 l 1
 176.658203125 268.000976562 l 1
EndSplineSet
Substitution2: "'c2sc' Capitals to Small Capitals in Latin lookup 11 subtable" uni1EA2.sc
AlternateSubs2: "'aalt' Access All Alternates in Latin lookup 0 subtable" uni1EA2.sc
Position2: "'cpsp' Capital Spacing in Latin lookup 0 subtable" dx=5 dy=0 dh=10 dv=0
EndChar

StartChar: uni0202
Encoding: 514 514 24
Width: 642
GlyphClass: 2
Flags: MW
HStem: 640 20G<375.29 431.29 431.29 434.79> 833 40
VStem: 303 246
AnchorPoint: "Anchor-6" 581 0 basechar 0
AnchorPoint: "Anchor-5" 448 899 basechar 0
AnchorPoint: "Anchor-4" 247 0 basechar 0
LayerCount: 2
Fore
SplineSet
551.51953125 85 m 2
 556.26953125 58 555.419921875 33 587.419921875 33 c 0
 599.419921875 33 599.439453125 28 597.889648438 20 c 2
 596.529296875 13 l 2
 594.779296875 4 589.999023438 0 580.999023438 0 c 2
 380.999023438 0 l 2
 372.999023438 0 368.779296875 4 370.529296875 13 c 2
 371.889648438 20 l 2
 373.439453125 28 375.419921875 33 387.419921875 33 c 0
 441.419921875 33 464.5 54 456.830078125 102 c 2
 436.270507812 231 l 1
 156.510742188 231 l 1
 79.2705078125 94 l 2
 54.91015625 51 85.419921875 33 132.419921875 33 c 0
 144.419921875 33 144.439453125 28 142.889648438 20 c 2
 141.529296875 13 l 2
 139.779296875 4 133.999023438 0 125.999023438 0 c 2
 -24.0009765625 0 l 2
 -32.0009765625 0 -36.220703125 4 -34.470703125 13 c 2
 -33.1103515625 20 l 2
 -31.560546875 28 -29.580078125 33 -17.580078125 33 c 0
 8.419921875 33 23.689453125 55 43.689453125 91 c 2
 358.149414062 649 l 2
 361.509765625 656 367.290039062 660 375.290039062 660 c 2
 431.290039062 660 l 2
 438.290039062 660 442.509765625 656 444.149414062 649 c 2
 551.51953125 85 l 2
444.689453125 873 m 0
 535.689453125 873 553.708007812 805.299804688 547.337890625 772.5 c 0
 545.387695312 762.5 540.017578125 758.709960938 529.41796875 757.5 c 0
 525.288085938 757.030273438 513.8984375 756.610351562 506.8984375 755.91015625 c 0
 493.548828125 754.580078125 490.409179688 757.740234375 492.609375 772.030273438 c 0
 498.219726562 808.520507812 476.629882812 832.520507812 436.830078125 832.520507812 c 0
 397.020507812 832.520507812 366.100585938 808.520507812 357.530273438 772.030273438 c 0
 354.169921875 757.740234375 349.799804688 754.580078125 336.969726562 755.91015625 c 0
 330.229492188 756.610351562 318.999023438 757.030273438 315.048828125 757.5 c 0
 304.918945312 758.709960938 301.029296875 762.5 302.969726562 772.5 c 0
 309.349609375 805.299804688 353.689453125 873 444.689453125 873 c 0
176.658203125 268 m 1
 429.62890625 268 l 1
 369.098632812 610.01953125 l 1
 176.658203125 268 l 1
EndSplineSet
Substitution2: "'c2sc' Capitals to Small Capitals in Latin lookup 11 subtable" uni0202.sc
AlternateSubs2: "'aalt' Access All Alternates in Latin lookup 0 subtable" uni0202.sc
Position2: "'cpsp' Capital Spacing in Latin lookup 0 subtable" dx=5 dy=0 dh=10 dv=0
EndChar

StartChar: Amacron
Encoding: 256 256 25
Width: 642
GlyphClass: 2
Flags: MW
HStem: 640 20G<375.29 431.29 431.29 434.79> 721 49<300.649 530.669 314.669 521.149>
VStem: 295 247
AnchorPoint: "Anchor-6" 581 0 basechar 0
AnchorPoint: "Anchor-5" 417 739 basechar 0
AnchorPoint: "Anchor-4" 247 0 basechar 0
LayerCount: 2
Fore
SplineSet
551.51953125 85 m 2
 556.26953125 58 555.419921875 33 587.419921875 33 c 0
 599.419921875 33 599.439453125 28 597.889648438 20 c 2
 596.529296875 13 l 2
 594.779296875 4 589.999023438 0 580.999023438 0 c 2
 380.999023438 0 l 2
 372.999023438 0 368.779296875 4 370.529296875 13 c 2
 371.889648438 20 l 2
 373.439453125 28 375.419921875 33 387.419921875 33 c 0
 441.419921875 33 464.5 54 456.830078125 102 c 2
 436.270507812 231 l 1
 156.510742188 231 l 1
 79.2705078125 94 l 2
 54.91015625 51 85.419921875 33 132.419921875 33 c 0
 144.419921875 33 144.439453125 28 142.889648438 20 c 2
 141.529296875 13 l 2
 139.779296875 4 133.999023438 0 125.999023438 0 c 2
 -24.0009765625 0 l 2
 -32.0009765625 0 -36.220703125 4 -34.470703125 13 c 2
 -33.1103515625 20 l 2
 -31.560546875 28 -29.580078125 33 -17.580078125 33 c 0
 8.419921875 33 23.689453125 55 43.689453125 91 c 2
 358.149414062 649 l 2
 361.509765625 656 367.290039062 660 375.290039062 660 c 2
 431.290039062 660 l 2
 438.290039062 660 442.509765625 656 444.149414062 649 c 2
 551.51953125 85 l 2
536.6796875 734 m 2
 535.120117188 726 530.149414062 721 521.149414062 721 c 2
 305.149414062 721 l 2
 296.149414062 721 293.119140625 726 294.678710938 734 c 2
 299.1484375 757 l 2
 300.8984375 766 305.668945312 770 314.668945312 770 c 2
 530.668945312 770 l 2
 539.668945312 770 542.899414062 766 541.149414062 757 c 2
 536.6796875 734 l 2
176.668945312 268 m 1
 429.639648438 268 l 1
 369.109375 610.01953125 l 1
 176.668945312 268 l 1
EndSplineSet
Substitution2: "'c2sc' Capitals to Small Capitals in Latin lookup 11 subtable" Amacron.sc
AlternateSubs2: "'aalt' Access All Alternates in Latin lookup 0 subtable" Amacron.sc
Position2: "'cpsp' Capital Spacing in Latin lookup 0 subtable" dx=5 dy=0 dh=10 dv=0
EndChar

StartChar: Aogonek
Encoding: 260 260 26
Width: 642
GlyphClass: 2
Flags: MW
HStem: 0 26 640 20G<375.29 431.29 431.29 434.79>
VStem: 385 51
AnchorPoint: "Anchor-6" 581 0 basechar 0
AnchorPoint: "Anchor-5" 401 660 basechar 0
AnchorPoint: "Anchor-4" 247 0 basechar 0
LayerCount: 2
Fore
SplineSet
551.51953125 85 m 2
 556.26953125 58 555.408203125 33 587.408203125 33 c 0
 599.408203125 33 599.427734375 28 597.877929688 20 c 2
 596.517578125 13 l 2
 595.677734375 8.7099609375 594.157226562 5.5595703125 591.817382812 3.4296875 c 0
 590.557617188 2.0595703125 588.557617188 1.099609375 586.16796875 0.5498046875 c 0
 584.627929688 0.1796875 582.908203125 0 580.998046875 0 c 0
 569.998046875 -0 455.6484375 -12.5302734375 438.30859375 -101.700195312 c 0
 427.37890625 -157.940429688 457.298828125 -180.459960938 519.029296875 -180.459960938 c 0
 562.918945312 -180.459960938 604.44921875 -152 613.44921875 -152 c 0
 617.44921875 -152 620.678710938 -156 619.318359375 -163 c 2
 616.3984375 -178 l 2
 615.228515625 -184 612.258789062 -189 606.678710938 -192 c 0
 569.7890625 -212 534.649414062 -223 504.649414062 -223 c 0
 408.649414062 -223 376.729492188 -166 387.229492188 -112 c 0
 398.109375 -56 442.479492188 -20.8203125 486.029296875 0 c 1
 380.999023438 0 l 2
 372.999023438 0 368.779296875 4 370.529296875 13 c 2
 371.889648438 20 l 2
 373.439453125 28 375.419921875 33 387.419921875 33 c 0
 441.419921875 33 464.5 54 456.830078125 102 c 2
 436.270507812 231 l 1
 156.510742188 231 l 1
 79.2705078125 94 l 2
 54.91015625 51 85.419921875 33 132.419921875 33 c 0
 144.419921875 33 144.439453125 28 142.889648438 20 c 2
 141.529296875 13 l 2
 139.779296875 4 133.999023438 0 125.999023438 0 c 2
 -24.0009765625 0 l 2
 -32.0009765625 0 -36.220703125 4 -34.470703125 13 c 2
 -33.1103515625 20 l 2
 -31.560546875 28 -29.580078125 33 -17.580078125 33 c 0
 8.419921875 33 23.689453125 55 43.689453125 91 c 2
 358.149414062 649 l 2
 361.509765625 656 367.290039062 660 375.290039062 660 c 2
 431.290039062 660 l 2
 438.290039062 660 442.509765625 656 444.149414062 649 c 2
 551.51953125 85 l 2
176.658203125 268 m 1
 429.62890625 268 l 1
 369.098632812 610.01953125 l 1
 176.658203125 268 l 1
EndSplineSet
Substitution2: "'c2sc' Capitals to Small Capitals in Latin lookup 11 subtable" Aogonek.sc
AlternateSubs2: "'aalt' Access All Alternates in Latin lookup 0 subtable" Aogonek.sc
Position2: "'cpsp' Capital Spacing in Latin lookup 0 subtable" dx=5 dy=0 dh=10 dv=0
EndChar

StartChar: Aring
Encoding: 197 197 27
Width: 642
GlyphClass: 2
Flags: MW
HStem: 640 20G 687 20G 752 45
VStem: 325 180
AnchorPoint: "Anchor-6" 581 0 basechar 0
AnchorPoint: "Anchor-5" 423 752 basechar 0
AnchorPoint: "Anchor-4" 247 0 basechar 0
LayerCount: 2
Fore
SplineSet
551.51953125 85 m 2
 556.26953125 58 555.419921875 33.0009765625 587.419921875 33.0009765625 c 0
 599.419921875 33.0009765625 599.440429688 28.0009765625 597.890625 20.0009765625 c 2
 596.530273438 13.0009765625 l 2
 594.780273438 4.0009765625 590 0.0009765625 581 0.0009765625 c 2
 381 0.0009765625 l 2
 373 0.0009765625 368.780273438 4.0009765625 370.530273438 13.0009765625 c 2
 371.890625 20.0009765625 l 2
 373.440429688 28.0009765625 375.420898438 33.0009765625 387.420898438 33.0009765625 c 0
 441.420898438 33.0009765625 464.500976562 54.0009765625 456.831054688 102.000976562 c 2
 436.271484375 231.000976562 l 1
 156.51171875 231.000976562 l 1
 79.271484375 94.0009765625 l 2
 54.9111328125 51.0009765625 85.4208984375 33.0009765625 132.420898438 33.0009765625 c 0
 144.420898438 33.0009765625 144.440429688 28.0009765625 142.890625 20.0009765625 c 2
 141.530273438 13.0009765625 l 2
 139.780273438 4.0009765625 134 0.0009765625 126 0.0009765625 c 2
 -24 0.0009765625 l 2
 -32 0.0009765625 -36.2197265625 4.0009765625 -34.4697265625 13.0009765625 c 2
 -33.109375 20.0009765625 l 2
 -31.5595703125 28.0009765625 -29.5791015625 33.0009765625 -17.5791015625 33.0009765625 c 0
 8.4208984375 33.0009765625 23.6904296875 55.0009765625 43.6904296875 91.0009765625 c 2
 354.530273438 642.581054688 l 1
 332.220703125 657.260742188 320.740234375 683.380859375 326.540039062 713.180664062 c 0
 335.610351562 759.880859375 382.25 797.100585938 431.870117188 797.100585938 c 0
 480.759765625 797.100585938 512.9296875 759.880859375 503.849609375 713.180664062 c 0
 497.849609375 682.340820312 474.889648438 655.440429688 445.659179688 641.080078125 c 1
 551.51953125 85 l 2
376.149414062 713.180664062 m 0
 371.759765625 690.560546875 384.098632812 675.240234375 408.178710938 675.240234375 c 0
 431.528320312 675.240234375 449.828125 690.560546875 454.228515625 713.180664062 c 0
 458.768554688 736.530273438 446.418945312 751.860351562 423.069335938 751.860351562 c 0
 398.999023438 751.860351562 380.689453125 736.530273438 376.149414062 713.180664062 c 0
176.66796875 268.000976562 m 1
 429.638671875 268.001953125 l 1
 369.108398438 610.021484375 l 1
 176.66796875 268.000976562 l 1
EndSplineSet
Substitution2: "'c2sc' Capitals to Small Capitals in Latin lookup 11 subtable" Aring.sc
AlternateSubs2: "'aalt' Access All Alternates in Latin lookup 0 subtable" Aring.sc
Position2: "'cpsp' Capital Spacing in Latin lookup 0 subtable" dx=5 dy=0 dh=10 dv=0
EndChar

StartChar: Aringacute
Encoding: 506 506 28
Width: 642
GlyphClass: 2
Flags: MW
HStem: 639 20G 687 20G 752 45 811 152
VStem: 375 166
AnchorPoint: "Anchor-6" 581 0 basechar 0
AnchorPoint: "Anchor-5" 502 991 basechar 0
AnchorPoint: "Anchor-4" 247 0 basechar 0
LayerCount: 2
Fore
SplineSet
551.51953125 85 m 2
 556.26953125 58 555.419921875 33.0009765625 587.419921875 33.0009765625 c 0
 599.419921875 33.0009765625 599.440429688 28.0009765625 597.890625 20.0009765625 c 2
 596.530273438 13.0009765625 l 2
 594.780273438 4.0009765625 590 0.0009765625 581 0.0009765625 c 2
 381 0.0009765625 l 2
 373 0.0009765625 368.780273438 4.0009765625 370.530273438 13.0009765625 c 2
 371.890625 20.0009765625 l 2
 373.440429688 28.0009765625 375.420898438 33.0009765625 387.420898438 33.0009765625 c 0
 441.420898438 33.0009765625 464.500976562 54.0009765625 456.831054688 102.000976562 c 2
 436.271484375 231.000976562 l 1
 156.51171875 231.000976562 l 1
 79.271484375 94.0009765625 l 2
 54.9111328125 51.0009765625 85.4208984375 33.0009765625 132.420898438 33.0009765625 c 0
 144.420898438 33.0009765625 144.440429688 28.0009765625 142.890625 20.0009765625 c 2
 141.530273438 13.0009765625 l 2
 139.780273438 4.0009765625 134 0.0009765625 126 0.0009765625 c 2
 -24 0.0009765625 l 2
 -32 0.0009765625 -36.2197265625 4.0009765625 -34.4697265625 13.0009765625 c 2
 -33.109375 20.0009765625 l 2
 -31.5595703125 28.0009765625 -29.5791015625 33.0009765625 -17.5791015625 33.0009765625 c 0
 8.4208984375 33.0009765625 23.6904296875 55.0009765625 43.6904296875 91.0009765625 c 2
 354.530273438 642.581054688 l 1
 332.220703125 657.260742188 320.740234375 683.380859375 326.540039062 713.180664062 c 0
 335.610351562 759.880859375 382.25 797.100585938 431.870117188 797.100585938 c 0
 480.759765625 797.100585938 512.9296875 759.880859375 503.849609375 713.180664062 c 0
 497.849609375 682.340820312 474.889648438 655.440429688 445.659179688 641.080078125 c 1
 551.51953125 85 l 2
376.149414062 713.180664062 m 0
 371.759765625 690.560546875 384.098632812 675.240234375 408.178710938 675.240234375 c 0
 431.528320312 675.240234375 449.828125 690.560546875 454.228515625 713.180664062 c 0
 458.768554688 736.530273438 446.418945312 751.860351562 423.069335938 751.860351562 c 0
 398.999023438 751.860351562 380.689453125 736.530273438 376.149414062 713.180664062 c 0
374.508789062 821.05078125 m 1
 436.798828125 883.260742188 451.907226562 902.66015625 483.057617188 950.66015625 c 0
 489.337890625 960.33984375 498.278320312 963.33984375 509.028320312 963.33984375 c 0
 536.748046875 963.33984375 544.227539062 948.91015625 539.708007812 925.629882812 c 0
 530.068359375 876.0703125 459.337890625 843.98046875 406.297851562 813.340820312 c 0
 402.84765625 811.340820312 399.3671875 810.130859375 396.897460938 810.401367188 c 0
 393.927734375 810.731445312 389.248046875 812.891601562 383.6484375 815.991210938 c 2
 374.508789062 821.05078125 l 1
176.666992188 268 m 1
 429.637695312 268 l 1
 369.107421875 610.01953125 l 1
 176.666992188 268 l 1
EndSplineSet
Substitution2: "'c2sc' Capitals to Small Capitals in Latin lookup 11 subtable" Aringacute.sc
AlternateSubs2: "'aalt' Access All Alternates in Latin lookup 0 subtable" Aringacute.sc
Position2: "'cpsp' Capital Spacing in Latin lookup 0 subtable" dx=5 dy=0 dh=10 dv=0
EndChar

StartChar: Atilde
Encoding: 195 195 29
Width: 642
GlyphClass: 2
Flags: MW
HStem: 640 20G<375.29 431.29 431.29 434.79> 729 42 813 41
VStem: 287 48 520 47
AnchorPoint: "Anchor-6" 581 0 basechar 0
AnchorPoint: "Anchor-5" 437 845 basechar 0
AnchorPoint: "Anchor-4" 247 0 basechar 0
LayerCount: 2
Fore
SplineSet
551.51953125 85 m 2
 556.26953125 58 555.419921875 33 587.419921875 33 c 0
 599.419921875 33 599.439453125 28 597.889648438 20 c 2
 596.529296875 13 l 2
 594.779296875 4 589.999023438 0 580.999023438 0 c 2
 380.999023438 0 l 2
 372.999023438 0 368.779296875 4 370.529296875 13 c 2
 371.889648438 20 l 2
 373.439453125 28 375.419921875 33 387.419921875 33 c 0
 441.419921875 33 464.5 54 456.830078125 102 c 2
 436.270507812 231 l 1
 156.510742188 231 l 1
 79.2705078125 94 l 2
 54.91015625 51 85.419921875 33 132.419921875 33 c 0
 144.419921875 33 144.439453125 28 142.889648438 20 c 2
 141.529296875 13 l 2
 139.779296875 4 133.999023438 0 125.999023438 0 c 2
 -24.0009765625 0 l 2
 -32.0009765625 0 -36.220703125 4 -34.470703125 13 c 2
 -33.1103515625 20 l 2
 -31.560546875 28 -29.580078125 33 -17.580078125 33 c 0
 8.419921875 33 23.689453125 55 43.689453125 91 c 2
 358.149414062 649 l 2
 361.509765625 656 367.290039062 660 375.290039062 660 c 2
 431.290039062 660 l 2
 438.290039062 660 442.509765625 656 444.149414062 649 c 2
 551.51953125 85 l 2
443.649414062 803.059570312 m 0
 454.419921875 779.239257812 465.470703125 770.998046875 480.87109375 770.998046875 c 0
 500.87109375 770.998046875 516.920898438 786.728515625 521.060546875 807.999023438 c 0
 523.150390625 818.749023438 523.270507812 830.409179688 519.530273438 842.258789062 c 1
 529.169921875 849.05859375 540.599609375 854.999023438 549.19921875 854.999023438 c 0
 562.458984375 854.999023438 571.619140625 831.439453125 566.279296875 803.999023438 c 0
 557.1796875 757.159179688 518.349609375 728.999023438 482.69921875 728.999023438 c 0
 431.499023438 728.999023438 419.319335938 756.149414062 410.26953125 779.409179688 c 0
 401.189453125 804.569335938 389.4296875 812.999023438 374.029296875 812.999023438 c 0
 354.029296875 812.999023438 336.609375 795.399414062 332.649414062 774.999023438 c 0
 330.479492188 763.848632812 331.069335938 752.208984375 335.029296875 740.649414062 c 1
 325.349609375 733.889648438 313.76953125 728 304.509765625 728 c 0
 292.200195312 728 282.020507812 751.209960938 287.23046875 778 c 0
 296.5 825.719726562 336.25 854 372 854 c 0
 422.349609375 854 434.9296875 825.01953125 443.649414062 803.059570312 c 0
176.669921875 267.999023438 m 1
 429.640625 268 l 1
 369.110351562 610.01953125 l 1
 176.669921875 267.999023438 l 1
EndSplineSet
Substitution2: "'c2sc' Capitals to Small Capitals in Latin lookup 11 subtable" Atilde.sc
AlternateSubs2: "'aalt' Access All Alternates in Latin lookup 0 subtable" Atilde.sc
Position2: "'cpsp' Capital Spacing in Latin lookup 0 subtable" dx=5 dy=0 dh=10 dv=0
EndChar

StartChar: AE
Encoding: 198 198 30
Width: 938
GlyphClass: 2
Flags: MW
HStem: -11.8 21G 0 33 0.199997 33 0.199997 42 231 37 330.2 41 429.2 20G 618.2 42 626.2 34 651.2 20G
VStem: 459 32.61 722.16 32.59
AnchorPoint: "Anchor-6" 770 0 basechar 0
AnchorPoint: "Anchor-5" 662 660 basechar 0
AnchorPoint: "Anchor-4" 578 0 basechar 0
LayerCount: 2
Fore
SplineSet
780.66015625 -11.7900390625 m 0x8f30
 777.66015625 -11.7900390625 774.962890625 -11.5791015625 773.272460938 -8.76953125 c 2
 770.2421875 -3.76953125 l 2
 767.881835938 0.130859375 764.032226562 0.2109375 753.032226562 0.2109375 c 2
 312.032226562 0.2109375 l 2x1f30
 303.032226562 0.2109375 298.8125 4.2109375 300.5625 13.2109375 c 2
 301.912109375 20.2109375 l 2
 303.471679688 28.2109375 310.431640625 33.2109375 318.431640625 33.2109375 c 0
 362.431640625 33.2109375 388.681640625 60.2109375 399.551757812 116.2109375 c 2x2f30
 421.872070312 231.010742188 l 1
 223.982421875 231.010742188 l 1
 122.352539062 94.0107421875 l 2
 77.962890625 34.1708984375 85.4130859375 33.0205078125 132.413085938 33.0205078125 c 0
 144.413085938 33.0205078125 144.443359375 28.0205078125 142.893554688 20.0205078125 c 2
 141.533203125 13.0205078125 l 2
 139.79296875 4.0205078125 134.0234375 0.0205078125 126.0234375 0.0205078125 c 2
 -23.9765625 0.0205078125 l 2
 -31.9765625 0.0205078125 -36.1865234375 4.0205078125 -34.4365234375 13.0205078125 c 2
 -33.0869140625 20.0205078125 l 2
 -31.537109375 28.0205078125 -29.5771484375 33.0205078125 -17.5771484375 33.0205078125 c 0
 8.4130859375 33.0205078125 36.29296875 37.6005859375 76.1826171875 91.0107421875 c 2
 449.5625 591.010742188 l 2
 472.852539062 622.180664062 450.97265625 626.190429688 433.692382812 626.190429688 c 0x4eb0
 425.692382812 626.190429688 420.862304688 632.190429688 422.412109375 640.190429688 c 2
 423.572265625 646.190429688 l 2
 425.322265625 655.190429688 431.301757812 660.190429688 440.301757812 660.190429688 c 2
 840.301757812 660.190429688 l 2x1f30
 849.301757812 660.190429688 853.4921875 661.190429688 858.0625 664.190429688 c 2
 864.032226562 669.190429688 l 2
 866.421875 671.190429688 869.421875 671.190429688 872.421875 671.190429688 c 0
 876.421875 671.190429688 880.021484375 669.190429688 882.041015625 664.190429688 c 2x1e70
 927.911132812 545.190429688 l 2
 929.331054688 542.190429688 929.741210938 539.190429688 929.3515625 537.190429688 c 0
 928.372070312 532.190429688 924.801757812 529.190429688 920.231445312 526.190429688 c 2
 903.481445312 517.190429688 l 2
 897.901367188 514.190429688 895.7109375 513.190429688 892.7109375 513.190429688 c 0
 888.7109375 513.190429688 886.291015625 516.190429688 884.28125 521.190429688 c 2
 882.26171875 526.190429688 l 2
 851.641601562 600.190429688 827.141601562 618.190429688 759.141601562 618.190429688 c 2
 580.141601562 618.190429688 l 1
 532.131835938 371.190429688 l 1
 646.131835938 371.190429688 l 2
 689.131835938 371.190429688 714.021484375 391.190429688 721.6015625 430.190429688 c 2
 722.76171875 436.190429688 l 2
 724.51171875 445.190429688 729.28125 449.190429688 738.28125 449.190429688 c 2
 744.28125 449.190429688 l 2
 753.28125 449.190429688 756.500976562 445.190429688 754.750976562 436.190429688 c 2
 721.7109375 266.190429688 l 2
 719.9609375 257.190429688 715.19140625 253.190429688 706.19140625 253.190429688 c 2
 700.19140625 253.190429688 l 2
 691.19140625 253.190429688 687.971679688 257.190429688 689.721679688 266.190429688 c 2
 690.69140625 271.190429688 l 2
 698.4609375 311.190429688 682.161132812 330.190429688 638.161132812 330.190429688 c 2
 524.161132812 330.190429688 l 1
 484.521484375 126.190429688 l 2
 474.021484375 72.1904296875 499.181640625 42.1904296875 538.181640625 42.1904296875 c 2
 613.181640625 42.1904296875 l 2x1f30
 742.181640625 42.1904296875 790.03125 67.1904296875 870.771484375 184.190429688 c 2
 874.931640625 190.190429688 l 2
 879.28125 197.190429688 886.861328125 200.190429688 894.880859375 195.190429688 c 2
 907.520507812 188.190429688 l 2
 915.740234375 184.190429688 914.770507812 179.190429688 909.020507812 170.190429688 c 2
 792.200195312 -3.7998046875 l 2
 788.370117188 -9.509765625 784.66015625 -11.7900390625 780.66015625 -11.7900390625 c 0x8f30
251.982421875 268.03125 m 1x1f30
 429.0625 268.03125 l 1
 491.612304688 589.831054688 l 1
 251.982421875 268.03125 l 1x1f30
EndSplineSet
Substitution2: "'c2sc' Capitals to Small Capitals in Latin lookup 11 subtable" AE.sc
AlternateSubs2: "'aalt' Access All Alternates in Latin lookup 0 subtable" AE.sc
Position2: "'cpsp' Capital Spacing in Latin lookup 0 subtable" dx=5 dy=0 dh=10 dv=0
EndChar

StartChar: AEacute
Encoding: 508 508 31
Width: 938
GlyphClass: 2
Flags: MW
HStem: -11.8 21G 0 33 0.199997 33 0.199997 42 231 37 330.2 41 429.2 20G 618.2 42 626.2 34 651.2 20G
VStem: 459 32.61 722.16 32.59
AnchorPoint: "Anchor-6" 770 0 basechar 0
AnchorPoint: "Anchor-5" 740 899 basechar 0
AnchorPoint: "Anchor-4" 578 0 basechar 0
LayerCount: 2
Fore
SplineSet
780.66015625 -11.7900390625 m 0x8f30
 777.66015625 -11.7900390625 774.962890625 -11.5791015625 773.272460938 -8.76953125 c 2
 770.2421875 -3.76953125 l 2
 767.881835938 0.130859375 764.032226562 0.2109375 753.032226562 0.2109375 c 2
 312.032226562 0.2109375 l 2x1f30
 303.032226562 0.2109375 298.8125 4.2109375 300.5625 13.2109375 c 2
 301.912109375 20.2109375 l 2
 303.471679688 28.2109375 310.431640625 33.2109375 318.431640625 33.2109375 c 0
 362.431640625 33.2109375 388.681640625 60.2109375 399.551757812 116.2109375 c 2x2f30
 421.872070312 231.010742188 l 1
 223.982421875 231.010742188 l 1
 122.352539062 94.0107421875 l 2
 77.962890625 34.1708984375 85.4130859375 33.0205078125 132.413085938 33.0205078125 c 0
 144.413085938 33.0205078125 144.443359375 28.0205078125 142.893554688 20.0205078125 c 2
 141.533203125 13.0205078125 l 2
 139.79296875 4.0205078125 134.0234375 0.0205078125 126.0234375 0.0205078125 c 2
 -23.9765625 0.0205078125 l 2
 -31.9765625 0.0205078125 -36.1865234375 4.0205078125 -34.4365234375 13.0205078125 c 2
 -33.0869140625 20.0205078125 l 2
 -31.537109375 28.0205078125 -29.5771484375 33.0205078125 -17.5771484375 33.0205078125 c 0
 8.4130859375 33.0205078125 36.29296875 37.6005859375 76.1826171875 91.0107421875 c 2
 449.5625 591.010742188 l 2
 472.852539062 622.180664062 450.97265625 626.190429688 433.692382812 626.190429688 c 0x4eb0
 425.692382812 626.190429688 420.862304688 632.190429688 422.412109375 640.190429688 c 2
 423.572265625 646.190429688 l 2
 425.322265625 655.190429688 431.301757812 660.190429688 440.301757812 660.190429688 c 2
 840.301757812 660.190429688 l 2x1f30
 849.301757812 660.190429688 853.4921875 661.190429688 858.0625 664.190429688 c 2
 864.032226562 669.190429688 l 2
 866.421875 671.190429688 869.421875 671.190429688 872.421875 671.190429688 c 0
 876.421875 671.190429688 880.021484375 669.190429688 882.041015625 664.190429688 c 2x1e70
 927.911132812 545.190429688 l 2
 929.331054688 542.190429688 929.741210938 539.190429688 929.3515625 537.190429688 c 0
 928.372070312 532.190429688 924.801757812 529.190429688 920.231445312 526.190429688 c 2
 903.481445312 517.190429688 l 2
 897.901367188 514.190429688 895.7109375 513.190429688 892.7109375 513.190429688 c 0
 888.7109375 513.190429688 886.291015625 516.190429688 884.28125 521.190429688 c 2
 882.26171875 526.190429688 l 2
 851.641601562 600.190429688 827.141601562 618.190429688 759.141601562 618.190429688 c 2
 580.141601562 618.190429688 l 1
 532.131835938 371.190429688 l 1
 646.131835938 371.190429688 l 2
 689.131835938 371.190429688 714.021484375 391.190429688 721.6015625 430.190429688 c 2
 722.76171875 436.190429688 l 2
 724.51171875 445.190429688 729.28125 449.190429688 738.28125 449.190429688 c 2
 744.28125 449.190429688 l 2
 753.28125 449.190429688 756.500976562 445.190429688 754.750976562 436.190429688 c 2
 721.7109375 266.190429688 l 2
 719.9609375 257.190429688 715.19140625 253.190429688 706.19140625 253.190429688 c 2
 700.19140625 253.190429688 l 2
 691.19140625 253.190429688 687.971679688 257.190429688 689.721679688 266.190429688 c 2
 690.69140625 271.190429688 l 2
 698.4609375 311.190429688 682.161132812 330.190429688 638.161132812 330.190429688 c 2
 524.161132812 330.190429688 l 1
 484.521484375 126.190429688 l 2
 474.021484375 72.1904296875 499.181640625 42.1904296875 538.181640625 42.1904296875 c 2
 613.181640625 42.1904296875 l 2x1f30
 742.181640625 42.1904296875 790.03125 67.1904296875 870.771484375 184.190429688 c 2
 874.931640625 190.190429688 l 2
 879.28125 197.190429688 886.861328125 200.190429688 894.880859375 195.190429688 c 2
 907.520507812 188.190429688 l 2
 915.740234375 184.190429688 914.770507812 179.190429688 909.020507812 170.190429688 c 2
 792.200195312 -3.7998046875 l 2
 788.370117188 -9.509765625 784.66015625 -11.7900390625 780.66015625 -11.7900390625 c 0x8f30
251.982421875 268.03125 m 1x1f30
 429.0625 268.03125 l 1
 491.612304688 589.831054688 l 1
 251.982421875 268.03125 l 1x1f30
613.022460938 729.221679688 m 1
 675.322265625 791.421875 690.40234375 810.8125 721.541992188 858.8125 c 0
 727.822265625 868.482421875 736.762695312 871.47265625 747.512695312 871.47265625 c 0
 775.22265625 871.47265625 782.703125 857.052734375 778.172851562 833.772460938 c 0
 768.552734375 784.22265625 697.823242188 752.142578125 644.79296875 721.502929688 c 0
 641.333007812 719.512695312 637.873046875 718.3125 635.392578125 718.58203125 c 0
 632.432617188 718.912109375 627.762695312 721.051757812 622.172851562 724.151367188 c 2
 613.022460938 729.221679688 l 1
EndSplineSet
Substitution2: "'c2sc' Capitals to Small Capitals in Latin lookup 11 subtable" AEacute.sc
AlternateSubs2: "'aalt' Access All Alternates in Latin lookup 0 subtable" AEacute.sc
Position2: "'cpsp' Capital Spacing in Latin lookup 0 subtable" dx=5 dy=0 dh=10 dv=0
EndChar

StartChar: B
Encoding: 66 66 32
Width: 633
GlyphClass: 2
Flags: MW
HStem: 0 26<266.039 288.039 288.039 321> 0 33<23.5 55.9092 29.9092 55.9092 29.9092 321> 345 33<249.479 321.06 243.06 326.479> 627 33<156.26 171.36> 634 26<299.239 379.239 299.239 299.239>
VStem: 505 92
AnchorPoint: "Anchor-5" 403 660 basechar 0
AnchorPoint: "Anchor-4" 274 0 basechar 0
LayerCount: 2
Fore
SplineSet
28 0 m 2xac
 19 0 14.779296875 4 16.529296875 13 c 2
 17.87890625 20 l 2
 19.4287109375 28 25.4091796875 33 34.4091796875 33 c 0
 77.4091796875 33 104.849609375 61 115.529296875 116 c 2
 198.719726562 544 l 2
 209.41015625 599 192.860351562 627 149.860351562 627 c 0x74
 140.860351562 627 136.830078125 632 138.379882812 640 c 2
 139.729492188 647 l 2
 141.479492188 656 147.259765625 660 156.259765625 660 c 2
 409.259765625 660 l 2
 531.259765625 660 612.649414062 590 595.359375 501 c 0
 585.44921875 450 546.099609375 407 482.469726562 378 c 1
 569.219726562 351 610.799804688 282 593.700195312 194 c 0
 571.540039062 80 459 0 321 0 c 2
 28 0 l 2xac
288.0390625 26 m 2
 406.0390625 26 482.119140625 88 501.349609375 187 c 0
 521.359375 290 465.059570312 345 321.059570312 345 c 2
 243.059570312 345 l 1
 197.579101562 111 l 2
 184.939453125 46 212.0390625 26 266.0390625 26 c 2
 288.0390625 26 l 2
326.479492188 378 m 2
 427.479492188 378 490.19921875 428 505.359375 506 c 0
 520.69921875 585 478.239257812 634 379.239257812 634 c 2
 299.239257812 634 l 1
 249.479492188 378 l 1
 326.479492188 378 l 2
EndSplineSet
Substitution2: "'ss04' Style Set 4 in Latin lookup 33 subtable" u1F151
Substitution2: "'ss03' Style Set 3 in Latin lookup 31 subtable" uni24B7
Substitution2: "'c2sc' Capitals to Small Capitals in Latin lookup 11 subtable" B.sc
AlternateSubs2: "'aalt' Access All Alternates in Latin lookup 0 subtable" B.sc uni24B7 u1F151
Position2: "'cpsp' Capital Spacing in Latin lookup 0 subtable" dx=5 dy=0 dh=10 dv=0
EndChar

StartChar: uni1E04
Encoding: 7684 7684 33
Width: 633
GlyphClass: 2
Flags: MW
HStem: 0 26<266.039 288.039 288.039 321> 0 33<23.5 55.9092 29.9092 55.9092 29.9092 321> 345 33<249.479 321.06 243.06 326.479> 627 33<156.26 171.36> 634 26<299.239 379.239 299.239 299.239>
VStem: 202.69 114.22 505 92
AnchorPoint: "Anchor-5" 403 660 basechar 0
AnchorPoint: "Anchor-4" 274 0 basechar 0
LayerCount: 2
Fore
SplineSet
28 0 m 2xaa
 19 0 14.779296875 4 16.529296875 13 c 2
 17.87890625 20 l 2
 19.4287109375 28 25.4091796875 33 34.4091796875 33 c 0
 77.4091796875 33 104.849609375 61 115.529296875 116 c 2
 198.719726562 544 l 2
 209.41015625 599 192.860351562 627 149.860351562 627 c 0x72
 140.860351562 627 136.830078125 632 138.379882812 640 c 2
 139.729492188 647 l 2
 141.479492188 656 147.259765625 660 156.259765625 660 c 2
 409.259765625 660 l 2
 531.259765625 660 612.649414062 590 595.359375 501 c 0
 585.44921875 450 546.099609375 407 482.469726562 378 c 1
 569.219726562 351 610.799804688 282 593.700195312 194 c 0
 571.540039062 80 459 0 321 0 c 2
 28 0 l 2xaa
288.0390625 26 m 2
 406.0390625 26 482.119140625 88 501.349609375 187 c 0
 521.359375 290 465.059570312 345 321.059570312 345 c 2
 243.059570312 345 l 1
 197.579101562 111 l 2
 184.939453125 46 212.0390625 26 266.0390625 26 c 2
 288.0390625 26 l 2
326.479492188 378 m 2
 427.479492188 378 490.19921875 428 505.359375 506 c 0
 520.69921875 585 478.239257812 634 379.239257812 634 c 2
 299.239257812 634 l 1
 249.479492188 378 l 1
 326.479492188 378 l 2
270.399414062 -57.4296875 m 0xae
 284.139648438 -60.099609375 294.280273438 -67.41015625 305.350585938 -83.8203125 c 0
 316.420898438 -100.23046875 319.560546875 -111.530273438 316.890625 -125.270507812 c 0
 314.23046875 -139.000976562 306.040039062 -149.000976562 290.669921875 -159.380859375 c 0
 274.259765625 -170.451171875 262.099609375 -173.420898438 248.359375 -170.760742188 c 0
 235.489257812 -168.250976562 226.1796875 -161.111328125 214.259765625 -144.53125 c 0
 203.040039062 -128.981445312 200.049804688 -116.821289062 202.719726562 -103.090820312 c 0
 205.389648438 -89.3505859375 212.529296875 -80.05078125 228.939453125 -68.98046875 c 0
 245.359375 -57.91015625 257.51953125 -54.9296875 270.399414062 -57.4296875 c 0xae
EndSplineSet
Substitution2: "'c2sc' Capitals to Small Capitals in Latin lookup 11 subtable" uni1E04.sc
AlternateSubs2: "'aalt' Access All Alternates in Latin lookup 0 subtable" uni1E04.sc
Position2: "'cpsp' Capital Spacing in Latin lookup 0 subtable" dx=5 dy=0 dh=10 dv=0
EndChar

StartChar: C
Encoding: 67 67 34
Width: 639
GlyphClass: 2
Flags: MW
HStem: -11 30<247.2 383.856> 641 30<361.6 498.1>
VStem: 44 104 580 76.3
AnchorPoint: "Anchor-5" 429 660 basechar 0
AnchorPoint: "Anchor-4" 306 0 basechar 0
LayerCount: 2
Fore
SplineSet
620.419921875 208 m 2
 624.219726562 207 624.63671875 204 621.676757812 199 c 0
 567.266601562 94 463.856445312 -11 303.856445312 -11 c 0
 102.856445312 -11 15.046875 134 51.787109375 323 c 0
 80.357421875 470 200.427734375 671 444.427734375 671 c 0
 629.427734375 671 663.868164062 519 656.288085938 480 c 0
 654.358398438 470 651.778320312 467 644.388671875 465 c 2
 586.888671875 447 l 2
 569.928710938 442 567.8984375 447 569.05859375 453 c 0
 569.838867188 457 573.779296875 467 576.2890625 480 c 0
 591.44921875 558 557.599609375 641 438.599609375 641 c 0
 284.599609375 641 182.139648438 474 159.790039062 359 c 0
 120.540039062 157 174.700195312 19 319.700195312 19 c 0
 462.700195312 19 549.58984375 111 598.049804688 206 c 0
 601.209960938 212 604.400390625 213 607.200195312 212 c 2
 620.419921875 208 l 2
EndSplineSet
Substitution2: "'ss04' Style Set 4 in Latin lookup 33 subtable" u1F152
Substitution2: "'ss03' Style Set 3 in Latin lookup 31 subtable" uni24B8
Substitution2: "'c2sc' Capitals to Small Capitals in Latin lookup 11 subtable" C.sc
AlternateSubs2: "'aalt' Access All Alternates in Latin lookup 0 subtable" C.sc uni24B8 u1F152
Position2: "'cpsp' Capital Spacing in Latin lookup 0 subtable" dx=5 dy=0 dh=10 dv=0
EndChar

StartChar: Cacute
Encoding: 262 262 35
Width: 639
GlyphClass: 2
Flags: MW
HStem: -11 30<247.2 383.856> 641 30<361.6 498.1>
VStem: 44 104 580 76.3
AnchorPoint: "Anchor-5" 508 899 basechar 0
AnchorPoint: "Anchor-4" 306 0 basechar 0
LayerCount: 2
Fore
SplineSet
620.419921875 208 m 2
 624.219726562 207 624.63671875 204 621.676757812 199 c 0
 567.266601562 94 463.856445312 -11 303.856445312 -11 c 0
 102.856445312 -11 15.046875 134 51.787109375 323 c 0
 80.357421875 470 200.427734375 671 444.427734375 671 c 0
 629.427734375 671 663.868164062 519 656.288085938 480 c 0
 654.358398438 470 651.778320312 467 644.388671875 465 c 2
 586.888671875 447 l 2
 569.928710938 442 567.8984375 447 569.05859375 453 c 0
 569.838867188 457 573.779296875 467 576.2890625 480 c 0
 591.44921875 558 557.599609375 641 438.599609375 641 c 0
 284.599609375 641 182.139648438 474 159.790039062 359 c 0
 120.540039062 157 174.700195312 19 319.700195312 19 c 0
 462.700195312 19 549.58984375 111 598.049804688 206 c 0
 601.209960938 212 604.400390625 213 607.200195312 212 c 2
 620.419921875 208 l 2
380.716796875 729.190429688 m 1
 443.016601562 791.390625 458.0859375 810.78125 489.236328125 858.78125 c 0
 495.516601562 868.451171875 504.45703125 871.44140625 515.20703125 871.44140625 c 0
 542.907226562 871.44140625 550.397460938 857.021484375 545.8671875 833.741210938 c 0
 536.247070312 784.19140625 465.516601562 752.111328125 412.486328125 721.471679688 c 0
 409.026367188 719.481445312 405.56640625 718.28125 403.0859375 718.55078125 c 0
 400.125976562 718.880859375 395.456054688 721.020507812 389.856445312 724.120117188 c 2
 380.716796875 729.190429688 l 1
EndSplineSet
Substitution2: "'c2sc' Capitals to Small Capitals in Latin lookup 11 subtable" Cacute.sc
AlternateSubs2: "'aalt' Access All Alternates in Latin lookup 0 subtable" Cacute.sc
Position2: "'cpsp' Capital Spacing in Latin lookup 0 subtable" dx=5 dy=0 dh=10 dv=0
EndChar

StartChar: Ccaron
Encoding: 268 268 36
Width: 639
GlyphClass: 2
Flags: MW
HStem: -11 30<247.2 383.856> 641 30<361.6 498.1>
VStem: 44 104 580 76.3
AnchorPoint: "Anchor-5" 472 845 basechar 0
AnchorPoint: "Anchor-4" 306 0 basechar 0
LayerCount: 2
Fore
SplineSet
620.419921875 208 m 2
 624.219726562 207 624.63671875 204 621.676757812 199 c 0
 567.266601562 94 463.856445312 -11 303.856445312 -11 c 0
 102.856445312 -11 15.046875 134 51.787109375 323 c 0
 80.357421875 470 200.427734375 671 444.427734375 671 c 0
 629.427734375 671 663.868164062 519 656.288085938 480 c 0
 654.358398438 470 651.778320312 467 644.388671875 465 c 2
 586.888671875 447 l 2
 569.928710938 442 567.8984375 447 569.05859375 453 c 0
 569.838867188 457 573.779296875 467 576.2890625 480 c 0
 591.44921875 558 557.599609375 641 438.599609375 641 c 0
 284.599609375 641 182.139648438 474 159.790039062 359 c 0
 120.540039062 157 174.700195312 19 319.700195312 19 c 0
 462.700195312 19 549.58984375 111 598.049804688 206 c 0
 601.209960938 212 604.400390625 213 607.200195312 212 c 2
 620.419921875 208 l 2
452.846679688 785.0703125 m 1
 477.516601562 819.100585938 515.547851562 857.3203125 555.147460938 857.3203125 c 0
 575.977539062 857.3203125 581.77734375 837.169921875 577.336914062 814.25 c 0
 575.306640625 803.83984375 572.866210938 794.799804688 564.545898438 791.33984375 c 0
 521.286132812 776.059570312 498.416015625 765.639648438 441.396484375 726.049804688 c 1
 399.766601562 765.639648438 380.946289062 776.059570312 343.625976562 791.33984375 c 0
 336.666015625 794.799804688 337.715820312 803.83984375 339.74609375 814.25 c 0
 344.186523438 837.169921875 357.826171875 857.3203125 378.65625 857.3203125 c 0
 418.266601562 857.3203125 441.396484375 819.100585938 452.846679688 785.0703125 c 1
EndSplineSet
Substitution2: "'c2sc' Capitals to Small Capitals in Latin lookup 11 subtable" Ccaron.sc
AlternateSubs2: "'aalt' Access All Alternates in Latin lookup 0 subtable" Ccaron.sc
Position2: "'cpsp' Capital Spacing in Latin lookup 0 subtable" dx=5 dy=0 dh=10 dv=0
EndChar

StartChar: Ccedilla
Encoding: 199 199 37
Width: 639
GlyphClass: 2
Flags: MW
HStem: -6 21G
AnchorPoint: "Anchor-5" 429 660 basechar 0
AnchorPoint: "Anchor-4" 306 0 basechar 0
LayerCount: 2
Fore
SplineSet
620.4296875 208 m 2
 624.239257812 207 624.651367188 203.991210938 621.681640625 198.991210938 c 0
 568.491210938 96.3408203125 468.4609375 -6.3095703125 314.510742188 -10.849609375 c 1
 270.701171875 -53.009765625 l 1
 284.670898438 -48.009765625 299.060546875 -46.009765625 313.060546875 -46.009765625 c 0
 359.060546875 -46.009765625 407.010742188 -72.009765625 394.760742188 -135.009765625 c 0
 384.650390625 -187.009765625 331.260742188 -225.009765625 263.260742188 -225.009765625 c 0
 236.260742188 -225.009765625 207.241210938 -220.009765625 178.760742188 -207.009765625 c 0
 163.12109375 -200.009765625 162.241210938 -199.41015625 166.641601562 -176.780273438 c 0
 168.19140625 -168.780273438 171.891601562 -163.459960938 177.211914062 -163.459960938 c 0
 181.211914062 -163.459960938 184.711914062 -165.1796875 187.3515625 -166.120117188 c 0
 213.491210938 -175.440429688 240.28125 -184.760742188 273.561523438 -184.760742188 c 0
 315.51171875 -184.760742188 343.231445312 -165.440429688 348.661132812 -137.48046875 c 0
 356.430664062 -97.55078125 322.260742188 -81.5703125 270.340820312 -81.5703125 c 0
 256.380859375 -81.5703125 232.970703125 -85.5703125 221.670898438 -85.5703125 c 0
 215.020507812 -85.5703125 211.80078125 -81.5703125 212.840820312 -76.25 c 0
 213.610351562 -72.259765625 213.66015625 -69.16015625 217.5703125 -65.6005859375 c 2
 278.330078125 -10.1904296875 l 1
 95.4697265625 1.669921875 16.6396484375 142.200195312 51.7900390625 323 c 0
 80.3603515625 470 200.430664062 671 444.430664062 671 c 0
 629.430664062 671 663.880859375 519 656.30078125 480 c 0
 654.360351562 470 651.780273438 467 644.390625 465 c 2
 586.890625 447 l 2
 569.920898438 442 567.890625 447 569.05078125 453 c 0
 569.831054688 457 573.78125 467 576.30078125 480 c 0
 591.4609375 558 557.600585938 641 438.600585938 641 c 0
 284.600585938 641 182.140625 474 159.780273438 359 c 0
 120.520507812 157 174.690429688 19 319.690429688 19 c 0
 462.690429688 19 549.580078125 111 598.040039062 206 c 0
 601.209960938 212 604.400390625 213 607.209960938 212 c 2
 620.4296875 208 l 2
EndSplineSet
Substitution2: "'c2sc' Capitals to Small Capitals in Latin lookup 11 subtable" Ccedilla.sc
AlternateSubs2: "'aalt' Access All Alternates in Latin lookup 0 subtable" Ccedilla.sc
Position2: "'cpsp' Capital Spacing in Latin lookup 0 subtable" dx=5 dy=0 dh=10 dv=0
EndChar

StartChar: uni1E08
Encoding: 7688 7688 38
Width: 639
GlyphClass: 2
Flags: MW
HStem: -225 40.24 -81.56 35.57 -10.18 29.19 641 30
VStem: 44 104 348.66 48.34 580 76.3
AnchorPoint: "Anchor-5" 508 899 basechar 0
AnchorPoint: "Anchor-4" 306 0 basechar 0
LayerCount: 2
Fore
SplineSet
620.419921875 208 m 2
 624.219726562 207 624.65625 204.040039062 621.696289062 199.040039062 c 0
 568.505859375 96.3896484375 468.475585938 -6.25 314.53515625 -10.7900390625 c 1
 270.735351562 -52.9501953125 l 1
 284.6953125 -47.9501953125 299.084960938 -45.9501953125 313.084960938 -45.9501953125 c 0
 359.084960938 -45.9501953125 407.025390625 -71.9501953125 394.775390625 -134.950195312 c 0
 384.67578125 -186.950195312 331.286132812 -224.950195312 263.286132812 -224.950195312 c 0
 236.286132812 -224.950195312 207.276367188 -219.950195312 178.795898438 -206.950195312 c 0
 163.15625 -199.950195312 162.286132812 -199.350585938 166.67578125 -176.73046875 c 0
 168.225585938 -168.740234375 171.916015625 -163.419921875 177.236328125 -163.419921875 c 0
 181.236328125 -163.419921875 184.736328125 -165.139648438 187.375976562 -166.069335938 c 0
 213.515625 -175.389648438 240.295898438 -184.709960938 273.576171875 -184.709960938 c 0
 315.516601562 -184.709960938 343.2265625 -165.389648438 348.646484375 -137.4296875 c 0
 356.416015625 -97.509765625 322.24609375 -81.529296875 270.3359375 -81.529296875 c 0
 256.375976562 -81.529296875 232.965820312 -85.529296875 221.666015625 -85.529296875 c 0
 215.026367188 -85.529296875 211.806640625 -81.529296875 212.846679688 -76.2197265625 c 0
 213.606445312 -72.2294921875 213.646484375 -69.1298828125 217.556640625 -65.580078125 c 2
 278.31640625 -10.169921875 l 1
 95.466796875 1.6796875 16.63671875 142.209960938 51.787109375 323 c 0
 80.357421875 470 200.427734375 671 444.427734375 671 c 0
 629.427734375 671 663.868164062 519 656.288085938 480 c 0
 654.358398438 470 651.778320312 467 644.388671875 465 c 2
 586.888671875 447 l 2
 569.928710938 442 567.8984375 447 569.05859375 453 c 0
 569.838867188 457 573.779296875 467 576.2890625 480 c 0
 591.44921875 558 557.599609375 641 438.599609375 641 c 0
 284.599609375 641 182.139648438 474 159.790039062 359 c 0
 120.540039062 157 174.700195312 19 319.700195312 19 c 0
 462.700195312 19 549.58984375 111 598.049804688 206 c 0
 601.209960938 212 604.400390625 213 607.200195312 212 c 2
 620.419921875 208 l 2
380.736328125 729.23046875 m 1
 443.036132812 791.430664062 458.10546875 810.8203125 489.255859375 858.8203125 c 0
 495.536132812 868.490234375 504.4765625 871.48046875 515.2265625 871.48046875 c 0
 542.926757812 871.48046875 550.416992188 857.060546875 545.88671875 833.780273438 c 0
 536.266601562 784.23046875 465.536132812 752.150390625 412.505859375 721.510742188 c 0
 409.045898438 719.520507812 405.5859375 718.3203125 403.10546875 718.590820312 c 0
 400.145507812 718.920898438 395.475585938 721.060546875 389.875976562 724.16015625 c 2
 380.736328125 729.23046875 l 1
EndSplineSet
Substitution2: "'c2sc' Capitals to Small Capitals in Latin lookup 11 subtable" uni1E08.sc
AlternateSubs2: "'aalt' Access All Alternates in Latin lookup 0 subtable" uni1E08.sc
Position2: "'cpsp' Capital Spacing in Latin lookup 0 subtable" dx=5 dy=0 dh=10 dv=0
EndChar

StartChar: Ccircumflex
Encoding: 264 264 39
Width: 639
GlyphClass: 2
Flags: MW
HStem: -11 30<247.2 383.856> 641 30<361.6 498.1>
VStem: 44 104 580 76.3
AnchorPoint: "Anchor-7" 445 742 basechar 0
AnchorPoint: "Anchor-5" 456 799 basechar 0
AnchorPoint: "Anchor-4" 306 0 basechar 0
LayerCount: 2
Fore
SplineSet
620.419921875 208 m 2
 624.219726562 207 624.63671875 204 621.676757812 199 c 0
 567.266601562 94 463.856445312 -11 303.856445312 -11 c 0
 102.856445312 -11 15.046875 134 51.787109375 323 c 0
 80.357421875 470 200.427734375 671 444.427734375 671 c 0
 629.427734375 671 663.868164062 519 656.288085938 480 c 0
 654.358398438 470 651.778320312 467 644.388671875 465 c 2
 586.888671875 447 l 2
 569.928710938 442 567.8984375 447 569.05859375 453 c 0
 569.838867188 457 573.779296875 467 576.2890625 480 c 0
 591.44921875 558 557.599609375 641 438.599609375 641 c 0
 284.599609375 641 182.139648438 474 159.790039062 359 c 0
 120.540039062 157 174.700195312 19 319.700195312 19 c 0
 462.700195312 19 549.58984375 111 598.049804688 206 c 0
 601.209960938 212 604.400390625 213 607.200195312 212 c 2
 620.419921875 208 l 2
454.546875 789.91015625 m 1
 429.8671875 755.879882812 391.864257812 717.66015625 352.264648438 717.66015625 c 0
 331.415039062 717.66015625 325.615234375 737.810546875 330.075195312 760.73046875 c 0
 332.10546875 771.140625 334.545898438 780.180664062 342.845703125 783.640625 c 0
 386.125976562 798.920898438 408.99609375 809.340820312 466.015625 848.930664062 c 1
 507.635742188 809.340820312 526.456054688 798.920898438 563.786132812 783.640625 c 0
 570.74609375 780.180664062 569.67578125 771.140625 567.666015625 760.73046875 c 0
 563.206054688 737.810546875 549.576171875 717.66015625 528.7265625 717.66015625 c 0
 489.126953125 717.66015625 465.987304688 755.879882812 454.546875 789.91015625 c 1
EndSplineSet
Substitution2: "'c2sc' Capitals to Small Capitals in Latin lookup 11 subtable" Ccircumflex.sc
AlternateSubs2: "'aalt' Access All Alternates in Latin lookup 0 subtable" Ccircumflex.sc
Position2: "'cpsp' Capital Spacing in Latin lookup 0 subtable" dx=5 dy=0 dh=10 dv=0
EndChar

StartChar: Cdotaccent
Encoding: 266 266 40
Width: 639
GlyphClass: 2
Flags: MW
HStem: -11 30<247.2 383.856> 641 30<361.6 498.1>
VStem: 44 104 399.15 114.23 580 76.3
AnchorPoint: "Anchor-5" 465 845 basechar 0
AnchorPoint: "Anchor-4" 306 0 basechar 0
LayerCount: 2
Fore
SplineSet
620.419921875 208 m 2
 624.219726562 207 624.63671875 204 621.676757812 199 c 0
 567.266601562 94 463.856445312 -11 303.856445312 -11 c 0
 102.856445312 -11 15.046875 134 51.787109375 323 c 0
 80.357421875 470 200.427734375 671 444.427734375 671 c 0
 629.427734375 671 663.868164062 519 656.288085938 480 c 0
 654.358398438 470 651.778320312 467 644.388671875 465 c 2
 586.888671875 447 l 2
 569.928710938 442 567.8984375 447 569.05859375 453 c 0
 569.838867188 457 573.779296875 467 576.2890625 480 c 0
 591.44921875 558 557.599609375 641 438.599609375 641 c 0
 284.599609375 641 182.139648438 474 159.790039062 359 c 0
 120.540039062 157 174.700195312 19 319.700195312 19 c 0
 462.700195312 19 549.58984375 111 598.049804688 206 c 0
 601.209960938 212 604.400390625 213 607.200195312 212 c 2
 620.419921875 208 l 2
466.846679688 841.759765625 m 0
 480.586914062 839.08984375 490.7265625 831.779296875 501.796875 815.369140625 c 0
 512.8671875 798.958984375 516.006835938 787.649414062 513.346679688 773.918945312 c 0
 510.676757812 760.178710938 502.506835938 750.178710938 487.126953125 739.80859375 c 0
 470.716796875 728.73828125 458.556640625 725.758789062 444.81640625 728.428710938 c 0
 431.936523438 730.928710938 422.63671875 738.079101562 410.716796875 754.649414062 c 0
 399.4765625 770.19921875 396.49609375 782.369140625 399.166015625 796.098632812 c 0
 401.826171875 809.838867188 408.986328125 819.138671875 425.396484375 830.208984375 c 0
 441.806640625 841.279296875 453.9765625 844.259765625 466.846679688 841.759765625 c 0
EndSplineSet
Substitution2: "'c2sc' Capitals to Small Capitals in Latin lookup 11 subtable" Cdotaccent.sc
AlternateSubs2: "'aalt' Access All Alternates in Latin lookup 0 subtable" Cdotaccent.sc
Position2: "'cpsp' Capital Spacing in Latin lookup 0 subtable" dx=5 dy=0 dh=10 dv=0
EndChar

StartChar: D
Encoding: 68 68 41
Width: 625
GlyphClass: 2
Flags: MW
HStem: 0 33<-6.45898 10.4404 4.44043 10.4404 10.4404 29.4404 4.44043 223.041> 0 37<189.73 223.041> 627 33<126.28 141.381 267.91 267.91 267.91 308.91>
VStem: 531 93
AnchorPoint: "Anchor-5" 355 660 basechar 0
AnchorPoint: "Anchor-4" 239 0 basechar 0
LayerCount: 2
Fore
SplineSet
327.280273438 660 m 2x70
 537.280273438 660 656.010742188 535 616.37109375 331 c 0
 575.55078125 121 424.041015625 0 223.041015625 0 c 2
 -1.958984375 0 l 2x70
 -10.958984375 0 -15.1689453125 4 -13.4189453125 13 c 2
 -12.0693359375 20 l 2
 -10.51953125 28 -4.5595703125 33 4.4404296875 33 c 2
 10.4404296875 33 l 2
 48.4404296875 33 75.4501953125 64 85.5498046875 116 c 2xb0
 168.740234375 544 l 2
 179.430664062 599 162.880859375 627 119.880859375 627 c 0
 110.880859375 627 106.850585938 632 108.400390625 640 c 2
 109.75 647 l 2
 111.5 656 117.280273438 660 126.280273438 660 c 2
 327.280273438 660 l 2x70
167.810546875 112 m 2
 158.870117188 66 161.23046875 37 218.23046875 37 c 0
 368.23046875 37 486.240234375 140 523.370117188 331 c 0
 556.41015625 501 484.91015625 627 308.91015625 627 c 2
 267.91015625 627 l 1
 167.810546875 112 l 2
EndSplineSet
Substitution2: "'ss04' Style Set 4 in Latin lookup 33 subtable" u1F153
Substitution2: "'ss03' Style Set 3 in Latin lookup 31 subtable" uni24B9
Substitution2: "'c2sc' Capitals to Small Capitals in Latin lookup 11 subtable" D.sc
AlternateSubs2: "'aalt' Access All Alternates in Latin lookup 0 subtable" D.sc uni24B9 u1F153
Position2: "'cpsp' Capital Spacing in Latin lookup 0 subtable" dx=5 dy=0 dh=10 dv=0
EndChar

StartChar: uni01C4
Encoding: 452 452 42
Width: 1272
GlyphClass: 2
Flags: MW
HStem: -12 21G 0 33<-6.50195 10.4189 4.41895 10.4189 10.4189 29.4189 4.41895 222.998> 0 37<189.689 222.998> 0 50<707.72 895.72 895.72 977.72> 619 41<890.318 930.318 930.318 1176.32> 627 33<126.29 141.38 267.879 267.879 267.879 308.879> 651 20G 726 131
VStem: 531 93 980 240
AnchorPoint: "Anchor-5" 1113 845 basechar 0
AnchorPoint: "Anchor-4" 874 0 basechar 0
LayerCount: 2
Fore
SplineSet
327.290039062 660 m 2x45c0
 537.290039062 660 655.98828125 535 616.337890625 331 c 0
 575.517578125 121 423.998046875 0 222.998046875 0 c 2
 -2.001953125 0 l 2
 -11.001953125 0 -15.2216796875 4 -13.4716796875 13 c 2
 -12.111328125 20 l 2
 -10.5615234375 28 -4.5810546875 33 4.4189453125 33 c 2
 10.4189453125 33 l 2
 48.4189453125 33 75.4384765625 64 85.548828125 116 c 2
 168.739257812 544 l 2
 179.4296875 599 162.879882812 627 119.879882812 627 c 0
 110.879882812 627 106.849609375 632 108.399414062 640 c 2
 109.759765625 647 l 2
 111.509765625 656 117.290039062 660 126.290039062 660 c 2
 327.290039062 660 l 2x45c0
167.768554688 112 m 2
 158.828125 66 161.189453125 37 218.189453125 37 c 0x25c0
 368.189453125 37 486.208984375 140 523.338867188 331 c 0
 556.388671875 501 484.87890625 627 308.87890625 627 c 2
 267.87890625 627 l 1
 167.768554688 112 l 2
1235.34960938 151 m 2
 1240.56933594 147 1240.98632812 144 1240.40625 141 c 0
 1239.81640625 138 1238.43652344 136 1235.84667969 133 c 2
 1139.21679688 -4 l 2
 1135.24707031 -9 1131.85742188 -11 1126.85742188 -11 c 0x85c0
 1124.85742188 -11 1121.85742188 -11 1119.24707031 -9 c 2
 1116.21679688 -4 l 2
 1112.99707031 0 1105.99707031 0 1099.99707031 0 c 2
 599.997070312 0 l 2
 591.997070312 0 587.77734375 4 589.52734375 13 c 2
 593.217773438 32 l 2x45c0
 594.387695312 38 597.547851562 44 602.528320312 49 c 2x15c0
 1176.31835938 619 l 1
 930.318359375 619 l 2x49c0
 850.318359375 619 807.908203125 586 755.98828125 535 c 2
 752.21875 531 l 2
 747.239257812 526 743.659179688 523 739.659179688 523 c 0
 737.659179688 523 734.659179688 523 732.048828125 525 c 2
 725.829101562 529 l 2
 721.409179688 532 719.989257812 535 720.76953125 539 c 0
 721.349609375 542 722.739257812 544 725.329101562 547 c 2
 817.069335938 664 l 2
 821.239257812 670 825.4296875 671 830.4296875 671 c 0x43c0
 833.4296875 671 835.4296875 671 841.069335938 664 c 0
 845.2890625 660 851.2890625 660 857.2890625 660 c 2
 1308.2890625 660 l 2
 1312.2890625 660 1312.89941406 658 1312.50976562 656 c 2
 1311.54003906 651 l 2
 1310.95996094 648 1307.1796875 644 1304.59960938 641 c 2
 707.719726562 50 l 1
 895.719726562 50 l 2x15c0
 1059.71972656 50 1136.41015625 69 1198.77050781 148 c 2
 1202.74023438 153 l 2
 1206.70996094 158 1211.29980469 161 1215.29980469 161 c 0
 1218.29980469 161 1220.29980469 161 1222.91015625 159 c 2
 1235.34960938 151 l 2
1093.83691406 785.080078125 m 1
 1118.51660156 819.120117188 1156.51855469 857.33984375 1196.12890625 857.33984375 c 0
 1216.96875 857.33984375 1222.77832031 837.189453125 1218.328125 814.259765625 c 0
 1216.29785156 803.83984375 1213.84765625 794.799804688 1205.52734375 791.330078125 c 0
 1162.25683594 776.040039062 1139.38671875 765.620117188 1082.35644531 726.020507812 c 1
 1040.7265625 765.620117188 1021.90625 776.040039062 984.576171875 791.330078125 c 0
 977.606445312 794.799804688 978.666015625 803.83984375 980.696289062 814.259765625 c 0
 985.146484375 837.189453125 998.796875 857.33984375 1019.63671875 857.33984375 c 0
 1059.24707031 857.33984375 1082.38671875 819.120117188 1093.83691406 785.080078125 c 1
EndSplineSet
Substitution2: "'c2sc' Capitals to Small Capitals in Latin lookup 11 subtable" uni01C4.sc
AlternateSubs2: "'aalt' Access All Alternates in Latin lookup 0 subtable" uni01C4.sc
Position2: "'cpsp' Capital Spacing in Latin lookup 0 subtable" dx=5 dy=0 dh=10 dv=0
EndChar

StartChar: Dcaron
Encoding: 270 270 43
Width: 625
GlyphClass: 2
Flags: MW
HStem: 0 33<-6.45898 10.4404 4.44043 10.4404 10.4404 29.4404 4.44043 223.041> 0 37<189.73 223.041> 627 33<126.28 141.381 267.91 267.91 267.91 308.91>
VStem: 531 93
AnchorPoint: "Anchor-5" 398 845 basechar 0
AnchorPoint: "Anchor-4" 239 0 basechar 0
LayerCount: 2
Fore
SplineSet
327.280273438 660 m 2x70
 537.280273438 660 656.010742188 535 616.37109375 331 c 0
 575.55078125 121 424.041015625 0 223.041015625 0 c 2
 -1.958984375 0 l 2x70
 -10.958984375 0 -15.1689453125 4 -13.4189453125 13 c 2
 -12.0693359375 20 l 2
 -10.51953125 28 -4.5595703125 33 4.4404296875 33 c 2
 10.4404296875 33 l 2
 48.4404296875 33 75.4501953125 64 85.5498046875 116 c 2xb0
 168.740234375 544 l 2
 179.430664062 599 162.880859375 627 119.880859375 627 c 0
 110.880859375 627 106.850585938 632 108.400390625 640 c 2
 109.75 647 l 2
 111.5 656 117.280273438 660 126.280273438 660 c 2
 327.280273438 660 l 2x70
167.810546875 112 m 2
 158.870117188 66 161.23046875 37 218.23046875 37 c 0
 368.23046875 37 486.240234375 140 523.370117188 331 c 0
 556.41015625 501 484.91015625 627 308.91015625 627 c 2
 267.91015625 627 l 1
 167.810546875 112 l 2
378.891601562 785.0703125 m 1
 403.561523438 819.100585938 441.592773438 857.3203125 481.192382812 857.3203125 c 0
 502.022460938 857.3203125 507.822265625 837.169921875 503.381835938 814.25 c 0
 501.3515625 803.83984375 498.911132812 794.799804688 490.590820312 791.33984375 c 0
 447.331054688 776.059570312 424.4609375 765.639648438 367.44140625 726.049804688 c 1
 325.811523438 765.639648438 306.991210938 776.059570312 269.670898438 791.33984375 c 0
 262.7109375 794.799804688 263.760742188 803.83984375 265.791015625 814.25 c 0
 270.231445312 837.169921875 283.87109375 857.3203125 304.701171875 857.3203125 c 0
 344.311523438 857.3203125 367.44140625 819.100585938 378.891601562 785.0703125 c 1
EndSplineSet
Substitution2: "'c2sc' Capitals to Small Capitals in Latin lookup 11 subtable" Dcaron.sc
AlternateSubs2: "'aalt' Access All Alternates in Latin lookup 0 subtable" Dcaron.sc
Position2: "'cpsp' Capital Spacing in Latin lookup 0 subtable" dx=5 dy=0 dh=10 dv=0
EndChar

StartChar: Dcroat
Encoding: 272 272 44
Width: 695
GlyphClass: 2
Flags: MW
HStem: 0 33<-6.46875 10.4307 4.43066 10.4307 10.4307 29.4307 4.43066 223.031> 0 37<189.731 223.031> 307 43<35.5 131.061 40.041 122.67 214.062 391.031> 627 33<126.311 141.411 267.911 267.911 267.911 308.911>
VStem: 531 93
AnchorPoint: "Anchor-5" 355 660 basechar 0
AnchorPoint: "Anchor-4" 239 0 basechar 0
LayerCount: 2
Fore
SplineSet
40 307 m 2x78
 31 307 26.041015625 312 26.041015625 320 c 2
 26.041015625 336 l 2
 26.041015625 345 31.041015625 350 40.041015625 350 c 2
 131.060546875 350 l 1
 168.770507812 544 l 2
 179.4609375 599 162.911132812 627 119.911132812 627 c 0
 110.911132812 627 106.880859375 632 108.430664062 640 c 2
 109.780273438 647 l 2
 111.530273438 656 117.310546875 660 126.310546875 660 c 2
 327.310546875 660 l 2
 537.310546875 660 656.000976562 535 616.361328125 331 c 0
 575.541015625 121 424.03125 0 223.03125 0 c 2
 -1.96875 0 l 2x78
 -10.96875 0 -15.1787109375 4 -13.4287109375 13 c 2
 -12.0791015625 20 l 2
 -10.529296875 28 -4.5693359375 33 4.4306640625 33 c 2
 10.4306640625 33 l 2
 48.4306640625 33 75.4404296875 64 85.5400390625 116 c 2xb8
 122.669921875 307 l 1
 40 307 l 2x78
167.80078125 112 m 2
 158.860351562 66 161.231445312 37 218.231445312 37 c 0
 368.231445312 37 486.241210938 140 523.37109375 331 c 0
 556.411132812 501 484.911132812 627 308.911132812 627 c 2
 267.911132812 627 l 1
 214.061523438 350 l 1
 391.03125 350 l 2
 400.03125 350 404.03125 345 404.03125 336 c 2
 404.03125 320 l 2
 404.03125 312 400.03125 307 391.03125 307 c 2
 205.7109375 307 l 1
 167.80078125 112 l 2
EndSplineSet
Substitution2: "'c2sc' Capitals to Small Capitals in Latin lookup 11 subtable" Dcroat.sc
AlternateSubs2: "'aalt' Access All Alternates in Latin lookup 0 subtable" Dcroat.sc
Position2: "'cpsp' Capital Spacing in Latin lookup 0 subtable" dx=5 dy=0 dh=10 dv=0
EndChar

StartChar: uni1E0C
Encoding: 7692 7692 45
Width: 625
GlyphClass: 2
Flags: MW
HStem: 0 33<-6.45898 10.4404 4.44043 10.4404 10.4404 29.4404 4.44043 223.041> 0 37<189.73 223.041> 627 33<126.28 141.381 267.91 267.91 267.91 308.91>
VStem: 167.69 114.22 531 93
AnchorPoint: "Anchor-5" 355 660 basechar 0
AnchorPoint: "Anchor-4" 239 0 basechar 0
LayerCount: 2
Fore
SplineSet
327.280273438 660 m 2x68
 537.280273438 660 656.010742188 535 616.37109375 331 c 0
 575.55078125 121 424.041015625 0 223.041015625 0 c 2
 -1.958984375 0 l 2x68
 -10.958984375 0 -15.1689453125 4 -13.4189453125 13 c 2
 -12.0693359375 20 l 2
 -10.51953125 28 -4.5595703125 33 4.4404296875 33 c 2
 10.4404296875 33 l 2
 48.4404296875 33 75.4501953125 64 85.5498046875 116 c 2xa8
 168.740234375 544 l 2
 179.430664062 599 162.880859375 627 119.880859375 627 c 0
 110.880859375 627 106.850585938 632 108.400390625 640 c 2
 109.75 647 l 2
 111.5 656 117.280273438 660 126.280273438 660 c 2
 327.280273438 660 l 2x68
167.810546875 112 m 2
 158.870117188 66 161.23046875 37 218.23046875 37 c 0
 368.23046875 37 486.240234375 140 523.370117188 331 c 0
 556.41015625 501 484.91015625 627 308.91015625 627 c 2
 267.91015625 627 l 1
 167.810546875 112 l 2
235.431640625 -57.4296875 m 0x78
 249.171875 -60.099609375 259.3125 -67.41015625 270.3828125 -83.8203125 c 0
 281.453125 -100.23046875 284.592773438 -111.530273438 281.922851562 -125.270507812 c 0
 279.262695312 -139.000976562 271.072265625 -149.000976562 255.702148438 -159.380859375 c 0
 239.291992188 -170.451171875 227.131835938 -173.420898438 213.391601562 -170.760742188 c 0
 200.521484375 -168.250976562 191.211914062 -161.111328125 179.291992188 -144.53125 c 0
 168.072265625 -128.981445312 165.08203125 -116.821289062 167.751953125 -103.090820312 c 0
 170.421875 -89.3505859375 177.561523438 -80.05078125 193.971679688 -68.98046875 c 0
 210.391601562 -57.91015625 222.551757812 -54.9296875 235.431640625 -57.4296875 c 0x78
EndSplineSet
Substitution2: "'c2sc' Capitals to Small Capitals in Latin lookup 11 subtable" uni1E0C.sc
AlternateSubs2: "'aalt' Access All Alternates in Latin lookup 0 subtable" uni1E0C.sc
Position2: "'cpsp' Capital Spacing in Latin lookup 0 subtable" dx=5 dy=0 dh=10 dv=0
EndChar

StartChar: uni1E0E
Encoding: 7694 7694 46
Width: 625
GlyphClass: 2
Flags: MW
HStem: -123 49<113.052 343.071 127.071 333.552> 0 33<-6.45898 10.4404 4.44043 10.4404 10.4404 29.4404 4.44043 223.041> 0 37<189.73 223.041> 627 33<126.28 141.381 267.91 267.91 267.91 308.91>
VStem: 531 93
AnchorPoint: "Anchor-5" 355 660 basechar 0
AnchorPoint: "Anchor-4" 239 0 basechar 0
LayerCount: 2
Fore
SplineSet
327.280273438 660 m 2xb8
 537.280273438 660 656.010742188 535 616.37109375 331 c 0
 575.55078125 121 424.041015625 0 223.041015625 0 c 2
 -1.958984375 0 l 2xb8
 -10.958984375 0 -15.1689453125 4 -13.4189453125 13 c 2
 -12.0693359375 20 l 2
 -10.51953125 28 -4.5595703125 33 4.4404296875 33 c 2
 10.4404296875 33 l 2
 48.4404296875 33 75.4501953125 64 85.5498046875 116 c 2xd8
 168.740234375 544 l 2
 179.430664062 599 162.880859375 627 119.880859375 627 c 0
 110.880859375 627 106.850585938 632 108.400390625 640 c 2
 109.75 647 l 2
 111.5 656 117.280273438 660 126.280273438 660 c 2
 327.280273438 660 l 2xb8
167.810546875 112 m 2
 158.870117188 66 161.23046875 37 218.23046875 37 c 0
 368.23046875 37 486.240234375 140 523.370117188 331 c 0
 556.41015625 501 484.91015625 627 308.91015625 627 c 2
 267.91015625 627 l 1
 167.810546875 112 l 2
349.071289062 -110 m 2
 347.51171875 -118 342.551757812 -123 333.551757812 -123 c 2
 117.551757812 -123 l 2
 108.551757812 -123 105.521484375 -118 107.081054688 -110 c 2
 111.541015625 -87 l 2
 113.291015625 -78 118.071289062 -74 127.071289062 -74 c 2
 343.071289062 -74 l 2
 352.071289062 -74 355.28125 -78 353.53125 -87 c 2
 349.071289062 -110 l 2
EndSplineSet
Substitution2: "'c2sc' Capitals to Small Capitals in Latin lookup 11 subtable" uni1E0E.sc
AlternateSubs2: "'aalt' Access All Alternates in Latin lookup 0 subtable" uni1E0E.sc
Position2: "'cpsp' Capital Spacing in Latin lookup 0 subtable" dx=5 dy=0 dh=10 dv=0
EndChar

StartChar: uni01C5
Encoding: 453 453 47
Width: 1085
GlyphClass: 2
Flags: MW
HStem: -12 21G 0 33<-6.50195 10.4189 4.41895 10.4189 10.4189 29.4189 4.41895 222.998> 0 37<189.689 222.998> 431 20G<768.171 772.171> 506 131 627 33<126.29 141.38 267.879 267.879 267.879 308.879>
VStem: 531 93 822 240
AnchorPoint: "Anchor-5" 955 625 basechar 0
AnchorPoint: "Anchor-4" 808 0 basechar 0
LayerCount: 2
Fore
SplineSet
327.290039062 660 m 2x37
 537.290039062 660 655.98828125 535 616.337890625 331 c 0
 575.517578125 121 423.998046875 0 222.998046875 0 c 2
 -2.001953125 0 l 2x37
 -11.001953125 0 -15.2216796875 4 -13.4716796875 13 c 2
 -12.111328125 20 l 2
 -10.5615234375 28 -4.5810546875 33 4.4189453125 33 c 2
 10.4189453125 33 l 2x57
 48.4189453125 33 75.4384765625 64 85.548828125 116 c 2
 168.739257812 544 l 2
 179.4296875 599 162.879882812 627 119.879882812 627 c 0
 110.879882812 627 106.849609375 632 108.399414062 640 c 2
 109.759765625 647 l 2
 111.509765625 656 117.290039062 660 126.290039062 660 c 2
 327.290039062 660 l 2x37
167.768554688 112 m 2
 158.828125 66 161.189453125 37 218.189453125 37 c 0
 368.189453125 37 486.208984375 140 523.338867188 331 c 0
 556.388671875 501 484.87890625 627 308.87890625 627 c 2
 267.87890625 627 l 1
 167.768554688 112 l 2
1052.26953125 130 m 2
 1058.66992188 125.83984375 1059.38183594 119.19921875 1053.77148438 112.008789062 c 2
 963.221679688 -3.9912109375 l 2
 959.301757812 -9.021484375 954.861328125 -10.9912109375 950.861328125 -10.9912109375 c 0x97
 946.861328125 -10.9912109375 947.000976562 -10.861328125 940.220703125 -3.9912109375 c 0
 936.140625 0.1484375 931.000976562 0.0087890625 925.000976562 0.0087890625 c 2
 596.000976562 0.0087890625 l 2
 587.000976562 0.0087890625 583.78125 4.0087890625 585.53125 13.0087890625 c 2
 589.03125 31.0087890625 l 2
 589.80078125 35.0087890625 590.411132812 38.6484375 592.970703125 41.0087890625 c 2
 980.560546875 399.008789062 l 1
 827.890625 399.008789062 l 2
 771.560546875 399.008789062 731.420898438 372.159179688 691.500976562 320.029296875 c 2
 686.140625 313.029296875 l 2
 678.541015625 303.109375 675.831054688 302.149414062 667.170898438 308.029296875 c 2
 664.260742188 310.009765625 l 2
 657.041015625 314.91015625 657.161132812 319.91015625 663.760742188 328 c 2
 758.310546875 444 l 2
 761.770507812 448.25 765.670898438 451 770.670898438 451 c 0
 773.670898438 451 775.430664062 450.8203125 780.310546875 444 c 0
 783.310546875 439.809570312 789.540039062 440 795.540039062 440 c 2
 1086.59960938 440 l 2
 1091.75 440 1091.97949219 437.129882812 1091.19921875 433.129882812 c 0
 1090.61914062 430.129882812 1088.859375 427.1796875 1085.4296875 424 c 2
 671.979492188 41 l 1
 848.209960938 41 l 2
 909.209960938 41 966.919921875 50.2197265625 1024.97949219 123.309570312 c 2
 1028.94921875 128.309570312 l 2
 1038.94921875 140.909179688 1046.63964844 133.659179688 1048.71972656 132.309570312 c 2
 1052.26953125 130 l 2
936.071289062 565.08984375 m 1
 960.76171875 599.129882812 998.765625 637.349609375 1038.36523438 637.349609375 c 0
 1059.21484375 637.349609375 1065.02441406 617.19921875 1060.56445312 594.26953125 c 0
 1058.54394531 583.849609375 1056.09375 574.809570312 1047.7734375 571.33984375 c 0
 1004.50292969 556.049804688 981.6328125 545.629882812 924.592773438 506.030273438 c 1
 882.962890625 545.629882812 864.142578125 556.049804688 826.8125 571.33984375 c 0
 819.852539062 574.809570312 820.912109375 583.849609375 822.931640625 594.26953125 c 0
 827.391601562 617.19921875 841.03125 637.349609375 861.880859375 637.349609375 c 0x3b
 901.48046875 637.349609375 924.630859375 599.129882812 936.071289062 565.08984375 c 1
EndSplineSet
Substitution2: "'c2sc' Capitals to Small Capitals in Latin lookup 11 subtable" uni01C5.sc
AlternateSubs2: "'aalt' Access All Alternates in Latin lookup 0 subtable" uni01C5.sc
Position2: "'cpsp' Capital Spacing in Latin lookup 0 subtable" dx=5 dy=0 dh=10 dv=0
EndChar

StartChar: Eth
Encoding: 208 208 48
Width: 695
GlyphClass: 2
Flags: MW
HStem: 0 33<-6.46875 10.4307 4.43066 10.4307 10.4307 29.4307 4.43066 223.031> 0 37<189.731 223.031> 307 43<35.5 131.061 40.041 122.67 214.062 391.031> 627 33<126.311 141.411 267.911 267.911 267.911 308.911>
VStem: 531 93
AnchorPoint: "Anchor-5" 355 660 basechar 0
AnchorPoint: "Anchor-4" 239 0 basechar 0
LayerCount: 2
Fore
SplineSet
40 307 m 2x78
 31 307 26.041015625 312 26.041015625 320 c 2
 26.041015625 336 l 2
 26.041015625 345 31.041015625 350 40.041015625 350 c 2
 131.060546875 350 l 1
 168.770507812 544 l 2
 179.4609375 599 162.911132812 627 119.911132812 627 c 0
 110.911132812 627 106.880859375 632 108.430664062 640 c 2
 109.780273438 647 l 2
 111.530273438 656 117.310546875 660 126.310546875 660 c 2
 327.310546875 660 l 2
 537.310546875 660 656.000976562 535 616.361328125 331 c 0
 575.541015625 121 424.03125 0 223.03125 0 c 2
 -1.96875 0 l 2x78
 -10.96875 0 -15.1787109375 4 -13.4287109375 13 c 2
 -12.0791015625 20 l 2
 -10.529296875 28 -4.5693359375 33 4.4306640625 33 c 2
 10.4306640625 33 l 2
 48.4306640625 33 75.4404296875 64 85.5400390625 116 c 2xb8
 122.669921875 307 l 1
 40 307 l 2x78
167.80078125 112 m 2
 158.860351562 66 161.231445312 37 218.231445312 37 c 0
 368.231445312 37 486.241210938 140 523.37109375 331 c 0
 556.411132812 501 484.911132812 627 308.911132812 627 c 2
 267.911132812 627 l 1
 214.061523438 350 l 1
 391.03125 350 l 2
 400.03125 350 404.03125 345 404.03125 336 c 2
 404.03125 320 l 2
 404.03125 312 400.03125 307 391.03125 307 c 2
 205.7109375 307 l 1
 167.80078125 112 l 2
EndSplineSet
Substitution2: "'c2sc' Capitals to Small Capitals in Latin lookup 11 subtable" Eth.sc
AlternateSubs2: "'aalt' Access All Alternates in Latin lookup 0 subtable" Eth.sc
Position2: "'cpsp' Capital Spacing in Latin lookup 0 subtable" dx=5 dy=0 dh=10 dv=0
EndChar

StartChar: E
Encoding: 69 69 49
Width: 624
GlyphClass: 2
Flags: MW
HStem: 0 33<-6.44922 5.4502 4.4502 5.4502 5.4502 26.9502 4.4502 439.051> 0 42<224.181 299.181 299.181 363.681> 330 41<218.161 324.171 210.171 332.161> 429 20G<424.301 430.301 430.301 434.801> 618 42<266.171 445.171 266.171 266.171> 626 34<126.311 141.711> 651 20G<556.931 560.431>
VStem: -14 629 408.16 32.59
AnchorPoint: "Anchor-6" 459 0 basechar 0
AnchorPoint: "Anchor-5" 387 660 basechar 0
AnchorPoint: "Anchor-4" 267 0 basechar 0
LayerCount: 2
Fore
SplineSet
593.530273438 188 m 2x79
 601.760742188 184 600.80078125 179 595.060546875 170 c 2
 478.240234375 -4 l 2
 475.080078125 -10 470.690429688 -12 466.690429688 -12 c 0
 463.690429688 -12 461.890625 -11 459.291015625 -9 c 2
 456.260742188 -4 l 2
 452.850585938 -1 450.05078125 0 439.05078125 0 c 2
 -1.94921875 0 l 2x79
 -10.94921875 0 -15.1591796875 4 -13.4091796875 13 c 2
 -12.0595703125 20 l 2
 -10.509765625 28 -3.5498046875 33 4.4501953125 33 c 2
 5.4501953125 33 l 2
 48.4501953125 33 74.6806640625 60 85.5703125 116 c 2
 168.5703125 543 l 2
 179.260742188 598 163.7109375 626 119.7109375 626 c 0xb5
 111.7109375 626 106.880859375 632 108.430664062 640 c 2
 109.590820312 646 l 2
 111.340820312 655 117.310546875 660 126.310546875 660 c 2
 526.310546875 660 l 2x79
 535.310546875 660 539.500976562 661 544.071289062 664 c 2
 550.041015625 669 l 2
 552.430664062 671 555.430664062 671 558.430664062 671 c 0
 562.430664062 671 566.030273438 669 568.049804688 664 c 2x73
 613.919921875 545 l 2
 615.330078125 542 615.75 539 615.360351562 537 c 0
 614.390625 532 610.8203125 529 606.240234375 526 c 2
 589.509765625 517 l 2
 583.919921875 514 581.740234375 513 578.740234375 513 c 0
 574.740234375 513 572.3203125 516 570.30078125 521 c 2
 568.270507812 526 l 2
 537.670898438 600 513.170898438 618 445.170898438 618 c 2
 266.170898438 618 l 1
 218.161132812 371 l 1
 332.161132812 371 l 2
 375.161132812 371 400.041015625 391 407.611328125 430 c 2
 408.78125 436 l 2
 410.53125 445 415.30078125 449 424.30078125 449 c 2
 430.30078125 449 l 2
 439.30078125 449 442.520507812 445 440.770507812 436 c 2
 407.73046875 266 l 2
 405.98046875 257 401.2109375 253 392.2109375 253 c 2
 386.2109375 253 l 2
 377.2109375 253 373.991210938 257 375.741210938 266 c 2
 376.7109375 271 l 2x7880
 384.470703125 311 368.170898438 330 324.170898438 330 c 2
 210.170898438 330 l 1
 170.510742188 126 l 2
 160.030273438 72 185.180664062 42 224.180664062 42 c 2
 299.180664062 42 l 2
 428.180664062 42 476.041015625 67 556.791015625 184 c 2
 560.951171875 190 l 2
 565.30078125 197 572.880859375 200 580.890625 195 c 2
 593.530273438 188 l 2x79
EndSplineSet
Substitution2: "'ss04' Style Set 4 in Latin lookup 33 subtable" u1F154
Substitution2: "'ss03' Style Set 3 in Latin lookup 31 subtable" uni24BA
Substitution2: "'c2sc' Capitals to Small Capitals in Latin lookup 11 subtable" E.sc
AlternateSubs2: "'aalt' Access All Alternates in Latin lookup 0 subtable" E.sc uni24BA u1F154
Position2: "'cpsp' Capital Spacing in Latin lookup 0 subtable" dx=5 dy=0 dh=10 dv=0
EndChar

StartChar: Eacute
Encoding: 201 201 50
Width: 624
GlyphClass: 2
Flags: MW
HStem: 0 33<-6.44922 5.4502 4.4502 5.4502 5.4502 26.9502 4.4502 439.051> 0 42<224.181 299.181 299.181 363.681> 330 41<218.161 324.171 210.171 332.161> 429 20G<424.301 430.301 430.301 434.801> 618 42<266.171 445.171 266.171 266.171> 626 34<126.311 141.711> 651 20G<556.931 560.431>
VStem: -14 629 408.16 32.59
AnchorPoint: "Anchor-6" 459 0 basechar 0
AnchorPoint: "Anchor-5" 466 899 basechar 0
AnchorPoint: "Anchor-4" 267 0 basechar 0
LayerCount: 2
Fore
SplineSet
593.530273438 188 m 2x79
 601.760742188 184 600.80078125 179 595.060546875 170 c 2
 478.240234375 -4 l 2
 475.080078125 -10 470.690429688 -12 466.690429688 -12 c 0
 463.690429688 -12 461.890625 -11 459.291015625 -9 c 2
 456.260742188 -4 l 2
 452.850585938 -1 450.05078125 0 439.05078125 0 c 2
 -1.94921875 0 l 2x79
 -10.94921875 0 -15.1591796875 4 -13.4091796875 13 c 2
 -12.0595703125 20 l 2
 -10.509765625 28 -3.5498046875 33 4.4501953125 33 c 2
 5.4501953125 33 l 2
 48.4501953125 33 74.6806640625 60 85.5703125 116 c 2
 168.5703125 543 l 2
 179.260742188 598 163.7109375 626 119.7109375 626 c 0xb5
 111.7109375 626 106.880859375 632 108.430664062 640 c 2
 109.590820312 646 l 2
 111.340820312 655 117.310546875 660 126.310546875 660 c 2
 526.310546875 660 l 2x79
 535.310546875 660 539.500976562 661 544.071289062 664 c 2
 550.041015625 669 l 2
 552.430664062 671 555.430664062 671 558.430664062 671 c 0
 562.430664062 671 566.030273438 669 568.049804688 664 c 2x73
 613.919921875 545 l 2
 615.330078125 542 615.75 539 615.360351562 537 c 0
 614.390625 532 610.8203125 529 606.240234375 526 c 2
 589.509765625 517 l 2
 583.919921875 514 581.740234375 513 578.740234375 513 c 0
 574.740234375 513 572.3203125 516 570.30078125 521 c 2
 568.270507812 526 l 2
 537.670898438 600 513.170898438 618 445.170898438 618 c 2
 266.170898438 618 l 1
 218.161132812 371 l 1
 332.161132812 371 l 2
 375.161132812 371 400.041015625 391 407.611328125 430 c 2
 408.78125 436 l 2
 410.53125 445 415.30078125 449 424.30078125 449 c 2
 430.30078125 449 l 2
 439.30078125 449 442.520507812 445 440.770507812 436 c 2
 407.73046875 266 l 2
 405.98046875 257 401.2109375 253 392.2109375 253 c 2
 386.2109375 253 l 2
 377.2109375 253 373.991210938 257 375.741210938 266 c 2
 376.7109375 271 l 2x7880
 384.470703125 311 368.170898438 330 324.170898438 330 c 2
 210.170898438 330 l 1
 170.510742188 126 l 2
 160.030273438 72 185.180664062 42 224.180664062 42 c 2
 299.180664062 42 l 2
 428.180664062 42 476.041015625 67 556.791015625 184 c 2
 560.951171875 190 l 2
 565.30078125 197 572.880859375 200 580.890625 195 c 2
 593.530273438 188 l 2x79
338.73046875 729.190429688 m 1
 401.030273438 791.390625 416.099609375 810.78125 447.25 858.78125 c 0
 453.530273438 868.451171875 462.470703125 871.44140625 473.220703125 871.44140625 c 0
 500.920898438 871.44140625 508.411132812 857.021484375 503.880859375 833.741210938 c 0
 494.260742188 784.19140625 423.530273438 752.111328125 370.5 721.471679688 c 0
 367.040039062 719.481445312 363.580078125 718.28125 361.099609375 718.55078125 c 0
 358.139648438 718.880859375 353.469726562 721.020507812 347.870117188 724.120117188 c 2
 338.73046875 729.190429688 l 1
EndSplineSet
Substitution2: "'c2sc' Capitals to Small Capitals in Latin lookup 11 subtable" Eacute.sc
AlternateSubs2: "'aalt' Access All Alternates in Latin lookup 0 subtable" Eacute.sc
Position2: "'cpsp' Capital Spacing in Latin lookup 0 subtable" dx=5 dy=0 dh=10 dv=0
EndChar

StartChar: Ebreve
Encoding: 276 276 51
Width: 624
GlyphClass: 2
Flags: MW
HStem: 0 33<-6.44922 5.4502 4.4502 5.4502 5.4502 26.9502 4.4502 439.051> 0 42<224.181 299.181 299.181 363.681> 330 41<218.161 324.171 210.171 332.161> 429 20G<424.301 430.301 430.301 434.801> 618 42<266.171 445.171 266.171 266.171> 626 34<126.311 141.711> 651 20G<556.931 560.431> 711 40.48
VStem: -14 629 408.16 32.59
AnchorPoint: "Anchor-6" 459 0 basechar 0
AnchorPoint: "Anchor-5" 417 814 basechar 0
AnchorPoint: "Anchor-4" 267 0 basechar 0
LayerCount: 2
Fore
SplineSet
593.530273438 188 m 2x7980
 601.760742188 184 600.80078125 179 595.060546875 170 c 2
 478.240234375 -4 l 2
 475.080078125 -10 470.690429688 -12 466.690429688 -12 c 0
 463.690429688 -12 461.890625 -11 459.291015625 -9 c 2
 456.260742188 -4 l 2
 452.850585938 -1 450.05078125 0 439.05078125 0 c 2
 -1.94921875 0 l 2x7980
 -10.94921875 0 -15.1591796875 4 -13.4091796875 13 c 2
 -12.0595703125 20 l 2
 -10.509765625 28 -3.5498046875 33 4.4501953125 33 c 2
 5.4501953125 33 l 2
 48.4501953125 33 74.6806640625 60 85.5703125 116 c 2
 168.5703125 543 l 2
 179.260742188 598 163.7109375 626 119.7109375 626 c 0xb580
 111.7109375 626 106.880859375 632 108.430664062 640 c 2
 109.590820312 646 l 2
 111.340820312 655 117.310546875 660 126.310546875 660 c 2
 526.310546875 660 l 2x7980
 535.310546875 660 539.500976562 661 544.071289062 664 c 2
 550.041015625 669 l 2
 552.430664062 671 555.430664062 671 558.430664062 671 c 0
 562.430664062 671 566.030273438 669 568.049804688 664 c 2x7380
 613.919921875 545 l 2
 615.330078125 542 615.75 539 615.360351562 537 c 0
 614.390625 532 610.8203125 529 606.240234375 526 c 2
 589.509765625 517 l 2
 583.919921875 514 581.740234375 513 578.740234375 513 c 0
 574.740234375 513 572.3203125 516 570.30078125 521 c 2
 568.270507812 526 l 2
 537.670898438 600 513.170898438 618 445.170898438 618 c 2
 266.170898438 618 l 1
 218.161132812 371 l 1
 332.161132812 371 l 2
 375.161132812 371 400.041015625 391 407.611328125 430 c 2
 408.78125 436 l 2
 410.53125 445 415.30078125 449 424.30078125 449 c 2
 430.30078125 449 l 2
 439.30078125 449 442.520507812 445 440.770507812 436 c 2
 407.73046875 266 l 2
 405.98046875 257 401.2109375 253 392.2109375 253 c 2
 386.2109375 253 l 2
 377.2109375 253 373.991210938 257 375.741210938 266 c 2
 376.7109375 271 l 2x7940
 384.470703125 311 368.170898438 330 324.170898438 330 c 2
 210.170898438 330 l 1
 170.510742188 126 l 2
 160.030273438 72 185.180664062 42 224.180664062 42 c 2
 299.180664062 42 l 2
 428.180664062 42 476.041015625 67 556.791015625 184 c 2
 560.951171875 190 l 2
 565.30078125 197 572.880859375 200 580.890625 195 c 2
 593.530273438 188 l 2x7980
397.220703125 711 m 0
 306.220703125 711 288.240234375 778.69140625 294.610351562 811.491210938 c 0
 296.560546875 821.491210938 301.920898438 825.271484375 312.520507812 826.481445312 c 0
 316.640625 826.94140625 328.030273438 827.361328125 335.040039062 828.051757812 c 0
 348.379882812 829.372070312 351.51953125 826.211914062 349.329101562 811.931640625 c 0
 343.729492188 775.451171875 365.309570312 751.44140625 405.099609375 751.44140625 c 0
 444.909179688 751.44140625 475.819335938 775.451171875 484.389648438 811.930664062 c 0
 487.739257812 826.2109375 492.109375 829.37109375 504.939453125 828.05078125 c 0
 511.669921875 827.360351562 522.900390625 826.940429688 526.840820312 826.48046875 c 0
 536.970703125 825.270507812 540.860351562 821.490234375 538.930664062 811.490234375 c 0
 532.55078125 778.690429688 488.220703125 711 397.220703125 711 c 0
EndSplineSet
Substitution2: "'c2sc' Capitals to Small Capitals in Latin lookup 11 subtable" Ebreve.sc
AlternateSubs2: "'aalt' Access All Alternates in Latin lookup 0 subtable" Ebreve.sc
Position2: "'cpsp' Capital Spacing in Latin lookup 0 subtable" dx=5 dy=0 dh=10 dv=0
EndChar

StartChar: Ecaron
Encoding: 282 282 52
Width: 624
GlyphClass: 2
Flags: MW
HStem: 0 33<-6.44922 5.4502 4.4502 5.4502 5.4502 26.9502 4.4502 439.051> 0 42<224.181 299.181 299.181 363.681> 330 41<218.161 324.171 210.171 332.161> 429 20G<424.301 430.301 430.301 434.801> 618 42<266.171 445.171 266.171 266.171> 626 34<126.311 141.711> 651 20G<556.931 560.431>
VStem: -14 629 408.16 32.59
AnchorPoint: "Anchor-6" 459 0 basechar 0
AnchorPoint: "Anchor-5" 430 845 basechar 0
AnchorPoint: "Anchor-4" 267 0 basechar 0
LayerCount: 2
Fore
SplineSet
593.530273438 188 m 2x79
 601.760742188 184 600.80078125 179 595.060546875 170 c 2
 478.240234375 -4 l 2
 475.080078125 -10 470.690429688 -12 466.690429688 -12 c 0
 463.690429688 -12 461.890625 -11 459.291015625 -9 c 2
 456.260742188 -4 l 2
 452.850585938 -1 450.05078125 0 439.05078125 0 c 2
 -1.94921875 0 l 2x79
 -10.94921875 0 -15.1591796875 4 -13.4091796875 13 c 2
 -12.0595703125 20 l 2
 -10.509765625 28 -3.5498046875 33 4.4501953125 33 c 2
 5.4501953125 33 l 2
 48.4501953125 33 74.6806640625 60 85.5703125 116 c 2
 168.5703125 543 l 2
 179.260742188 598 163.7109375 626 119.7109375 626 c 0xb5
 111.7109375 626 106.880859375 632 108.430664062 640 c 2
 109.590820312 646 l 2
 111.340820312 655 117.310546875 660 126.310546875 660 c 2
 526.310546875 660 l 2x79
 535.310546875 660 539.500976562 661 544.071289062 664 c 2
 550.041015625 669 l 2
 552.430664062 671 555.430664062 671 558.430664062 671 c 0
 562.430664062 671 566.030273438 669 568.049804688 664 c 2x73
 613.919921875 545 l 2
 615.330078125 542 615.75 539 615.360351562 537 c 0
 614.390625 532 610.8203125 529 606.240234375 526 c 2
 589.509765625 517 l 2
 583.919921875 514 581.740234375 513 578.740234375 513 c 0
 574.740234375 513 572.3203125 516 570.30078125 521 c 2
 568.270507812 526 l 2
 537.670898438 600 513.170898438 618 445.170898438 618 c 2
 266.170898438 618 l 1
 218.161132812 371 l 1
 332.161132812 371 l 2
 375.161132812 371 400.041015625 391 407.611328125 430 c 2
 408.78125 436 l 2
 410.53125 445 415.30078125 449 424.30078125 449 c 2
 430.30078125 449 l 2
 439.30078125 449 442.520507812 445 440.770507812 436 c 2
 407.73046875 266 l 2
 405.98046875 257 401.2109375 253 392.2109375 253 c 2
 386.2109375 253 l 2
 377.2109375 253 373.991210938 257 375.741210938 266 c 2
 376.7109375 271 l 2x7880
 384.470703125 311 368.170898438 330 324.170898438 330 c 2
 210.170898438 330 l 1
 170.510742188 126 l 2
 160.030273438 72 185.180664062 42 224.180664062 42 c 2
 299.180664062 42 l 2
 428.180664062 42 476.041015625 67 556.791015625 184 c 2
 560.951171875 190 l 2
 565.30078125 197 572.880859375 200 580.890625 195 c 2
 593.530273438 188 l 2x79
410.860351562 785.0703125 m 1
 435.530273438 819.100585938 473.561523438 857.3203125 513.161132812 857.3203125 c 0
 533.991210938 857.3203125 539.791015625 837.169921875 535.350585938 814.25 c 0
 533.3203125 803.83984375 530.879882812 794.799804688 522.559570312 791.33984375 c 0
 479.299804688 776.059570312 456.4296875 765.639648438 399.41015625 726.049804688 c 1
 357.780273438 765.639648438 338.959960938 776.059570312 301.639648438 791.33984375 c 0
 294.6796875 794.799804688 295.729492188 803.83984375 297.759765625 814.25 c 0
 302.200195312 837.169921875 315.83984375 857.3203125 336.669921875 857.3203125 c 0
 376.280273438 857.3203125 399.41015625 819.100585938 410.860351562 785.0703125 c 1
EndSplineSet
Substitution2: "'c2sc' Capitals to Small Capitals in Latin lookup 11 subtable" Ecaron.sc
AlternateSubs2: "'aalt' Access All Alternates in Latin lookup 0 subtable" Ecaron.sc
Position2: "'cpsp' Capital Spacing in Latin lookup 0 subtable" dx=5 dy=0 dh=10 dv=0
EndChar

StartChar: uni1E1C
Encoding: 7708 7708 53
Width: 624
GlyphClass: 2
Flags: MW
HStem: -225 40.24 -81.56 35.57 1.52588e-05 33 1.52588e-05 42 330 41 429 20G 618 42 626 34 651 20G 711 40.48
VStem: 309.66 48.34 408.16 32.59
AnchorPoint: "Anchor-6" 459 0 basechar 0
AnchorPoint: "Anchor-5" 417 814 basechar 0
AnchorPoint: "Anchor-4" 267 0 basechar 0
LayerCount: 2
Fore
SplineSet
593.530273438 188 m 1xde70
 593.58984375 188.040039062 l 1
 601.8203125 184.040039062 600.83984375 179.040039062 595.099609375 170.040039062 c 2
 478.279296875 -3.9599609375 l 2
 475.119140625 -9.9599609375 470.729492188 -11.9599609375 466.729492188 -11.9599609375 c 0
 463.729492188 -11.9599609375 461.9296875 -10.9599609375 459.330078125 -8.9599609375 c 2
 456.299804688 -3.9599609375 l 2
 452.889648438 -0.9599609375 450.08984375 0.0400390625 439.08984375 0.0400390625 c 2
 286.870117188 0.0400390625 l 1
 231.799804688 -52.9599609375 l 1
 245.759765625 -47.9599609375 260.149414062 -45.9599609375 274.149414062 -45.9599609375 c 0
 320.149414062 -45.9599609375 368.08984375 -71.9599609375 355.83984375 -134.959960938 c 0
 345.740234375 -186.959960938 292.350585938 -224.959960938 224.350585938 -224.959960938 c 0
 197.350585938 -224.959960938 168.340820312 -219.959960938 139.860351562 -206.959960938 c 0
 124.220703125 -199.959960938 123.350585938 -199.360351562 127.740234375 -176.740234375 c 0
 129.290039062 -168.75 132.98046875 -163.4296875 138.30078125 -163.4296875 c 0
 142.30078125 -163.4296875 145.80078125 -165.149414062 148.440429688 -166.079101562 c 0
 174.580078125 -175.399414062 201.360351562 -184.719726562 234.640625 -184.719726562 c 0
 276.581054688 -184.719726562 304.291015625 -165.399414062 309.7109375 -137.439453125 c 0
 317.470703125 -97.51953125 283.310546875 -81.5390625 231.400390625 -81.5390625 c 0
 217.440429688 -81.5390625 194.030273438 -85.5390625 182.73046875 -85.5390625 c 0
 176.090820312 -85.5390625 172.87109375 -81.5390625 173.911132812 -76.2294921875 c 0
 174.670898438 -72.2392578125 174.7109375 -69.1396484375 178.62109375 -65.58984375 c 2
 250.55078125 0 l 1
 -1.94921875 0 l 2xde70
 -10.94921875 0 -15.1591796875 4 -13.4091796875 13 c 2
 -12.0595703125 20 l 2
 -10.509765625 28 -3.5498046875 33 4.4501953125 33 c 2
 5.4501953125 33 l 2
 48.4501953125 33 74.6806640625 60 85.5703125 116 c 2
 168.5703125 543 l 2
 179.260742188 598 163.7109375 626 119.7109375 626 c 0xed70
 111.7109375 626 106.880859375 632 108.430664062 640 c 2
 109.590820312 646 l 2
 111.340820312 655 117.310546875 660 126.310546875 660 c 2
 526.310546875 660 l 2xde70
 535.310546875 660 539.500976562 661 544.071289062 664 c 2
 550.041015625 669 l 2
 552.430664062 671 555.430664062 671 558.430664062 671 c 0
 562.430664062 671 566.030273438 669 568.049804688 664 c 2xdcf0
 613.919921875 545 l 2
 615.330078125 542 615.75 539 615.360351562 537 c 0
 614.390625 532 610.8203125 529 606.240234375 526 c 2
 589.509765625 517 l 2
 583.919921875 514 581.740234375 513 578.740234375 513 c 0
 574.740234375 513 572.3203125 516 570.30078125 521 c 2
 568.270507812 526 l 2
 537.670898438 600 513.170898438 618 445.170898438 618 c 2
 266.170898438 618 l 1
 218.161132812 371 l 1
 332.161132812 371 l 2
 375.161132812 371 400.041015625 391 407.611328125 430 c 2
 408.78125 436 l 2
 410.53125 445 415.30078125 449 424.30078125 449 c 2
 430.30078125 449 l 2
 439.30078125 449 442.520507812 445 440.770507812 436 c 2
 407.73046875 266 l 2
 405.98046875 257 401.2109375 253 392.2109375 253 c 2
 386.2109375 253 l 2
 377.2109375 253 373.991210938 257 375.741210938 266 c 2
 376.7109375 271 l 2
 384.470703125 311 368.170898438 330 324.170898438 330 c 2
 210.170898438 330 l 1
 170.510742188 126 l 2
 160.030273438 72 185.180664062 42 224.180664062 42 c 2
 299.180664062 42 l 2
 428.180664062 42 476.041015625 67 556.791015625 184 c 2
 560.951171875 190 l 2
 565.30078125 197 572.880859375 200 580.890625 195 c 2
 593.530273438 188 l 1xde70
397.259765625 711.040039062 m 0
 306.259765625 711.040039062 288.279296875 778.73046875 294.649414062 811.530273438 c 0
 296.599609375 821.530273438 301.959960938 825.310546875 312.559570312 826.520507812 c 0
 316.6796875 826.98046875 328.069335938 827.400390625 335.079101562 828.090820312 c 0
 348.418945312 829.411132812 351.55859375 826.250976562 349.368164062 811.970703125 c 0
 343.768554688 775.490234375 365.348632812 751.48046875 405.138671875 751.48046875 c 0
 444.948242188 751.48046875 475.858398438 775.490234375 484.428710938 811.970703125 c 0
 487.778320312 826.250976562 492.1484375 829.411132812 504.978515625 828.090820312 c 0
 511.708984375 827.400390625 522.939453125 826.98046875 526.879882812 826.520507812 c 0
 537.009765625 825.310546875 540.899414062 821.530273438 538.969726562 811.530273438 c 0
 532.58984375 778.73046875 488.259765625 711.040039062 397.259765625 711.040039062 c 0
EndSplineSet
Substitution2: "'c2sc' Capitals to Small Capitals in Latin lookup 11 subtable" uni1E1C.sc
AlternateSubs2: "'aalt' Access All Alternates in Latin lookup 0 subtable" uni1E1C.sc
Position2: "'cpsp' Capital Spacing in Latin lookup 0 subtable" dx=5 dy=0 dh=10 dv=0
EndChar

StartChar: Ecircumflex
Encoding: 202 202 54
Width: 624
GlyphClass: 2
Flags: MW
HStem: 0 33<-6.44922 5.4502 4.4502 5.4502 5.4502 26.9502 4.4502 439.051> 0 42<224.181 299.181 299.181 363.681> 330 41<218.161 324.171 210.171 332.161> 429 20G<424.301 430.301 430.301 434.801> 618 42<266.171 445.171 266.171 266.171> 626 34<126.311 141.711> 651 20G<556.931 560.431>
VStem: -14 629 408.16 32.59
AnchorPoint: "Anchor-7" 403 742 basechar 0
AnchorPoint: "Anchor-6" 459 0 basechar 0
AnchorPoint: "Anchor-5" 414 799 basechar 0
AnchorPoint: "Anchor-4" 267 0 basechar 0
LayerCount: 2
Fore
SplineSet
593.530273438 188 m 2x79
 601.760742188 184 600.80078125 179 595.060546875 170 c 2
 478.240234375 -4 l 2
 475.080078125 -10 470.690429688 -12 466.690429688 -12 c 0
 463.690429688 -12 461.890625 -11 459.291015625 -9 c 2
 456.260742188 -4 l 2
 452.850585938 -1 450.05078125 0 439.05078125 0 c 2
 -1.94921875 0 l 2x79
 -10.94921875 0 -15.1591796875 4 -13.4091796875 13 c 2
 -12.0595703125 20 l 2
 -10.509765625 28 -3.5498046875 33 4.4501953125 33 c 2
 5.4501953125 33 l 2
 48.4501953125 33 74.6806640625 60 85.5703125 116 c 2
 168.5703125 543 l 2
 179.260742188 598 163.7109375 626 119.7109375 626 c 0xb5
 111.7109375 626 106.880859375 632 108.430664062 640 c 2
 109.590820312 646 l 2
 111.340820312 655 117.310546875 660 126.310546875 660 c 2
 526.310546875 660 l 2x79
 535.310546875 660 539.500976562 661 544.071289062 664 c 2
 550.041015625 669 l 2
 552.430664062 671 555.430664062 671 558.430664062 671 c 0
 562.430664062 671 566.030273438 669 568.049804688 664 c 2x73
 613.919921875 545 l 2
 615.330078125 542 615.75 539 615.360351562 537 c 0
 614.390625 532 610.8203125 529 606.240234375 526 c 2
 589.509765625 517 l 2
 583.919921875 514 581.740234375 513 578.740234375 513 c 0
 574.740234375 513 572.3203125 516 570.30078125 521 c 2
 568.270507812 526 l 2
 537.670898438 600 513.170898438 618 445.170898438 618 c 2
 266.170898438 618 l 1
 218.161132812 371 l 1
 332.161132812 371 l 2
 375.161132812 371 400.041015625 391 407.611328125 430 c 2
 408.78125 436 l 2
 410.53125 445 415.30078125 449 424.30078125 449 c 2
 430.30078125 449 l 2
 439.30078125 449 442.520507812 445 440.770507812 436 c 2
 407.73046875 266 l 2
 405.98046875 257 401.2109375 253 392.2109375 253 c 2
 386.2109375 253 l 2
 377.2109375 253 373.991210938 257 375.741210938 266 c 2
 376.7109375 271 l 2x7880
 384.470703125 311 368.170898438 330 324.170898438 330 c 2
 210.170898438 330 l 1
 170.510742188 126 l 2
 160.030273438 72 185.180664062 42 224.180664062 42 c 2
 299.180664062 42 l 2
 428.180664062 42 476.041015625 67 556.791015625 184 c 2
 560.951171875 190 l 2
 565.30078125 197 572.880859375 200 580.890625 195 c 2
 593.530273438 188 l 2x79
412.560546875 789.91015625 m 1
 387.880859375 755.879882812 349.877929688 717.66015625 310.278320312 717.66015625 c 0
 289.428710938 717.66015625 283.62890625 737.810546875 288.088867188 760.73046875 c 0
 290.119140625 771.140625 292.559570312 780.180664062 300.859375 783.640625 c 0
 344.139648438 798.920898438 367.009765625 809.340820312 424.029296875 848.930664062 c 1
 465.649414062 809.340820312 484.469726562 798.920898438 521.799804688 783.640625 c 0
 528.759765625 780.180664062 527.689453125 771.140625 525.6796875 760.73046875 c 0
 521.219726562 737.810546875 507.58984375 717.66015625 486.740234375 717.66015625 c 0
 447.140625 717.66015625 424.000976562 755.879882812 412.560546875 789.91015625 c 1
EndSplineSet
Substitution2: "'c2sc' Capitals to Small Capitals in Latin lookup 11 subtable" Ecircumflex.sc
AlternateSubs2: "'aalt' Access All Alternates in Latin lookup 0 subtable" Ecircumflex.sc
Position2: "'cpsp' Capital Spacing in Latin lookup 0 subtable" dx=5 dy=0 dh=10 dv=0
EndChar

StartChar: uni1EBE
Encoding: 7870 7870 55
Width: 624
GlyphClass: 2
Flags: MW
HStem: 0 33<-6.44922 5.4502 4.4502 5.4502 5.4502 26.9502 4.4502 439.051> 0 42<224.181 299.181 299.181 363.681> 330 41<218.161 324.171 210.171 332.161> 429 20G<424.301 430.301 430.301 434.801> 618 42<266.171 445.171 266.171 266.171> 626 34<126.311 141.711> 651 20G<556.931 560.431>
VStem: -14 679 408.16 32.59
AnchorPoint: "Anchor-7" 626 991 basechar 0
AnchorPoint: "Anchor-6" 459 0 basechar 0
AnchorPoint: "Anchor-5" 414 799 basechar 0
AnchorPoint: "Anchor-4" 267 0 basechar 0
LayerCount: 2
Fore
SplineSet
593.530273438 188 m 2x79
 601.760742188 184 600.80078125 179 595.060546875 170 c 2
 478.240234375 -4 l 2
 475.080078125 -10 470.690429688 -12 466.690429688 -12 c 0
 463.690429688 -12 461.890625 -11 459.291015625 -9 c 2
 456.260742188 -4 l 2
 452.850585938 -1 450.05078125 0 439.05078125 0 c 2
 -1.94921875 0 l 2x79
 -10.94921875 0 -15.1591796875 4 -13.4091796875 13 c 2
 -12.0595703125 20 l 2
 -10.509765625 28 -3.5498046875 33 4.4501953125 33 c 2
 5.4501953125 33 l 2
 48.4501953125 33 74.6806640625 60 85.5703125 116 c 2
 168.5703125 543 l 2
 179.260742188 598 163.7109375 626 119.7109375 626 c 0xb5
 111.7109375 626 106.880859375 632 108.430664062 640 c 2
 109.590820312 646 l 2
 111.340820312 655 117.310546875 660 126.310546875 660 c 2
 526.310546875 660 l 2x79
 535.310546875 660 539.500976562 661 544.071289062 664 c 2
 550.041015625 669 l 2
 552.430664062 671 555.430664062 671 558.430664062 671 c 0
 562.430664062 671 566.030273438 669 568.049804688 664 c 2x73
 613.919921875 545 l 2
 615.330078125 542 615.75 539 615.360351562 537 c 0
 614.390625 532 610.8203125 529 606.240234375 526 c 2
 589.509765625 517 l 2
 583.919921875 514 581.740234375 513 578.740234375 513 c 0
 574.740234375 513 572.3203125 516 570.30078125 521 c 2
 568.270507812 526 l 2
 537.670898438 600 513.170898438 618 445.170898438 618 c 2
 266.170898438 618 l 1
 218.161132812 371 l 1
 332.161132812 371 l 2
 375.161132812 371 400.041015625 391 407.611328125 430 c 2
 408.78125 436 l 2
 410.53125 445 415.30078125 449 424.30078125 449 c 2
 430.30078125 449 l 2
 439.30078125 449 442.520507812 445 440.770507812 436 c 2
 407.73046875 266 l 2
 405.98046875 257 401.2109375 253 392.2109375 253 c 2
 386.2109375 253 l 2
 377.2109375 253 373.991210938 257 375.741210938 266 c 2
 376.7109375 271 l 2x7880
 384.470703125 311 368.170898438 330 324.170898438 330 c 2
 210.170898438 330 l 1
 170.510742188 126 l 2
 160.030273438 72 185.180664062 42 224.180664062 42 c 2
 299.180664062 42 l 2
 428.180664062 42 476.041015625 67 556.791015625 184 c 2
 560.951171875 190 l 2
 565.30078125 197 572.880859375 200 580.890625 195 c 2
 593.530273438 188 l 2x79
412.560546875 789.91015625 m 1
 387.880859375 755.879882812 349.877929688 717.66015625 310.278320312 717.66015625 c 0
 289.428710938 717.66015625 283.62890625 737.810546875 288.088867188 760.73046875 c 0
 290.119140625 771.140625 292.559570312 780.180664062 300.859375 783.640625 c 0
 344.139648438 798.920898438 367.009765625 809.340820312 424.029296875 848.930664062 c 1
 465.649414062 809.340820312 484.469726562 798.920898438 521.799804688 783.640625 c 0
 528.759765625 780.180664062 527.689453125 771.140625 525.6796875 760.73046875 c 0
 521.219726562 737.810546875 507.58984375 717.66015625 486.740234375 717.66015625 c 0
 447.140625 717.66015625 424.000976562 755.879882812 412.560546875 789.91015625 c 1
498.77734375 820.709960938 m 1
 561.067382812 882.919921875 576.147460938 902.330078125 607.287109375 950.330078125 c 0
 613.567382812 960 622.497070312 962.98046875 633.247070312 962.98046875 c 0
 660.95703125 962.98046875 668.447265625 948.560546875 663.926757812 925.280273438 c 0
 654.296875 875.73046875 583.567382812 843.650390625 530.52734375 813.010742188 c 0
 527.086914062 811.010742188 523.606445312 809.8203125 521.146484375 810.080078125 c 0
 518.186523438 810.400390625 513.516601562 812.560546875 507.916992188 815.66015625 c 2
 498.77734375 820.709960938 l 1
EndSplineSet
Substitution2: "'c2sc' Capitals to Small Capitals in Latin lookup 11 subtable" uni1EBE.sc
AlternateSubs2: "'aalt' Access All Alternates in Latin lookup 0 subtable" uni1EBE.sc
Position2: "'cpsp' Capital Spacing in Latin lookup 0 subtable" dx=5 dy=0 dh=10 dv=0
EndChar

StartChar: uni1EC6
Encoding: 7878 7878 56
Width: 624
GlyphClass: 2
Flags: MW
HStem: 0 33<-6.44922 5.4502 4.4502 5.4502 5.4502 26.9502 4.4502 439.051> 0 42<224.181 299.181 299.181 363.681> 330 41<218.161 324.171 210.171 332.161> 429 20G<424.301 430.301 430.301 434.801> 618 42<266.171 445.171 266.171 266.171> 626 34<126.311 141.711> 651 20G<556.931 560.431>
VStem: -14 629 195.69 114.22 408.16 32.59
AnchorPoint: "Anchor-7" 403 742 basechar 0
AnchorPoint: "Anchor-6" 459 0 basechar 0
AnchorPoint: "Anchor-5" 414 799 basechar 0
AnchorPoint: "Anchor-4" 267 0 basechar 0
LayerCount: 2
Fore
SplineSet
593.530273438 188 m 2x79
 601.760742188 184 600.80078125 179 595.060546875 170 c 2
 478.240234375 -4 l 2
 475.080078125 -10 470.690429688 -12 466.690429688 -12 c 0
 463.690429688 -12 461.890625 -11 459.291015625 -9 c 2
 456.260742188 -4 l 2
 452.850585938 -1 450.05078125 0 439.05078125 0 c 2
 -1.94921875 0 l 2x79
 -10.94921875 0 -15.1591796875 4 -13.4091796875 13 c 2
 -12.0595703125 20 l 2
 -10.509765625 28 -3.5498046875 33 4.4501953125 33 c 2
 5.4501953125 33 l 2
 48.4501953125 33 74.6806640625 60 85.5703125 116 c 2
 168.5703125 543 l 2
 179.260742188 598 163.7109375 626 119.7109375 626 c 0xb5
 111.7109375 626 106.880859375 632 108.430664062 640 c 2
 109.590820312 646 l 2
 111.340820312 655 117.310546875 660 126.310546875 660 c 2
 526.310546875 660 l 2x79
 535.310546875 660 539.500976562 661 544.071289062 664 c 2
 550.041015625 669 l 2
 552.430664062 671 555.430664062 671 558.430664062 671 c 0
 562.430664062 671 566.030273438 669 568.049804688 664 c 2x73
 613.919921875 545 l 2
 615.330078125 542 615.75 539 615.360351562 537 c 0
 614.390625 532 610.8203125 529 606.240234375 526 c 2
 589.509765625 517 l 2
 583.919921875 514 581.740234375 513 578.740234375 513 c 0
 574.740234375 513 572.3203125 516 570.30078125 521 c 2
 568.270507812 526 l 2
 537.670898438 600 513.170898438 618 445.170898438 618 c 2
 266.170898438 618 l 1
 218.161132812 371 l 1
 332.161132812 371 l 2
 375.161132812 371 400.041015625 391 407.611328125 430 c 2
 408.78125 436 l 2
 410.53125 445 415.30078125 449 424.30078125 449 c 2
 430.30078125 449 l 2
 439.30078125 449 442.520507812 445 440.770507812 436 c 2
 407.73046875 266 l 2
 405.98046875 257 401.2109375 253 392.2109375 253 c 2
 386.2109375 253 l 2
 377.2109375 253 373.991210938 257 375.741210938 266 c 2
 376.7109375 271 l 2x7840
 384.470703125 311 368.170898438 330 324.170898438 330 c 2
 210.170898438 330 l 1
 170.510742188 126 l 2
 160.030273438 72 185.180664062 42 224.180664062 42 c 2
 299.180664062 42 l 2
 428.180664062 42 476.041015625 67 556.791015625 184 c 2
 560.951171875 190 l 2
 565.30078125 197 572.880859375 200 580.890625 195 c 2
 593.530273438 188 l 2x79
263.400390625 -57.4296875 m 0x7880
 277.140625 -60.099609375 287.28125 -67.41015625 298.3515625 -83.8203125 c 0
 309.421875 -100.23046875 312.561523438 -111.530273438 309.891601562 -125.270507812 c 0
 307.231445312 -139.000976562 299.041015625 -149.000976562 283.670898438 -159.380859375 c 0
 267.260742188 -170.451171875 255.100585938 -173.420898438 241.360351562 -170.760742188 c 0
 228.490234375 -168.250976562 219.180664062 -161.111328125 207.260742188 -144.53125 c 0
 196.041015625 -128.981445312 193.05078125 -116.821289062 195.720703125 -103.090820312 c 0
 198.390625 -89.3505859375 205.530273438 -80.05078125 221.940429688 -68.98046875 c 0
 238.360351562 -57.91015625 250.520507812 -54.9296875 263.400390625 -57.4296875 c 0x7880
412.541015625 789.9296875 m 1
 387.861328125 755.899414062 349.858398438 717.6796875 310.258789062 717.6796875 c 0
 289.409179688 717.6796875 283.609375 737.830078125 288.069335938 760.75 c 0
 290.099609375 771.16015625 292.540039062 780.200195312 300.83984375 783.66015625 c 0
 344.120117188 798.940429688 366.990234375 809.360351562 424.009765625 848.950195312 c 1
 465.629882812 809.360351562 484.450195312 798.940429688 521.780273438 783.66015625 c 0
 528.740234375 780.200195312 527.669921875 771.16015625 525.66015625 760.75 c 0
 521.200195312 737.830078125 507.5703125 717.6796875 486.720703125 717.6796875 c 0
 447.12109375 717.6796875 423.981445312 755.899414062 412.541015625 789.9296875 c 1
EndSplineSet
Substitution2: "'c2sc' Capitals to Small Capitals in Latin lookup 11 subtable" uni1EC6.sc
AlternateSubs2: "'aalt' Access All Alternates in Latin lookup 0 subtable" uni1EC6.sc
Position2: "'cpsp' Capital Spacing in Latin lookup 0 subtable" dx=5 dy=0 dh=10 dv=0
EndChar

StartChar: uni1EC0
Encoding: 7872 7872 57
Width: 624
GlyphClass: 2
Flags: MW
HStem: 0 33<-6.44922 5.4502 4.4502 5.4502 5.4502 26.9502 4.4502 439.051> 0 42<224.181 299.181 299.181 363.681> 330 41<218.161 324.171 210.171 332.161> 429 20G<424.301 430.301 430.301 434.801> 618 42<266.171 445.171 266.171 266.171> 626 34<126.311 141.711> 651 20G<556.931 560.431>
VStem: -14 629 408.16 32.59
AnchorPoint: "Anchor-7" 314 991 basechar 0
AnchorPoint: "Anchor-6" 459 0 basechar 0
AnchorPoint: "Anchor-5" 414 799 basechar 0
AnchorPoint: "Anchor-4" 267 0 basechar 0
LayerCount: 2
Fore
SplineSet
593.530273438 188 m 2x79
 601.760742188 184 600.80078125 179 595.060546875 170 c 2
 478.240234375 -4 l 2
 475.080078125 -10 470.690429688 -12 466.690429688 -12 c 0
 463.690429688 -12 461.890625 -11 459.291015625 -9 c 2
 456.260742188 -4 l 2
 452.850585938 -1 450.05078125 0 439.05078125 0 c 2
 -1.94921875 0 l 2x79
 -10.94921875 0 -15.1591796875 4 -13.4091796875 13 c 2
 -12.0595703125 20 l 2
 -10.509765625 28 -3.5498046875 33 4.4501953125 33 c 2
 5.4501953125 33 l 2
 48.4501953125 33 74.6806640625 60 85.5703125 116 c 2
 168.5703125 543 l 2
 179.260742188 598 163.7109375 626 119.7109375 626 c 0xb5
 111.7109375 626 106.880859375 632 108.430664062 640 c 2
 109.590820312 646 l 2
 111.340820312 655 117.310546875 660 126.310546875 660 c 2
 526.310546875 660 l 2x79
 535.310546875 660 539.500976562 661 544.071289062 664 c 2
 550.041015625 669 l 2
 552.430664062 671 555.430664062 671 558.430664062 671 c 0
 562.430664062 671 566.030273438 669 568.049804688 664 c 2x73
 613.919921875 545 l 2
 615.330078125 542 615.75 539 615.360351562 537 c 0
 614.390625 532 610.8203125 529 606.240234375 526 c 2
 589.509765625 517 l 2
 583.919921875 514 581.740234375 513 578.740234375 513 c 0
 574.740234375 513 572.3203125 516 570.30078125 521 c 2
 568.270507812 526 l 2
 537.670898438 600 513.170898438 618 445.170898438 618 c 2
 266.170898438 618 l 1
 218.161132812 371 l 1
 332.161132812 371 l 2
 375.161132812 371 400.041015625 391 407.611328125 430 c 2
 408.78125 436 l 2
 410.53125 445 415.30078125 449 424.30078125 449 c 2
 430.30078125 449 l 2
 439.30078125 449 442.520507812 445 440.770507812 436 c 2
 407.73046875 266 l 2
 405.98046875 257 401.2109375 253 392.2109375 253 c 2
 386.2109375 253 l 2
 377.2109375 253 373.991210938 257 375.741210938 266 c 2
 376.7109375 271 l 2x7880
 384.470703125 311 368.170898438 330 324.170898438 330 c 2
 210.170898438 330 l 1
 170.510742188 126 l 2
 160.030273438 72 185.180664062 42 224.180664062 42 c 2
 299.180664062 42 l 2
 428.180664062 42 476.041015625 67 556.791015625 184 c 2
 560.951171875 190 l 2
 565.30078125 197 572.880859375 200 580.890625 195 c 2
 593.530273438 188 l 2x79
412.560546875 789.91015625 m 1
 387.880859375 755.879882812 349.877929688 717.66015625 310.278320312 717.66015625 c 0
 289.428710938 717.66015625 283.62890625 737.810546875 288.088867188 760.73046875 c 0
 290.119140625 771.140625 292.559570312 780.180664062 300.859375 783.640625 c 0
 344.139648438 798.920898438 367.009765625 809.340820312 424.029296875 848.930664062 c 1
 465.649414062 809.340820312 484.469726562 798.920898438 521.799804688 783.640625 c 0
 528.759765625 780.180664062 527.689453125 771.140625 525.6796875 760.73046875 c 0
 521.219726562 737.810546875 507.58984375 717.66015625 486.740234375 717.66015625 c 0
 447.140625 717.66015625 424.000976562 755.879882812 412.560546875 789.91015625 c 1
327.1171875 815.66015625 m 2
 321.52734375 812.560546875 316.828125 810.390625 313.868164062 810.0703125 c 0
 311.408203125 809.810546875 307.927734375 811.000976562 304.487304688 813.000976562 c 0
 251.4375 843.640625 180.70703125 875.720703125 171.086914062 925.270507812 c 0
 166.556640625 948.55078125 174.046875 962.970703125 201.747070312 962.970703125 c 0
 212.506835938 962.970703125 221.436523438 959.990234375 227.716796875 950.3203125 c 0
 258.8671875 902.3203125 273.95703125 882.919921875 336.256835938 820.709960938 c 1
 327.1171875 815.66015625 l 2
EndSplineSet
Substitution2: "'c2sc' Capitals to Small Capitals in Latin lookup 11 subtable" uni1EC0.sc
AlternateSubs2: "'aalt' Access All Alternates in Latin lookup 0 subtable" uni1EC0.sc
Position2: "'cpsp' Capital Spacing in Latin lookup 0 subtable" dx=5 dy=0 dh=10 dv=0
EndChar

StartChar: uni1EC2
Encoding: 7874 7874 58
Width: 624
GlyphClass: 2
Flags: MW
HStem: 0 33<-6.44922 5.4502 4.4502 5.4502 5.4502 26.9502 4.4502 439.051> 0 42<224.181 299.181 299.181 363.681> 330 41<218.161 324.171 210.171 332.161> 429 20G<424.301 430.301 430.301 434.801> 618 42<266.171 445.171 266.171 266.171> 626 34<126.311 141.711> 651 20G<556.931 560.431> 903.94 56.6
VStem: 408.16 32.59 465 114.69 530.39 49.3
AnchorPoint: "Anchor-7" 547 1038 basechar 0
AnchorPoint: "Anchor-6" 459 0 basechar 0
AnchorPoint: "Anchor-5" 414 799 basechar 0
AnchorPoint: "Anchor-4" 267 0 basechar 0
LayerCount: 2
Fore
SplineSet
593.530273438 188 m 2x7940
 601.760742188 184 600.80078125 179 595.060546875 170 c 2
 478.240234375 -4 l 2
 475.080078125 -10 470.690429688 -12 466.690429688 -12 c 0
 463.690429688 -12 461.890625 -11 459.291015625 -9 c 2
 456.260742188 -4 l 2
 452.850585938 -1 450.05078125 0 439.05078125 0 c 2
 -1.94921875 0 l 2x7940
 -10.94921875 0 -15.1591796875 4 -13.4091796875 13 c 2
 -12.0595703125 20 l 2
 -10.509765625 28 -3.5498046875 33 4.4501953125 33 c 2
 5.4501953125 33 l 2
 48.4501953125 33 74.6806640625 60 85.5703125 116 c 2
 168.5703125 543 l 2
 179.260742188 598 163.7109375 626 119.7109375 626 c 0xb540
 111.7109375 626 106.880859375 632 108.430664062 640 c 2
 109.590820312 646 l 2
 111.340820312 655 117.310546875 660 126.310546875 660 c 2
 526.310546875 660 l 2x7940
 535.310546875 660 539.500976562 661 544.071289062 664 c 2
 550.041015625 669 l 2
 552.430664062 671 555.430664062 671 558.430664062 671 c 0
 562.430664062 671 566.030273438 669 568.049804688 664 c 2x7340
 613.919921875 545 l 2
 615.330078125 542 615.75 539 615.360351562 537 c 0
 614.390625 532 610.8203125 529 606.240234375 526 c 2
 589.509765625 517 l 2
 583.919921875 514 581.740234375 513 578.740234375 513 c 0
 574.740234375 513 572.3203125 516 570.30078125 521 c 2
 568.270507812 526 l 2
 537.670898438 600 513.170898438 618 445.170898438 618 c 2
 266.170898438 618 l 1
 218.161132812 371 l 1
 332.161132812 371 l 2
 375.161132812 371 400.041015625 391 407.611328125 430 c 2
 408.78125 436 l 2
 410.53125 445 415.30078125 449 424.30078125 449 c 2
 430.30078125 449 l 2
 439.30078125 449 442.520507812 445 440.770507812 436 c 2
 407.73046875 266 l 2
 405.98046875 257 401.2109375 253 392.2109375 253 c 2
 386.2109375 253 l 2
 377.2109375 253 373.991210938 257 375.741210938 266 c 2
 376.7109375 271 l 2x79c0
 384.470703125 311 368.170898438 330 324.170898438 330 c 2
 210.170898438 330 l 1
 170.510742188 126 l 2
 160.030273438 72 185.180664062 42 224.180664062 42 c 2
 299.180664062 42 l 2
 428.180664062 42 476.041015625 67 556.791015625 184 c 2
 560.951171875 190 l 2
 565.30078125 197 572.880859375 200 580.890625 195 c 2
 593.530273438 188 l 2x7940
412.560546875 789.91015625 m 1
 387.880859375 755.879882812 349.877929688 717.66015625 310.278320312 717.66015625 c 0
 289.428710938 717.66015625 283.62890625 737.810546875 288.088867188 760.73046875 c 0
 290.119140625 771.140625 292.559570312 780.180664062 300.859375 783.640625 c 0
 344.139648438 798.920898438 367.009765625 809.340820312 424.029296875 848.930664062 c 1
 465.649414062 809.340820312 484.469726562 798.920898438 521.799804688 783.640625 c 0
 528.759765625 780.180664062 527.689453125 771.140625 525.6796875 760.73046875 c 0
 521.219726562 737.810546875 507.58984375 717.66015625 486.740234375 717.66015625 c 0
 447.140625 717.66015625 424.000976562 755.879882812 412.560546875 789.91015625 c 1
527.287109375 813.390625 m 0
 519.02734375 804.791015625 493.9453125 825.013671875 498.46484375 830.973632812 c 0
 509.575195312 845.633789062 526.575195312 860.2734375 530.365234375 879.833007812 c 0
 533.53515625 896.193359375 523.615234375 903.922851562 509.28515625 903.922851562 c 0x7920
 491.71484375 903.922851562 477.354492188 890.262695312 474.934570312 896.762695312 c 0
 470.544921875 908.522460938 461.334960938 923.202148438 467.275390625 938.051757812 c 0
 470.645507812 946.461914062 496.715820312 960.51171875 525.696289062 960.51171875 c 0
 576.38671875 960.51171875 585.096679688 921.481445312 579.676757812 893.521484375 c 0
 575.126953125 870.081054688 556.006835938 842.831054688 527.287109375 813.390625 c 0
EndSplineSet
Substitution2: "'c2sc' Capitals to Small Capitals in Latin lookup 11 subtable" uni1EC2.sc
AlternateSubs2: "'aalt' Access All Alternates in Latin lookup 0 subtable" uni1EC2.sc
Position2: "'cpsp' Capital Spacing in Latin lookup 0 subtable" dx=5 dy=0 dh=10 dv=0
EndChar

StartChar: uni1EC4
Encoding: 7876 7876 59
Width: 624
GlyphClass: 2
Flags: MW
HStem: 0 33<-6.44922 5.4502 4.4502 5.4502 5.4502 26.9502 4.4502 439.051> 0 42<224.181 299.181 299.181 363.681> 330 41<218.161 324.171 210.171 332.161> 429 20G<424.301 430.301 430.301 434.801> 618 42<266.171 445.171 266.171 266.171> 626 34<126.311 141.711> 651 20G<556.931 560.431> 868.44 42 952.44 41
VStem: 300.33 47.8 408.16 32.59 532.63 46.76
AnchorPoint: "Anchor-7" 403 742 basechar 0
AnchorPoint: "Anchor-6" 459 0 basechar 0
AnchorPoint: "Anchor-5" 450 984 basechar 0
AnchorPoint: "Anchor-4" 267 0 basechar 0
LayerCount: 2
Fore
SplineSet
593.530273438 188 m 2x79f0
 601.760742188 184 600.80078125 179 595.060546875 170 c 2
 478.240234375 -4 l 2
 475.080078125 -10 470.690429688 -12 466.690429688 -12 c 0
 463.690429688 -12 461.890625 -11 459.291015625 -9 c 2
 456.260742188 -4 l 2
 452.850585938 -1 450.05078125 0 439.05078125 0 c 2
 -1.94921875 0 l 2x79f0
 -10.94921875 0 -15.1591796875 4 -13.4091796875 13 c 2
 -12.0595703125 20 l 2
 -10.509765625 28 -3.5498046875 33 4.4501953125 33 c 2
 5.4501953125 33 l 2
 48.4501953125 33 74.6806640625 60 85.5703125 116 c 2
 168.5703125 543 l 2
 179.260742188 598 163.7109375 626 119.7109375 626 c 0xb5f0
 111.7109375 626 106.880859375 632 108.430664062 640 c 2
 109.590820312 646 l 2
 111.340820312 655 117.310546875 660 126.310546875 660 c 2
 526.310546875 660 l 2x79f0
 535.310546875 660 539.500976562 661 544.071289062 664 c 2
 550.041015625 669 l 2
 552.430664062 671 555.430664062 671 558.430664062 671 c 0
 562.430664062 671 566.030273438 669 568.049804688 664 c 2x73f0
 613.919921875 545 l 2
 615.330078125 542 615.75 539 615.360351562 537 c 0
 614.390625 532 610.8203125 529 606.240234375 526 c 2
 589.509765625 517 l 2
 583.919921875 514 581.740234375 513 578.740234375 513 c 0
 574.740234375 513 572.3203125 516 570.30078125 521 c 2
 568.270507812 526 l 2
 537.670898438 600 513.170898438 618 445.170898438 618 c 2
 266.170898438 618 l 1
 218.161132812 371 l 1
 332.161132812 371 l 2
 375.161132812 371 400.041015625 391 407.611328125 430 c 2
 408.78125 436 l 2
 410.53125 445 415.30078125 449 424.30078125 449 c 2
 430.30078125 449 l 2
 439.30078125 449 442.520507812 445 440.770507812 436 c 2
 407.73046875 266 l 2
 405.98046875 257 401.2109375 253 392.2109375 253 c 2
 386.2109375 253 l 2
 377.2109375 253 373.991210938 257 375.741210938 266 c 2
 376.7109375 271 l 2
 384.470703125 311 368.170898438 330 324.170898438 330 c 2
 210.170898438 330 l 1
 170.510742188 126 l 2
 160.030273438 72 185.180664062 42 224.180664062 42 c 2
 299.180664062 42 l 2
 428.180664062 42 476.041015625 67 556.791015625 184 c 2
 560.951171875 190 l 2
 565.30078125 197 572.880859375 200 580.890625 195 c 2
 593.530273438 188 l 2x79f0
412.560546875 789.91015625 m 1
 387.880859375 755.879882812 349.877929688 717.66015625 310.278320312 717.66015625 c 0
 289.428710938 717.66015625 283.62890625 737.810546875 288.088867188 760.73046875 c 0
 290.119140625 771.140625 292.559570312 780.180664062 300.859375 783.640625 c 0
 344.139648438 798.920898438 367.009765625 809.340820312 424.029296875 848.930664062 c 1
 465.649414062 809.340820312 484.469726562 798.920898438 521.799804688 783.640625 c 0
 528.759765625 780.180664062 527.689453125 771.140625 525.6796875 760.73046875 c 0
 521.219726562 737.810546875 507.58984375 717.66015625 486.740234375 717.66015625 c 0
 447.140625 717.66015625 424.000976562 755.879882812 412.560546875 789.91015625 c 1
456.7578125 942.490234375 m 0
 467.52734375 918.669921875 478.578125 910.4296875 493.978515625 910.4296875 c 0
 513.978515625 910.4296875 530.028320312 926.159179688 534.1484375 947.418945312 c 0
 536.23828125 958.168945312 536.358398438 969.829101562 532.608398438 981.678710938 c 1
 542.248046875 988.478515625 553.66796875 994.408203125 562.2578125 994.408203125 c 0
 575.517578125 994.408203125 584.677734375 970.858398438 579.34765625 943.41796875 c 0
 570.248046875 896.587890625 531.427734375 868.427734375 495.788085938 868.427734375 c 0
 444.578125 868.427734375 432.41796875 895.578125 423.368164062 918.828125 c 0
 414.288085938 943.98828125 402.538085938 952.408203125 387.137695312 952.408203125 c 0
 367.137695312 952.408203125 349.727539062 934.818359375 345.767578125 914.41796875 c 0
 343.59765625 903.278320312 344.197265625 891.638671875 348.137695312 880.088867188 c 1
 338.467773438 873.329101562 326.897460938 867.439453125 317.637695312 867.439453125 c 0
 305.337890625 867.439453125 295.16796875 890.649414062 300.358398438 917.4296875 c 0
 309.638671875 965.139648438 349.368164062 993.419921875 385.127929688 993.419921875 c 0
 435.467773438 993.419921875 448.047851562 964.440429688 456.7578125 942.490234375 c 0
EndSplineSet
Substitution2: "'c2sc' Capitals to Small Capitals in Latin lookup 11 subtable" uni1EC4.sc
AlternateSubs2: "'aalt' Access All Alternates in Latin lookup 0 subtable" uni1EC4.sc
Position2: "'cpsp' Capital Spacing in Latin lookup 0 subtable" dx=5 dy=0 dh=10 dv=0
EndChar

StartChar: uni0204
Encoding: 516 516 60
Width: 624
GlyphClass: 2
Flags: MW
HStem: 0 33<-6.44922 5.4502 4.4502 5.4502 5.4502 26.9502 4.4502 439.051> 0 42<224.181 299.181 299.181 363.681> 330 41<218.161 324.171 210.171 332.161> 429 20G<424.301 430.301 430.301 434.801> 618 42<266.171 445.171 266.171 266.171> 626 34<126.311 141.711> 651 20G<556.931 560.431>
VStem: -14 629 408.16 32.59
AnchorPoint: "Anchor-6" 459 0 basechar 0
AnchorPoint: "Anchor-5" 387 899 basechar 0
AnchorPoint: "Anchor-4" 267 0 basechar 0
LayerCount: 2
Fore
SplineSet
593.530273438 188 m 2x79
 601.760742188 184 600.80078125 179 595.060546875 170 c 2
 478.240234375 -4 l 2
 475.080078125 -10 470.690429688 -12 466.690429688 -12 c 0
 463.690429688 -12 461.890625 -11 459.291015625 -9 c 2
 456.260742188 -4 l 2
 452.850585938 -1 450.05078125 0 439.05078125 0 c 2
 -1.94921875 0 l 2x79
 -10.94921875 0 -15.1591796875 4 -13.4091796875 13 c 2
 -12.0595703125 20 l 2
 -10.509765625 28 -3.5498046875 33 4.4501953125 33 c 2
 5.4501953125 33 l 2
 48.4501953125 33 74.6806640625 60 85.5703125 116 c 2
 168.5703125 543 l 2
 179.260742188 598 163.7109375 626 119.7109375 626 c 0xb5
 111.7109375 626 106.880859375 632 108.430664062 640 c 2
 109.590820312 646 l 2
 111.340820312 655 117.310546875 660 126.310546875 660 c 2
 526.310546875 660 l 2x79
 535.310546875 660 539.500976562 661 544.071289062 664 c 2
 550.041015625 669 l 2
 552.430664062 671 555.430664062 671 558.430664062 671 c 0
 562.430664062 671 566.030273438 669 568.049804688 664 c 2x73
 613.919921875 545 l 2
 615.330078125 542 615.75 539 615.360351562 537 c 0
 614.390625 532 610.8203125 529 606.240234375 526 c 2
 589.509765625 517 l 2
 583.919921875 514 581.740234375 513 578.740234375 513 c 0
 574.740234375 513 572.3203125 516 570.30078125 521 c 2
 568.270507812 526 l 2
 537.670898438 600 513.170898438 618 445.170898438 618 c 2
 266.170898438 618 l 1
 218.161132812 371 l 1
 332.161132812 371 l 2
 375.161132812 371 400.041015625 391 407.611328125 430 c 2
 408.78125 436 l 2
 410.53125 445 415.30078125 449 424.30078125 449 c 2
 430.30078125 449 l 2
 439.30078125 449 442.520507812 445 440.770507812 436 c 2
 407.73046875 266 l 2
 405.98046875 257 401.2109375 253 392.2109375 253 c 2
 386.2109375 253 l 2
 377.2109375 253 373.991210938 257 375.741210938 266 c 2
 376.7109375 271 l 2x7880
 384.470703125 311 368.170898438 330 324.170898438 330 c 2
 210.170898438 330 l 1
 170.510742188 126 l 2
 160.030273438 72 185.180664062 42 224.180664062 42 c 2
 299.180664062 42 l 2
 428.180664062 42 476.041015625 67 556.791015625 184 c 2
 560.951171875 190 l 2
 565.30078125 197 572.880859375 200 580.890625 195 c 2
 593.530273438 188 l 2x79
577.201171875 724.120117188 m 2
 571.6015625 721.020507812 566.900390625 718.879882812 563.940429688 718.549804688 c 0
 561.470703125 718.280273438 557.990234375 719.48046875 554.549804688 721.470703125 c 0
 501.51953125 752.110351562 430.790039062 784.190429688 421.150390625 833.740234375 c 0
 416.640625 857.020507812 424.130859375 871.440429688 451.831054688 871.440429688 c 0
 462.581054688 871.440429688 471.521484375 868.450195312 477.801757812 858.780273438 c 0
 508.94140625 810.780273438 524.041015625 791.390625 586.340820312 729.190429688 c 1
 577.201171875 724.120117188 l 2
404.559570312 724.119140625 m 2
 398.969726562 721.01953125 394.279296875 718.87890625 391.309570312 718.548828125 c 0
 388.83984375 718.279296875 385.370117188 719.479492188 381.9296875 721.469726562 c 0
 328.879882812 752.109375 258.149414062 784.189453125 248.529296875 833.739257812 c 0
 243.999023438 857.01953125 251.489257812 871.439453125 279.19921875 871.439453125 c 0
 289.94921875 871.439453125 298.889648438 868.44921875 305.159179688 858.779296875 c 0
 336.309570312 810.779296875 351.399414062 791.389648438 413.69921875 729.189453125 c 1
 404.559570312 724.119140625 l 2
EndSplineSet
Substitution2: "'c2sc' Capitals to Small Capitals in Latin lookup 11 subtable" uni0204.sc
AlternateSubs2: "'aalt' Access All Alternates in Latin lookup 0 subtable" uni0204.sc
Position2: "'cpsp' Capital Spacing in Latin lookup 0 subtable" dx=5 dy=0 dh=10 dv=0
EndChar

StartChar: Edieresis
Encoding: 203 203 61
Width: 624
GlyphClass: 2
Flags: MW
HStem: 0 33<-6.44922 5.4502 4.4502 5.4502 5.4502 26.9502 4.4502 439.051> 0 42<224.181 299.181 299.181 363.681> 330 41<218.161 324.171 210.171 332.161> 429 20G<424.301 430.301 430.301 434.801> 618 42<266.171 445.171 266.171 266.171> 626 34<126.311 141.711> 651 20G<556.931 560.431>
VStem: -14 629 254.55 114.23 408.16 32.59 459.55 114.23
AnchorPoint: "Anchor-6" 459 0 basechar 0
AnchorPoint: "Anchor-5" 423 845 basechar 0
AnchorPoint: "Anchor-4" 267 0 basechar 0
LayerCount: 2
Fore
SplineSet
593.530273438 188 m 2x79
 601.760742188 184 600.80078125 179 595.060546875 170 c 2
 478.240234375 -4 l 2
 475.080078125 -10 470.690429688 -12 466.690429688 -12 c 0
 463.690429688 -12 461.890625 -11 459.291015625 -9 c 2
 456.260742188 -4 l 2
 452.850585938 -1 450.05078125 0 439.05078125 0 c 2
 -1.94921875 0 l 2x79
 -10.94921875 0 -15.1591796875 4 -13.4091796875 13 c 2
 -12.0595703125 20 l 2
 -10.509765625 28 -3.5498046875 33 4.4501953125 33 c 2
 5.4501953125 33 l 2
 48.4501953125 33 74.6806640625 60 85.5703125 116 c 2
 168.5703125 543 l 2
 179.260742188 598 163.7109375 626 119.7109375 626 c 0xb5
 111.7109375 626 106.880859375 632 108.430664062 640 c 2
 109.590820312 646 l 2
 111.340820312 655 117.310546875 660 126.310546875 660 c 2
 526.310546875 660 l 2x79
 535.310546875 660 539.500976562 661 544.071289062 664 c 2
 550.041015625 669 l 2
 552.430664062 671 555.430664062 671 558.430664062 671 c 0
 562.430664062 671 566.030273438 669 568.049804688 664 c 2x73
 613.919921875 545 l 2
 615.330078125 542 615.75 539 615.360351562 537 c 0
 614.390625 532 610.8203125 529 606.240234375 526 c 2
 589.509765625 517 l 2
 583.919921875 514 581.740234375 513 578.740234375 513 c 0
 574.740234375 513 572.3203125 516 570.30078125 521 c 2
 568.270507812 526 l 2
 537.670898438 600 513.170898438 618 445.170898438 618 c 2
 266.170898438 618 l 1
 218.161132812 371 l 1
 332.161132812 371 l 2
 375.161132812 371 400.041015625 391 407.611328125 430 c 2
 408.78125 436 l 2
 410.53125 445 415.30078125 449 424.30078125 449 c 2
 430.30078125 449 l 2
 439.30078125 449 442.520507812 445 440.770507812 436 c 2
 407.73046875 266 l 2
 405.98046875 257 401.2109375 253 392.2109375 253 c 2
 386.2109375 253 l 2
 377.2109375 253 373.991210938 257 375.741210938 266 c 2
 376.7109375 271 l 2x7840
 384.470703125 311 368.170898438 330 324.170898438 330 c 2
 210.170898438 330 l 1
 170.510742188 126 l 2
 160.030273438 72 185.180664062 42 224.180664062 42 c 2
 299.180664062 42 l 2
 428.180664062 42 476.041015625 67 556.791015625 184 c 2
 560.951171875 190 l 2
 565.30078125 197 572.880859375 200 580.890625 195 c 2
 593.530273438 188 l 2x79
322.270507812 841.759765625 m 0x78a0
 336.020507812 839.08984375 346.150390625 831.779296875 357.220703125 815.369140625 c 0
 368.291015625 798.958984375 371.44140625 787.649414062 368.771484375 773.918945312 c 0
 366.111328125 760.178710938 357.920898438 750.178710938 342.55078125 739.80859375 c 0
 326.140625 728.73828125 313.970703125 725.758789062 300.240234375 728.428710938 c 0
 287.370117188 730.928710938 278.060546875 738.079101562 266.140625 754.649414062 c 0
 254.91015625 770.19921875 251.9296875 782.369140625 254.58984375 796.098632812 c 0
 257.259765625 809.838867188 264.41015625 819.138671875 280.8203125 830.208984375 c 0
 297.23046875 841.279296875 309.390625 844.259765625 322.270507812 841.759765625 c 0x78a0
527.25 841.76953125 m 0
 541 839.099609375 551.12890625 831.788085938 562.19921875 815.377929688 c 0
 573.26953125 798.967773438 576.419921875 787.658203125 573.75 773.928710938 c 0
 571.08984375 760.188476562 562.899414062 750.188476562 547.529296875 739.818359375 c 0
 531.119140625 728.748046875 518.94921875 725.768554688 505.21875 728.438476562 c 0
 492.348632812 730.938476562 483.0390625 738.088867188 471.119140625 754.659179688 c 0
 459.889648438 770.208984375 456.909179688 782.37890625 459.569335938 796.108398438 c 0
 462.239257812 809.848632812 469.389648438 819.1484375 485.799804688 830.21875 c 0
 502.209960938 841.2890625 514.370117188 844.26953125 527.25 841.76953125 c 0
EndSplineSet
Substitution2: "'c2sc' Capitals to Small Capitals in Latin lookup 11 subtable" Edieresis.sc
AlternateSubs2: "'aalt' Access All Alternates in Latin lookup 0 subtable" Edieresis.sc
Position2: "'cpsp' Capital Spacing in Latin lookup 0 subtable" dx=5 dy=0 dh=10 dv=0
EndChar

StartChar: Edotaccent
Encoding: 278 278 62
Width: 624
GlyphClass: 2
Flags: MW
HStem: 0 33<-6.44922 5.4502 4.4502 5.4502 5.4502 26.9502 4.4502 439.051> 0 42<224.181 299.181 299.181 363.681> 330 41<218.161 324.171 210.171 332.161> 429 20G<424.301 430.301 430.301 434.801> 618 42<266.171 445.171 266.171 266.171> 626 34<126.311 141.711> 651 20G<556.931 560.431>
VStem: -14 629 357.15 114.23 408.16 32.59
AnchorPoint: "Anchor-6" 459 0 basechar 0
AnchorPoint: "Anchor-5" 423 845 basechar 0
AnchorPoint: "Anchor-4" 267 0 basechar 0
LayerCount: 2
Fore
SplineSet
593.530273438 188 m 2x79
 601.760742188 184 600.80078125 179 595.060546875 170 c 2
 478.240234375 -4 l 2
 475.080078125 -10 470.690429688 -12 466.690429688 -12 c 0
 463.690429688 -12 461.890625 -11 459.291015625 -9 c 2
 456.260742188 -4 l 2
 452.850585938 -1 450.05078125 0 439.05078125 0 c 2
 -1.94921875 0 l 2x79
 -10.94921875 0 -15.1591796875 4 -13.4091796875 13 c 2
 -12.0595703125 20 l 2
 -10.509765625 28 -3.5498046875 33 4.4501953125 33 c 2
 5.4501953125 33 l 2
 48.4501953125 33 74.6806640625 60 85.5703125 116 c 2
 168.5703125 543 l 2
 179.260742188 598 163.7109375 626 119.7109375 626 c 0xb5
 111.7109375 626 106.880859375 632 108.430664062 640 c 2
 109.590820312 646 l 2
 111.340820312 655 117.310546875 660 126.310546875 660 c 2
 526.310546875 660 l 2x79
 535.310546875 660 539.500976562 661 544.071289062 664 c 2
 550.041015625 669 l 2
 552.430664062 671 555.430664062 671 558.430664062 671 c 0
 562.430664062 671 566.030273438 669 568.049804688 664 c 2x73
 613.919921875 545 l 2
 615.330078125 542 615.75 539 615.360351562 537 c 0
 614.390625 532 610.8203125 529 606.240234375 526 c 2
 589.509765625 517 l 2
 583.919921875 514 581.740234375 513 578.740234375 513 c 0
 574.740234375 513 572.3203125 516 570.30078125 521 c 2
 568.270507812 526 l 2
 537.670898438 600 513.170898438 618 445.170898438 618 c 2
 266.170898438 618 l 1
 218.161132812 371 l 1
 332.161132812 371 l 2
 375.161132812 371 400.041015625 391 407.611328125 430 c 2
 408.78125 436 l 2
 410.53125 445 415.30078125 449 424.30078125 449 c 2
 430.30078125 449 l 2
 439.30078125 449 442.520507812 445 440.770507812 436 c 2
 407.73046875 266 l 2
 405.98046875 257 401.2109375 253 392.2109375 253 c 2
 386.2109375 253 l 2
 377.2109375 253 373.991210938 257 375.741210938 266 c 2
 376.7109375 271 l 2x7840
 384.470703125 311 368.170898438 330 324.170898438 330 c 2
 210.170898438 330 l 1
 170.510742188 126 l 2
 160.030273438 72 185.180664062 42 224.180664062 42 c 2
 299.180664062 42 l 2
 428.180664062 42 476.041015625 67 556.791015625 184 c 2
 560.951171875 190 l 2
 565.30078125 197 572.880859375 200 580.890625 195 c 2
 593.530273438 188 l 2x79
424.860351562 841.759765625 m 0x7880
 438.600585938 839.08984375 448.740234375 831.779296875 459.810546875 815.369140625 c 0
 470.880859375 798.958984375 474.020507812 787.649414062 471.360351562 773.918945312 c 0
 468.690429688 760.178710938 460.520507812 750.178710938 445.140625 739.80859375 c 0
 428.73046875 728.73828125 416.5703125 725.758789062 402.830078125 728.428710938 c 0
 389.950195312 730.928710938 380.650390625 738.079101562 368.73046875 754.649414062 c 0
 357.490234375 770.19921875 354.509765625 782.369140625 357.1796875 796.098632812 c 0
 359.83984375 809.838867188 367 819.138671875 383.41015625 830.208984375 c 0
 399.8203125 841.279296875 411.990234375 844.259765625 424.860351562 841.759765625 c 0x7880
EndSplineSet
Substitution2: "'c2sc' Capitals to Small Capitals in Latin lookup 11 subtable" Edotaccent.sc
AlternateSubs2: "'aalt' Access All Alternates in Latin lookup 0 subtable" Edotaccent.sc
Position2: "'cpsp' Capital Spacing in Latin lookup 0 subtable" dx=5 dy=0 dh=10 dv=0
EndChar

StartChar: uni1EB8
Encoding: 7864 7864 63
Width: 624
GlyphClass: 2
Flags: MW
HStem: 0 33<-6.44922 5.4502 4.4502 5.4502 5.4502 26.9502 4.4502 439.051> 0 42<224.181 299.181 299.181 363.681> 330 41<218.161 324.171 210.171 332.161> 429 20G<424.301 430.301 430.301 434.801> 618 42<266.171 445.171 266.171 266.171> 626 34<126.311 141.711> 651 20G<556.931 560.431>
VStem: -14 629 195.69 114.22 408.16 32.59
AnchorPoint: "Anchor-6" 459 0 basechar 0
AnchorPoint: "Anchor-5" 387 660 basechar 0
AnchorPoint: "Anchor-4" 267 0 basechar 0
LayerCount: 2
Fore
SplineSet
593.530273438 188 m 2x79
 601.760742188 184 600.80078125 179 595.060546875 170 c 2
 478.240234375 -4 l 2
 475.080078125 -10 470.690429688 -12 466.690429688 -12 c 0
 463.690429688 -12 461.890625 -11 459.291015625 -9 c 2
 456.260742188 -4 l 2
 452.850585938 -1 450.05078125 0 439.05078125 0 c 2
 -1.94921875 0 l 2x79
 -10.94921875 0 -15.1591796875 4 -13.4091796875 13 c 2
 -12.0595703125 20 l 2
 -10.509765625 28 -3.5498046875 33 4.4501953125 33 c 2
 5.4501953125 33 l 2
 48.4501953125 33 74.6806640625 60 85.5703125 116 c 2
 168.5703125 543 l 2
 179.260742188 598 163.7109375 626 119.7109375 626 c 0xb5
 111.7109375 626 106.880859375 632 108.430664062 640 c 2
 109.590820312 646 l 2
 111.340820312 655 117.310546875 660 126.310546875 660 c 2
 526.310546875 660 l 2x79
 535.310546875 660 539.500976562 661 544.071289062 664 c 2
 550.041015625 669 l 2
 552.430664062 671 555.430664062 671 558.430664062 671 c 0
 562.430664062 671 566.030273438 669 568.049804688 664 c 2x73
 613.919921875 545 l 2
 615.330078125 542 615.75 539 615.360351562 537 c 0
 614.390625 532 610.8203125 529 606.240234375 526 c 2
 589.509765625 517 l 2
 583.919921875 514 581.740234375 513 578.740234375 513 c 0
 574.740234375 513 572.3203125 516 570.30078125 521 c 2
 568.270507812 526 l 2
 537.670898438 600 513.170898438 618 445.170898438 618 c 2
 266.170898438 618 l 1
 218.161132812 371 l 1
 332.161132812 371 l 2
 375.161132812 371 400.041015625 391 407.611328125 430 c 2
 408.78125 436 l 2
 410.53125 445 415.30078125 449 424.30078125 449 c 2
 430.30078125 449 l 2
 439.30078125 449 442.520507812 445 440.770507812 436 c 2
 407.73046875 266 l 2
 405.98046875 257 401.2109375 253 392.2109375 253 c 2
 386.2109375 253 l 2
 377.2109375 253 373.991210938 257 375.741210938 266 c 2
 376.7109375 271 l 2x7840
 384.470703125 311 368.170898438 330 324.170898438 330 c 2
 210.170898438 330 l 1
 170.510742188 126 l 2
 160.030273438 72 185.180664062 42 224.180664062 42 c 2
 299.180664062 42 l 2
 428.180664062 42 476.041015625 67 556.791015625 184 c 2
 560.951171875 190 l 2
 565.30078125 197 572.880859375 200 580.890625 195 c 2
 593.530273438 188 l 2x79
263.400390625 -57.4296875 m 0x7880
 277.140625 -60.099609375 287.28125 -67.41015625 298.3515625 -83.8203125 c 0
 309.421875 -100.23046875 312.561523438 -111.530273438 309.891601562 -125.270507812 c 0
 307.231445312 -139.000976562 299.041015625 -149.000976562 283.670898438 -159.380859375 c 0
 267.260742188 -170.451171875 255.100585938 -173.420898438 241.360351562 -170.760742188 c 0
 228.490234375 -168.250976562 219.180664062 -161.111328125 207.260742188 -144.53125 c 0
 196.041015625 -128.981445312 193.05078125 -116.821289062 195.720703125 -103.090820312 c 0
 198.390625 -89.3505859375 205.530273438 -80.05078125 221.940429688 -68.98046875 c 0
 238.360351562 -57.91015625 250.520507812 -54.9296875 263.400390625 -57.4296875 c 0x7880
EndSplineSet
Substitution2: "'c2sc' Capitals to Small Capitals in Latin lookup 11 subtable" uni1EB8.sc
AlternateSubs2: "'aalt' Access All Alternates in Latin lookup 0 subtable" uni1EB8.sc
Position2: "'cpsp' Capital Spacing in Latin lookup 0 subtable" dx=5 dy=0 dh=10 dv=0
EndChar

StartChar: Egrave
Encoding: 200 200 64
Width: 624
GlyphClass: 2
Flags: MW
HStem: 0 33<-6.44922 5.4502 4.4502 5.4502 5.4502 26.9502 4.4502 439.051> 0 42<224.181 299.181 299.181 363.681> 330 41<218.161 324.171 210.171 332.161> 429 20G<424.301 430.301 430.301 434.801> 618 42<266.171 445.171 266.171 266.171> 626 34<126.311 141.711> 651 20G<556.931 560.431>
VStem: -14 629 408.16 32.59
AnchorPoint: "Anchor-6" 459 0 basechar 0
AnchorPoint: "Anchor-5" 409 899 basechar 0
AnchorPoint: "Anchor-4" 267 0 basechar 0
LayerCount: 2
Fore
SplineSet
593.530273438 188 m 2x79
 601.760742188 184 600.80078125 179 595.060546875 170 c 2
 478.240234375 -4 l 2
 475.080078125 -10 470.690429688 -12 466.690429688 -12 c 0
 463.690429688 -12 461.890625 -11 459.291015625 -9 c 2
 456.260742188 -4 l 2
 452.850585938 -1 450.05078125 0 439.05078125 0 c 2
 -1.94921875 0 l 2x79
 -10.94921875 0 -15.1591796875 4 -13.4091796875 13 c 2
 -12.0595703125 20 l 2
 -10.509765625 28 -3.5498046875 33 4.4501953125 33 c 2
 5.4501953125 33 l 2
 48.4501953125 33 74.6806640625 60 85.5703125 116 c 2
 168.5703125 543 l 2
 179.260742188 598 163.7109375 626 119.7109375 626 c 0xb5
 111.7109375 626 106.880859375 632 108.430664062 640 c 2
 109.590820312 646 l 2
 111.340820312 655 117.310546875 660 126.310546875 660 c 2
 526.310546875 660 l 2x79
 535.310546875 660 539.500976562 661 544.071289062 664 c 2
 550.041015625 669 l 2
 552.430664062 671 555.430664062 671 558.430664062 671 c 0
 562.430664062 671 566.030273438 669 568.049804688 664 c 2x73
 613.919921875 545 l 2
 615.330078125 542 615.75 539 615.360351562 537 c 0
 614.390625 532 610.8203125 529 606.240234375 526 c 2
 589.509765625 517 l 2
 583.919921875 514 581.740234375 513 578.740234375 513 c 0
 574.740234375 513 572.3203125 516 570.30078125 521 c 2
 568.270507812 526 l 2
 537.670898438 600 513.170898438 618 445.170898438 618 c 2
 266.170898438 618 l 1
 218.161132812 371 l 1
 332.161132812 371 l 2
 375.161132812 371 400.041015625 391 407.611328125 430 c 2
 408.78125 436 l 2
 410.53125 445 415.30078125 449 424.30078125 449 c 2
 430.30078125 449 l 2
 439.30078125 449 442.520507812 445 440.770507812 436 c 2
 407.73046875 266 l 2
 405.98046875 257 401.2109375 253 392.2109375 253 c 2
 386.2109375 253 l 2
 377.2109375 253 373.991210938 257 375.741210938 266 c 2
 376.7109375 271 l 2x7880
 384.470703125 311 368.170898438 330 324.170898438 330 c 2
 210.170898438 330 l 1
 170.510742188 126 l 2
 160.030273438 72 185.180664062 42 224.180664062 42 c 2
 299.180664062 42 l 2
 428.180664062 42 476.041015625 67 556.791015625 184 c 2
 560.951171875 190 l 2
 565.30078125 197 572.880859375 200 580.890625 195 c 2
 593.530273438 188 l 2x79
422.3203125 724.120117188 m 2
 416.720703125 721.020507812 412.03125 718.879882812 409.071289062 718.549804688 c 0
 406.590820312 718.280273438 403.130859375 719.48046875 399.680664062 721.470703125 c 0
 346.640625 752.110351562 275.91015625 784.190429688 266.290039062 833.740234375 c 0
 261.759765625 857.020507812 269.240234375 871.440429688 296.950195312 871.440429688 c 0
 307.700195312 871.440429688 316.640625 868.450195312 322.920898438 858.780273438 c 0
 354.060546875 810.780273438 369.16015625 791.390625 431.459960938 729.190429688 c 1
 422.3203125 724.120117188 l 2
EndSplineSet
Substitution2: "'c2sc' Capitals to Small Capitals in Latin lookup 11 subtable" Egrave.sc
AlternateSubs2: "'aalt' Access All Alternates in Latin lookup 0 subtable" Egrave.sc
Position2: "'cpsp' Capital Spacing in Latin lookup 0 subtable" dx=5 dy=0 dh=10 dv=0
EndChar

StartChar: uni1EBA
Encoding: 7866 7866 65
Width: 624
GlyphClass: 2
Flags: MW
HStem: 0 33<-6.44922 5.4502 4.4502 5.4502 5.4502 26.9502 4.4502 439.051> 0 42<224.181 299.181 299.181 363.681> 330 41<218.161 324.171 210.171 332.161> 429 20G<424.301 430.301 430.301 434.801> 618 42<266.171 445.171 266.171 266.171> 626 34<126.311 141.711> 651 20G<556.931 560.431> 812.4 56.6
VStem: 408.16 32.59 426.6 49.29
AnchorPoint: "Anchor-6" 459 0 basechar 0
AnchorPoint: "Anchor-5" 443 946 basechar 0
AnchorPoint: "Anchor-4" 267 0 basechar 0
LayerCount: 2
Fore
SplineSet
593.530273438 188 m 2x7940
 601.760742188 184 600.80078125 179 595.060546875 170 c 2
 478.240234375 -4 l 2
 475.080078125 -10 470.690429688 -12 466.690429688 -12 c 0
 463.690429688 -12 461.890625 -11 459.291015625 -9 c 2
 456.260742188 -4 l 2
 452.850585938 -1 450.05078125 0 439.05078125 0 c 2
 -1.94921875 0 l 2x7940
 -10.94921875 0 -15.1591796875 4 -13.4091796875 13 c 2
 -12.0595703125 20 l 2
 -10.509765625 28 -3.5498046875 33 4.4501953125 33 c 2
 5.4501953125 33 l 2
 48.4501953125 33 74.6806640625 60 85.5703125 116 c 2
 168.5703125 543 l 2
 179.260742188 598 163.7109375 626 119.7109375 626 c 0xb540
 111.7109375 626 106.880859375 632 108.430664062 640 c 2
 109.590820312 646 l 2
 111.340820312 655 117.310546875 660 126.310546875 660 c 2
 526.310546875 660 l 2x7940
 535.310546875 660 539.500976562 661 544.071289062 664 c 2
 550.041015625 669 l 2
 552.430664062 671 555.430664062 671 558.430664062 671 c 0
 562.430664062 671 566.030273438 669 568.049804688 664 c 2x7340
 613.919921875 545 l 2
 615.330078125 542 615.75 539 615.360351562 537 c 0
 614.390625 532 610.8203125 529 606.240234375 526 c 2
 589.509765625 517 l 2
 583.919921875 514 581.740234375 513 578.740234375 513 c 0
 574.740234375 513 572.3203125 516 570.30078125 521 c 2
 568.270507812 526 l 2
 537.670898438 600 513.170898438 618 445.170898438 618 c 2
 266.170898438 618 l 1
 218.161132812 371 l 1
 332.161132812 371 l 2
 375.161132812 371 400.041015625 391 407.611328125 430 c 2
 408.78125 436 l 2
 410.53125 445 415.30078125 449 424.30078125 449 c 2
 430.30078125 449 l 2
 439.30078125 449 442.520507812 445 440.770507812 436 c 2
 407.73046875 266 l 2
 405.98046875 257 401.2109375 253 392.2109375 253 c 2
 386.2109375 253 l 2
 377.2109375 253 373.991210938 257 375.741210938 266 c 2
 376.7109375 271 l 2x7980
 384.470703125 311 368.170898438 330 324.170898438 330 c 2
 210.170898438 330 l 1
 170.510742188 126 l 2
 160.030273438 72 185.180664062 42 224.180664062 42 c 2
 299.180664062 42 l 2
 428.180664062 42 476.041015625 67 556.791015625 184 c 2
 560.951171875 190 l 2
 565.30078125 197 572.880859375 200 580.890625 195 c 2
 593.530273438 188 l 2x7940
423.491210938 721.860351562 m 0
 415.241210938 713.25 390.171875 733.48046875 394.702148438 739.4609375 c 0
 405.801757812 754.12109375 422.801757812 768.760742188 426.6015625 788.310546875 c 0
 429.771484375 804.690429688 419.8515625 812.400390625 405.521484375 812.400390625 c 0
 387.951171875 812.400390625 373.581054688 798.740234375 371.161132812 805.240234375 c 0
 366.771484375 817 357.581054688 831.690429688 363.521484375 846.530273438 c 0
 366.87109375 854.940429688 392.951171875 868.98046875 421.931640625 868.98046875 c 0
 472.622070312 868.98046875 481.33203125 829.9609375 475.891601562 801.991210938 c 0
 471.3515625 778.55078125 452.221679688 751.30078125 423.491210938 721.860351562 c 0
EndSplineSet
Substitution2: "'c2sc' Capitals to Small Capitals in Latin lookup 11 subtable" uni1EBA.sc
AlternateSubs2: "'aalt' Access All Alternates in Latin lookup 0 subtable" uni1EBA.sc
Position2: "'cpsp' Capital Spacing in Latin lookup 0 subtable" dx=5 dy=0 dh=10 dv=0
EndChar

StartChar: uni0206
Encoding: 518 518 66
Width: 624
GlyphClass: 2
Flags: MW
HStem: 0 33<-6.44922 5.4502 4.4502 5.4502 5.4502 26.9502 4.4502 439.051> 0 42<224.181 299.181 299.181 363.681> 330 41<218.161 324.171 210.171 332.161> 429 20G<424.301 430.301 430.301 434.801> 618 42<266.171 445.171 266.171 266.171> 626 34<126.311 141.711> 651 20G<556.931 560.431> 832.52 40.48
VStem: -14 629 408.16 32.59
AnchorPoint: "Anchor-6" 459 0 basechar 0
AnchorPoint: "Anchor-5" 434 899 basechar 0
AnchorPoint: "Anchor-4" 267 0 basechar 0
LayerCount: 2
Fore
SplineSet
593.530273438 188 m 2x7980
 601.760742188 184 600.80078125 179 595.060546875 170 c 2
 478.240234375 -4 l 2
 475.080078125 -10 470.690429688 -12 466.690429688 -12 c 0
 463.690429688 -12 461.890625 -11 459.291015625 -9 c 2
 456.260742188 -4 l 2
 452.850585938 -1 450.05078125 0 439.05078125 0 c 2
 -1.94921875 0 l 2x7980
 -10.94921875 0 -15.1591796875 4 -13.4091796875 13 c 2
 -12.0595703125 20 l 2
 -10.509765625 28 -3.5498046875 33 4.4501953125 33 c 2
 5.4501953125 33 l 2
 48.4501953125 33 74.6806640625 60 85.5703125 116 c 2
 168.5703125 543 l 2
 179.260742188 598 163.7109375 626 119.7109375 626 c 0xb580
 111.7109375 626 106.880859375 632 108.430664062 640 c 2
 109.590820312 646 l 2
 111.340820312 655 117.310546875 660 126.310546875 660 c 2
 526.310546875 660 l 2x7980
 535.310546875 660 539.500976562 661 544.071289062 664 c 2
 550.041015625 669 l 2
 552.430664062 671 555.430664062 671 558.430664062 671 c 0
 562.430664062 671 566.030273438 669 568.049804688 664 c 2x7380
 613.919921875 545 l 2
 615.330078125 542 615.75 539 615.360351562 537 c 0
 614.390625 532 610.8203125 529 606.240234375 526 c 2
 589.509765625 517 l 2
 583.919921875 514 581.740234375 513 578.740234375 513 c 0
 574.740234375 513 572.3203125 516 570.30078125 521 c 2
 568.270507812 526 l 2
 537.670898438 600 513.170898438 618 445.170898438 618 c 2
 266.170898438 618 l 1
 218.161132812 371 l 1
 332.161132812 371 l 2
 375.161132812 371 400.041015625 391 407.611328125 430 c 2
 408.78125 436 l 2
 410.53125 445 415.30078125 449 424.30078125 449 c 2
 430.30078125 449 l 2
 439.30078125 449 442.520507812 445 440.770507812 436 c 2
 407.73046875 266 l 2
 405.98046875 257 401.2109375 253 392.2109375 253 c 2
 386.2109375 253 l 2
 377.2109375 253 373.991210938 257 375.741210938 266 c 2
 376.7109375 271 l 2x7940
 384.470703125 311 368.170898438 330 324.170898438 330 c 2
 210.170898438 330 l 1
 170.510742188 126 l 2
 160.030273438 72 185.180664062 42 224.180664062 42 c 2
 299.180664062 42 l 2
 428.180664062 42 476.041015625 67 556.791015625 184 c 2
 560.951171875 190 l 2
 565.30078125 197 572.880859375 200 580.890625 195 c 2
 593.530273438 188 l 2x7980
430.701171875 873 m 1
 430.639648438 873 l 1
 521.639648438 873 539.669921875 805.299804688 533.299804688 772.509765625 c 0
 531.359375 762.509765625 525.989257812 758.719726562 515.399414062 757.51953125 c 0
 511.26953125 757.049804688 499.879882812 756.639648438 492.879882812 755.939453125 c 0
 479.530273438 754.619140625 476.390625 757.779296875 478.590820312 772.059570312 c 0
 484.190429688 808.549804688 462.610351562 832.549804688 422.810546875 832.549804688 c 0
 383.010742188 832.549804688 352.090820312 808.549804688 343.520507812 772.059570312 c 0
 340.170898438 757.779296875 335.80078125 754.619140625 322.98046875 755.939453125 c 0
 316.240234375 756.639648438 305.020507812 757.049804688 301.0703125 757.51953125 c 0
 290.950195312 758.719726562 287.060546875 762.509765625 289.000976562 772.509765625 c 0
 295.37109375 805.299804688 339.701171875 873 430.701171875 873 c 1
EndSplineSet
Substitution2: "'c2sc' Capitals to Small Capitals in Latin lookup 11 subtable" uni0206.sc
AlternateSubs2: "'aalt' Access All Alternates in Latin lookup 0 subtable" uni0206.sc
Position2: "'cpsp' Capital Spacing in Latin lookup 0 subtable" dx=5 dy=0 dh=10 dv=0
EndChar

